<svg xmlns="http://www.w3.org/2000/svg" xmlns:xlink="http://www.w3.org/1999/xlink" id="Layer_1" x="0px" y="0px" width="399.667px" height="57.167px" viewBox="0 0 399.667 57.167" xml:space="preserve">
<path fill="#FFFFFF" d="M36.838,16.9c-1.12-1.035-2.356-1.948-3.705-2.732c-3.195-1.866-6.688-2.813-10.384-2.813  c-5.701,0-10.645,2.054-14.695,6.104c-4.034,4.033-6.079,8.97-6.079,14.671c0,5.7,2.044,10.644,6.082,14.698  c4.049,4.032,8.993,6.076,14.692,6.076c5.701,0,10.637-2.045,14.671-6.079c4.05-4.049,6.104-8.993,6.104-14.695V2.933h-6.686V16.9z   M32.712,42.093c-2.776,2.776-6.036,4.126-9.963,4.126c-3.928,0-7.187-1.35-9.963-4.126c-2.776-2.775-4.126-6.034-4.126-9.963  c0-3.928,1.35-7.187,4.126-9.963c2.777-2.776,6.036-4.126,9.963-4.126c3.927,0,7.186,1.35,9.962,4.126  c2.777,2.777,4.126,6.036,4.126,9.963C36.838,36.058,35.489,39.316,32.712,42.093z"/>
<path fill="#FFFFFF" d="M76.418,34.938c0,3.186-1.101,5.828-3.37,8.083c-2.25,2.251-4.886,3.345-8.058,3.345  c-3.189,0-5.833-1.094-8.083-3.345c-2.25-2.251-3.345-4.895-3.345-8.083V12.674h-6.686v22.264c0,4.971,1.781,9.281,5.301,12.819  c3.53,3.513,7.841,5.294,12.812,5.294c4.954,0,9.257-1.781,12.795-5.302c3.513-3.53,5.294-7.841,5.294-12.812V12.674h-6.661V34.938z  "/>
<polygon fill="#FFFFFF" points="121.64,12.723 112.171,12.723 93.119,31.587 93.119,2.908 86.433,2.908 86.433,51.488   93.119,51.488 93.119,40.971 97.407,36.716 111.628,51.537 121,51.537 102.157,32.016 "/>
<path fill="#FFFFFF" d="M138.755,11.355c-5.701,0-10.645,2.054-14.695,6.104c-4.034,4.033-6.079,8.97-6.079,14.671  c0,5.7,2.044,10.644,6.082,14.698c4.049,4.032,8.993,6.076,14.692,6.076c3.692,0,7.183-0.937,10.388-2.79  c1.347-0.791,2.583-1.709,3.701-2.747v4.194h6.686V32.13c0-5.703-2.055-10.64-6.101-14.668  C149.395,13.41,144.458,11.355,138.755,11.355z M148.718,42.093c-2.777,2.776-6.036,4.126-9.963,4.126  c-3.928,0-7.187-1.35-9.963-4.126c-2.776-2.775-4.126-6.034-4.126-9.963c0-3.928,1.35-7.187,4.126-9.963  c2.777-2.776,6.036-4.126,9.963-4.126c3.927,0,7.186,1.35,9.962,4.126c2.777,2.777,4.126,6.036,4.126,9.963  C152.844,36.058,151.495,39.316,148.718,42.093z"/>
<path fill="#FFFFFF" d="M204.043,11.331c-3.116,0-6.021,0.865-8.634,2.569c-1.546,1.004-2.872,2.224-3.964,3.642  c-1.092-1.418-2.417-2.637-3.96-3.64c-2.615-1.706-5.529-2.571-8.661-2.571c-4.375,0-8.163,1.578-11.249,4.684  c-3.113,3.095-4.691,6.891-4.691,11.281v24.217h6.686V27.296c0-2.583,0.888-4.733,2.71-6.569c1.824-1.823,3.964-2.71,6.545-2.71  c2.583,0,4.733,0.889,6.564,2.705c1.827,1.841,2.715,3.991,2.715,6.574v24.217h6.686V27.296c0-2.583,0.888-4.733,2.71-6.569  c1.824-1.823,3.964-2.71,6.545-2.71c2.583,0,4.733,0.889,6.564,2.705c1.827,1.841,2.715,3.991,2.715,6.574v24.217h6.686V27.296  c0-4.391-1.579-8.187-4.683-11.273C212.23,12.909,208.434,11.331,204.043,11.331z"/>
<path fill="#FFFFFF" d="M243.038,11.355c-5.701,0-10.646,2.054-14.695,6.104c-4.034,4.033-6.079,8.97-6.079,14.671  c0,5.7,2.044,10.644,6.082,14.698c4.049,4.032,8.992,6.076,14.692,6.076c3.692,0,7.183-0.937,10.388-2.79  c1.348-0.791,2.582-1.709,3.701-2.748v4.195h6.686V32.13c0-5.702-2.055-10.64-6.102-14.668  C253.677,13.41,248.74,11.355,243.038,11.355z M253,42.093c-2.776,2.776-6.035,4.126-9.962,4.126c-3.928,0-7.187-1.35-9.963-4.126  c-2.776-2.775-4.126-6.034-4.126-9.963c0-3.928,1.35-7.187,4.126-9.963s6.036-4.126,9.963-4.126c3.927,0,7.186,1.35,9.962,4.126  c2.777,2.777,4.127,6.036,4.127,9.963C257.127,36.058,255.777,39.316,253,42.093z"/>
<path fill="#FFFFFF" d="M285.23,11.331c-4.957,0-9.252,1.782-12.768,5.298s-5.297,7.811-5.297,12.767v22.142h6.686V29.396  c0-3.172,1.094-5.808,3.35-8.063c2.232-2.248,4.859-3.341,8.029-3.341c1.182,0,2.361,0.188,3.508,0.562l2.617,0.851v-7.076  l-1.488-0.394C288.354,11.534,286.793,11.331,285.23,11.331z"/>
<polygon fill="#FFFFFF" points="328.695,12.723 319.227,12.723 300.174,31.587 300.174,2.908 293.488,2.908 293.488,51.488   300.174,51.488 300.174,40.971 304.463,36.716 318.684,51.537 328.055,51.537 309.213,32.016 "/>
<path fill="#FFFFFF" d="M359.838,16.842c-3.945-3.641-8.666-5.486-14.027-5.486c-5.701,0-10.645,2.054-14.695,6.104  c-4.033,4.033-6.078,8.97-6.078,14.671s2.045,10.638,6.078,14.671c4.049,4.05,8.994,6.104,14.695,6.104  c4.396,0,8.436-1.301,12.006-3.865c3.475-2.489,5.98-5.787,7.451-9.801l0.684-1.87h-7.084l-0.168,0.385  c-1.109,2.547-2.773,4.54-5.088,6.093c-2.389,1.597-4.939,2.373-7.801,2.373c-3.77,0-6.939-1.26-9.68-3.843  c-2.189-2.085-3.541-4.486-4.098-7.294h34.4l0.152-2.952c0-0.55-0.035-1.18-0.107-1.916C365.996,24.94,363.76,20.44,359.838,16.842z   M332.203,28.396c0.672-2.598,2.043-4.811,4.158-6.722c2.705-2.445,5.795-3.634,9.449-3.634c3.641,0,6.732,1.189,9.447,3.631  c2.104,1.911,3.475,4.126,4.152,6.725H332.203z"/>
<path fill="#FFFFFF" d="M394.031,19.359v-6.686h-18.48V6.399h-6.711v30.662c0,4.328,1.57,8.083,4.664,11.155  c3.061,3.062,6.807,4.614,11.131,4.614c3.129,0,5.984-0.823,8.486-2.446l0.91-0.592v-8.991l-3.342,3.029  c-1.719,1.558-3.699,2.314-6.055,2.314c-2.533,0-4.633-0.87-6.424-2.661c-1.791-1.79-2.66-3.891-2.66-6.423V19.359H394.031z"/>
</svg>