<?xml version="1.0" encoding="UTF-8"?>
<svg width="24px" height="24px" viewBox="0 0 24 24" version="1.1" xmlns="http://www.w3.org/2000/svg" xmlns:xlink="http://www.w3.org/1999/xlink">
    <!-- Generator: Sketch 63.1 (92452) - https://sketch.com -->
    <title>icons/24/Add to cart</title>
    <desc>Created with Sketch.</desc>
    <g id="icons/24/Add-to-cart" stroke="none" stroke-width="1" fill="none" fill-rule="evenodd">
        <path d="M20,16 L20,19 L23,19 L23,21 L20,21 L20,24 L18,24 L18,21 L15,21 L15,19 L18,19 L18,16 L20,16 Z M12,1 C14.0410381,1 15.6430787,3.02184698 16.4421725,5.9481702 L20.9945704,5.9292735 L21,13.9993272 L19,14.0006728 L18.996,7.937 L16.8420294,7.94554817 C16.9332714,8.62559115 16.9862459,9.33450737 16.9976582,10.062182 L17,10.361305 L15,10.361305 C15,9.51385187 14.935098,8.70447401 14.8193602,7.95317924 L9.17696328,7.97717643 C9.07684387,8.63430443 9.01560205,9.33555997 9.00260402,10.0676207 L9,10.361305 L7,10.361305 C7,9.54298992 7.05241675,8.74635571 7.15265886,7.98549857 L4.999,7.995 L4.999,20 L12,20 L12,22 L3,22 L3,6.00415254 L7.54779605,5.9851095 C8.34346469,3.03887531 9.95038491,1 12,1 Z M12,3 C11.1278402,3 10.2240125,4.1583429 9.63945414,5.97586163 L14.3544597,5.95699776 C13.7697262,4.15033182 12.8691387,3 12,3 Z" id="Combined-Shape" fill="#ffffff"></path>
    </g>
</svg>