<?xml version="1.0" encoding="UTF-8"?>
<svg width="91px" height="51px" viewBox="0 0 91 51" version="1.1" xmlns="http://www.w3.org/2000/svg" xmlns:xlink="http://www.w3.org/1999/xlink">
    <!-- Generator: Sketch 63.1 (92452) - https://sketch.com -->
    <title>Group 5</title>
    <desc>Created with Sketch.</desc>
    <g id="Page-1" stroke="none" stroke-width="1" fill="none" fill-rule="evenodd">
        <g id="HOME-UI" transform="translate(-40.000000, -36.000000)" fill-rule="nonzero">
            <g id="Group-5" transform="translate(40.000000, 36.000000)">
                <path d="M7.86964773,31.3893409 L7.86964773,29.5429091 L4.14548864,29.5429091 L4.17678409,2.12809091 L7.86964773,2.12809091 L7.86964773,0.281659091 L0.483920455,0.281659091 L0.483920455,31.3893409 L7.86964773,31.3893409 Z M16.3194205,25.9126364 C18.1554205,25.9126364 19.5428523,25.4275568 20.4817159,24.4573977 C21.4205795,23.4872386 21.8900114,22.0737273 21.8900114,20.2168636 L21.8900114,20.2168636 L21.8900114,18.9650455 L17.8841932,18.9650455 L17.8841932,20.4985227 C17.8841932,21.2913409 17.7642273,21.8807386 17.5242955,22.2667159 C17.2843636,22.6526932 16.8931705,22.8456818 16.3507159,22.8456818 C15.7873977,22.8456818 15.3753409,22.6474773 15.1145455,22.2510682 C14.85375,21.8546591 14.7233523,21.2183182 14.7233523,20.3420455 L14.7233523,20.3420455 L14.7233523,16.7743636 L21.9213068,16.7743636 L21.9213068,14.1768409 C21.9213068,11.8609773 21.4988182,10.1292955 20.6538409,8.98179545 C19.8088636,7.83429545 18.3640568,7.26054545 16.3194205,7.26054545 C14.337375,7.26054545 12.8717045,7.81343182 11.9224091,8.91920455 C10.9731136,10.0249773 10.4984659,11.6836364 10.4984659,13.8951818 L10.4984659,13.8951818 L10.4984659,19.278 C10.4984659,21.4686818 10.9678977,23.122125 11.9067614,24.2383295 C12.845625,25.3545341 14.3165114,25.9126364 16.3194205,25.9126364 Z M17.8841932,14.6775682 L14.7233523,14.6775682 L14.7233523,13.42575 C14.7233523,12.2365227 14.8381023,11.4228409 15.0676023,10.9847045 C15.2971023,10.5465682 15.714375,10.3275 16.3194205,10.3275 C16.9036023,10.3275 17.3104432,10.5309205 17.5399432,10.9377614 C17.7694432,11.3446023 17.8841932,12.0174545 17.8841932,12.9563182 L17.8841932,12.9563182 L17.8841932,14.6775682 Z M31.4664205,25.9752273 C32.7182386,25.9752273 33.8240114,25.7092159 34.7837386,25.1771932 C35.7434659,24.6451705 36.4893409,23.9097273 37.0213636,22.9708636 C37.5533864,22.032 37.8193977,20.9575227 37.8193977,19.7474318 C37.8193977,18.2035227 37.4855795,16.8473864 36.8179432,15.6790227 C36.1503068,14.5106591 35.221875,13.4153182 34.0326477,12.393 L34.0326477,12.393 L30.8718068,9.60770455 C30.1415795,8.98179545 29.6147727,8.39239773 29.2913864,7.83951136 C28.968,7.286625 28.8063068,6.60334091 28.8063068,5.78965909 C28.8063068,5.10115909 28.9940795,4.532625 29.369625,4.08405682 C29.7451705,3.63548864 30.2667614,3.41120455 30.9343977,3.41120455 C31.8732614,3.41120455 32.5043864,3.76067045 32.8277727,4.45960227 C33.1511591,5.15853409 33.3441477,6.1965 33.4067386,7.5735 L33.4067386,7.5735 L37.3812614,6.885 C37.2352159,4.77777273 36.6875455,3.10346591 35.73825,1.86207955 C34.7889545,0.620693182 33.2189659,-4.11791813e-15 31.0282841,-4.11791813e-15 C28.9836477,-4.11791813e-15 27.3823636,0.547670455 26.2244318,1.64301136 C25.0665,2.73835227 24.4875341,4.27704545 24.4875341,6.25909091 C24.4875341,7.59436364 24.7326818,8.74186364 25.2229773,9.70159091 C25.7132727,10.6613182 26.4487159,11.5584545 27.4293068,12.393 L27.4293068,12.393 L30.6214432,15.1782955 C31.5811705,16.0128409 32.2853182,16.7795795 32.7338864,17.4785114 C33.1824545,18.1774432 33.4067386,19.0276364 33.4067386,20.0290909 C33.4067386,20.7593182 33.2346136,21.3382841 32.8903636,21.7659886 C32.5461136,22.1936932 32.0193068,22.4075455 31.3099432,22.4075455 C30.3502159,22.4075455 29.6460682,21.9850568 29.1975,21.1400795 C28.7489318,20.2951023 28.4933523,19.0693636 28.4307614,17.4628636 L28.4307614,17.4628636 L24.4562386,18.24525 C24.5605568,20.8114773 25.18125,22.7413636 26.3183182,24.0349091 C27.4553864,25.3284545 29.1714205,25.9752273 31.4664205,25.9752273 Z M44.5792159,25.6309773 L44.5792159,11.2976591 C45.3720341,10.6926136 46.0501023,10.3900909 46.6134205,10.3900909 C47.0724205,10.3900909 47.3905909,10.5257045 47.5679318,10.7969318 C47.7452727,11.0681591 47.8339432,11.4958636 47.8339432,12.0800455 L47.8339432,12.0800455 L47.8339432,25.6309773 L52.0588295,25.6309773 L52.0588295,11.2350682 C52.0588295,10.0875682 51.8136818,9.13827273 51.3233864,8.38718182 C50.8330909,7.63609091 50.0767841,7.26054545 49.0544659,7.26054545 C47.4271023,7.26054545 45.9353523,7.93861364 44.5792159,9.29475 L44.5792159,9.29475 L44.5792159,0.281659091 L40.3230341,0.281659091 L40.3230341,25.6309773 L44.5792159,25.6309773 Z M60.696375,25.9126364 C62.6366932,25.9126364 64.0919318,25.3753977 65.0620909,24.3009205 C66.03225,23.2264432 66.5173295,21.6668864 66.5173295,19.62225 L66.5173295,19.62225 L66.5173295,13.5509318 C66.5173295,11.5062955 66.03225,9.94673864 65.0620909,8.87226136 C64.0919318,7.79778409 62.6366932,7.26054545 60.696375,7.26054545 C58.7560568,7.26054545 57.3060341,7.79778409 56.3463068,8.87226136 C55.3865795,9.94673864 54.9067159,11.5062955 54.9067159,13.5509318 L54.9067159,13.5509318 L54.9067159,19.62225 C54.9067159,21.6668864 55.3865795,23.2264432 56.3463068,24.3009205 C57.3060341,25.3753977 58.7560568,25.9126364 60.696375,25.9126364 Z M60.7276705,22.9708636 C60.0600341,22.9708636 59.6218977,22.7152841 59.4132614,22.204125 C59.204625,21.6929659 59.1003068,20.9366591 59.1003068,19.9352045 L59.1003068,19.9352045 L59.1003068,13.2692727 C59.1003068,12.2678182 59.204625,11.5062955 59.4132614,10.9847045 C59.6218977,10.4631136 60.0600341,10.2023182 60.7276705,10.2023182 C61.3744432,10.2023182 61.8021477,10.4631136 62.0107841,10.9847045 C62.2194205,11.5062955 62.3237386,12.2678182 62.3237386,13.2692727 L62.3237386,13.2692727 L62.3237386,19.9352045 C62.3237386,20.9366591 62.2194205,21.6929659 62.0107841,22.204125 C61.8021477,22.7152841 61.3744432,22.9708636 60.7276705,22.9708636 Z M73.7152841,31.5771136 L73.7152841,24.2852727 C74.8627841,25.3701818 76.0207159,25.9126364 77.1890795,25.9126364 C78.6495341,25.9126364 79.7187955,25.3180227 80.3968636,24.1287955 C81.0749318,22.9395682 81.4139659,21.3747955 81.4139659,19.4344773 L81.4139659,19.4344773 L81.4139659,13.3005682 C81.4139659,11.6940682 81.1114432,10.2857727 80.5063977,9.07568182 C79.9013523,7.86559091 78.8686023,7.26054545 77.4081477,7.26054545 C76.0937386,7.26054545 74.8627841,7.81343182 73.7152841,8.91920455 L73.7152841,8.91920455 L73.7152841,7.54220455 L69.4591023,7.54220455 L69.4591023,31.5771136 L73.7152841,31.5771136 Z M75.5930114,22.9395682 C74.925375,22.9395682 74.2994659,22.7309318 73.7152841,22.3136591 L73.7152841,22.3136591 L73.7152841,10.8908182 C74.3203295,10.3692273 74.9358068,10.1084318 75.5617159,10.1084318 C76.1667614,10.1084318 76.5840341,10.3692273 76.8135341,10.8908182 C77.0430341,11.4124091 77.1577841,12.1426364 77.1577841,13.0815 L77.1577841,13.0815 L77.1577841,19.5909545 C77.1577841,20.655 77.04825,21.4791136 76.8291818,22.0632955 C76.6101136,22.6474773 76.1980568,22.9395682 75.5930114,22.9395682 Z M90.8651932,31.3893409 L90.8651932,0.281659091 L83.4794659,0.281659091 L83.4794659,2.15938636 L87.1723295,2.15938636 L87.1723295,29.5429091 L83.4794659,29.5429091 L83.4794659,31.3893409 L90.8651932,31.3893409 Z" id="[eShop]" fill="#F66F61"></path>
                <path d="M4.15128409,50.12025 C5.276375,50.12025 6.07692045,49.7833409 6.55292045,49.1095227 C7.02892045,48.4357045 7.26692045,47.4558864 7.26692045,46.1700682 L7.26692045,46.1700682 L7.26692045,43.0544318 C7.26692045,41.7686136 7.02892045,40.7887955 6.55292045,40.1149773 C6.07692045,39.4411591 5.276375,39.10425 4.15128409,39.10425 C3.01382955,39.10425 2.20710227,39.4411591 1.73110227,40.1149773 C1.25510227,40.7887955 1.01710227,41.7686136 1.01710227,43.0544318 L1.01710227,43.0544318 L1.01710227,46.1700682 C1.01710227,47.4558864 1.25510227,48.4357045 1.73110227,49.1095227 C2.20710227,49.7833409 3.01382955,50.12025 4.15128409,50.12025 Z M4.15128409,48.6551591 C3.79273864,48.6551591 3.53001136,48.5500682 3.36310227,48.3398864 C3.19619318,48.1297045 3.09419318,47.8700682 3.05710227,47.5609773 C3.02001136,47.2518864 3.00146591,46.8315227 3.00146591,46.2998864 L3.00146591,46.2998864 L3.00146591,42.9431591 C3.00146591,42.4115227 3.02001136,41.9880682 3.05710227,41.6727955 C3.09419318,41.3575227 3.19619318,41.0947955 3.36310227,40.8846136 C3.53001136,40.6744318 3.79273864,40.5693409 4.15128409,40.5693409 C4.50982955,40.5693409 4.76946591,40.6744318 4.93019318,40.8846136 C5.09092045,41.0947955 5.18982955,41.3575227 5.22692045,41.6727955 C5.26401136,41.9880682 5.28255682,42.4115227 5.28255682,42.9431591 L5.28255682,42.9431591 L5.28255682,46.2998864 C5.28255682,46.8315227 5.26401136,47.2518864 5.22692045,47.5609773 C5.18982955,47.8700682 5.09092045,48.1297045 4.93019318,48.3398864 C4.76946591,48.5500682 4.50982955,48.6551591 4.15128409,48.6551591 Z M11.0687386,49.9718864 L11.0687386,41.3297045 C11.600375,40.8846136 12.0640114,40.6620682 12.4596477,40.6620682 C12.7811023,40.6620682 13.0036477,40.7609773 13.1272841,40.9587955 C13.2509205,41.1566136 13.3127386,41.4595227 13.3127386,41.8675227 L13.3127386,41.8675227 L13.3127386,49.9718864 L15.2971023,49.9718864 L15.2971023,41.2926136 C15.2971023,40.6744318 15.1734659,40.1551591 14.9261932,39.7347955 C14.6789205,39.3144318 14.2647386,39.10425 13.6836477,39.10425 C12.7934659,39.10425 11.9218295,39.5060682 11.0687386,40.3097045 L11.0687386,40.3097045 L11.0687386,39.2526136 L9.084375,39.2526136 L9.084375,49.9718864 L11.0687386,49.9718864 Z M24.4029205,50.12025 C25.5032841,50.12025 26.2667386,49.8358864 26.6932841,49.2671591 C27.1198295,48.6984318 27.3331023,47.8329773 27.3331023,46.6707955 L27.3331023,46.6707955 L27.3331023,45.9289773 L25.5341932,45.9289773 L25.5341932,46.8006136 C25.5341932,47.4311591 25.4661932,47.8978864 25.3301932,48.2007955 C25.1941932,48.5037045 24.8974659,48.6551591 24.4400114,48.6551591 C24.1309205,48.6551591 23.8929205,48.59025 23.7260114,48.4604318 C23.5591023,48.3306136 23.4385568,48.1018864 23.364375,47.77425 C23.2901932,47.4466136 23.2531023,46.9737045 23.2531023,46.3555227 L23.2531023,46.3555227 L23.2531023,42.98025 C23.2531023,42.3373409 23.2840114,41.8489773 23.3458295,41.5151591 C23.4076477,41.1813409 23.5189205,40.94025 23.6796477,40.7918864 C23.840375,40.6435227 24.0876477,40.5693409 24.4214659,40.5693409 C24.8541932,40.5693409 25.1478295,40.7084318 25.302375,40.9866136 C25.4569205,41.2647955 25.5341932,41.75625 25.5341932,42.4609773 L25.5341932,42.4609773 L25.5341932,43.1100682 L27.3331023,43.1100682 L27.3331023,42.4795227 C27.3331023,41.7006136 27.2496477,41.0669773 27.0827386,40.5786136 C26.9158295,40.09025 26.6191023,39.7224318 26.1925568,39.4751591 C25.7660114,39.2278864 25.1694659,39.10425 24.4029205,39.10425 C23.5621932,39.10425 22.9131023,39.2680682 22.4556477,39.5957045 C21.9981932,39.9233409 21.6860114,40.39625 21.5191023,41.0144318 C21.3521932,41.6326136 21.2687386,42.4238864 21.2687386,43.38825 L21.2687386,43.38825 L21.2687386,45.8547955 C21.2687386,46.7944318 21.3521932,47.57025 21.5191023,48.18225 C21.6860114,48.79425 21.9981932,49.27025 22.4556477,49.61025 C22.9131023,49.95025 23.5621932,50.12025 24.4029205,50.12025 Z M32.0436477,50.12025 C33.1687386,50.12025 33.9692841,49.7833409 34.4452841,49.1095227 C34.9212841,48.4357045 35.1592841,47.4558864 35.1592841,46.1700682 L35.1592841,46.1700682 L35.1592841,43.0544318 C35.1592841,41.7686136 34.9212841,40.7887955 34.4452841,40.1149773 C33.9692841,39.4411591 33.1687386,39.10425 32.0436477,39.10425 C30.9061932,39.10425 30.0994659,39.4411591 29.6234659,40.1149773 C29.1474659,40.7887955 28.9094659,41.7686136 28.9094659,43.0544318 L28.9094659,43.0544318 L28.9094659,46.1700682 C28.9094659,47.4558864 29.1474659,48.4357045 29.6234659,49.1095227 C30.0994659,49.7833409 30.9061932,50.12025 32.0436477,50.12025 Z M32.0436477,48.6551591 C31.6851023,48.6551591 31.422375,48.5500682 31.2554659,48.3398864 C31.0885568,48.1297045 30.9865568,47.8700682 30.9494659,47.5609773 C30.912375,47.2518864 30.8938295,46.8315227 30.8938295,46.2998864 L30.8938295,46.2998864 L30.8938295,42.9431591 C30.8938295,42.4115227 30.912375,41.9880682 30.9494659,41.6727955 C30.9865568,41.3575227 31.0885568,41.0947955 31.2554659,40.8846136 C31.422375,40.6744318 31.6851023,40.5693409 32.0436477,40.5693409 C32.4021932,40.5693409 32.6618295,40.6744318 32.8225568,40.8846136 C32.9832841,41.0947955 33.0821932,41.3575227 33.1192841,41.6727955 C33.156375,41.9880682 33.1749205,42.4115227 33.1749205,42.9431591 L33.1749205,42.9431591 L33.1749205,46.2998864 C33.1749205,46.8315227 33.156375,47.2518864 33.1192841,47.5609773 C33.0821932,47.8700682 32.9832841,48.1297045 32.8225568,48.3398864 C32.6618295,48.5500682 32.4021932,48.6551591 32.0436477,48.6551591 Z M38.9611023,49.9718864 L38.9611023,41.3297045 C39.4927386,40.8846136 39.956375,40.6620682 40.3520114,40.6620682 C40.6734659,40.6620682 40.8960114,40.7609773 41.0196477,40.9587955 C41.1432841,41.1566136 41.2051023,41.4595227 41.2051023,41.8675227 L41.2051023,41.8675227 L41.2051023,49.9718864 L43.1894659,49.9718864 L43.1894659,41.2926136 C43.1894659,40.6744318 43.0658295,40.1551591 42.8185568,39.7347955 C42.5712841,39.3144318 42.1571023,39.10425 41.5760114,39.10425 C40.6858295,39.10425 39.8141932,39.5060682 38.9611023,40.3097045 L38.9611023,40.3097045 L38.9611023,39.2526136 L36.9767386,39.2526136 L36.9767386,49.9718864 L38.9611023,49.9718864 Z M47.9741932,50.12025 C48.3945568,50.12025 48.8520114,50.0831591 49.3465568,50.0089773 L49.3465568,50.0089773 L49.3465568,48.5438864 C49.1116477,48.5809773 48.8705568,48.5995227 48.6232841,48.5995227 C48.2400114,48.5995227 47.980375,48.5129773 47.844375,48.3398864 C47.708375,48.1667955 47.640375,47.8638864 47.640375,47.4311591 L47.640375,47.4311591 L47.640375,40.5693409 L49.3651023,40.5693409 L49.3651023,39.2526136 L47.640375,39.2526136 L47.640375,36.1184318 L45.6560114,36.1184318 L45.6560114,39.2526136 L44.5247386,39.2526136 L44.5247386,40.5693409 L45.6560114,40.5693409 L45.6560114,47.5609773 C45.6560114,49.2671591 46.4287386,50.12025 47.9741932,50.12025 Z M52.7589205,50.12025 C53.3276477,50.12025 53.794375,49.9533409 54.1591023,49.6195227 C54.5238295,49.2857045 54.780375,48.8777045 54.9287386,48.3955227 C54.9658295,48.7417045 55.052375,49.2671591 55.188375,49.9718864 L55.188375,49.9718864 L57.0058295,49.9718864 C56.8821932,49.0569773 56.820375,48.1977045 56.820375,47.3940682 L56.820375,47.3940682 L56.820375,42.4980682 C56.820375,41.3606136 56.5885568,40.5106136 56.1249205,39.9480682 C55.6612841,39.3855227 54.916375,39.10425 53.8901932,39.10425 C52.8021932,39.10425 51.9985568,39.3855227 51.4792841,39.9480682 C50.9600114,40.5106136 50.6880114,41.3853409 50.6632841,42.57225 L50.6632841,42.57225 L52.6291023,42.6464318 L52.6291023,42.1086136 C52.6291023,41.0947955 53.0061932,40.5878864 53.760375,40.5878864 C54.1931023,40.5878864 54.4805568,40.7331591 54.6227386,41.0237045 C54.7649205,41.31425 54.8360114,41.8118864 54.8360114,42.5166136 L54.8360114,42.5166136 L54.8360114,43.2769773 C53.8469205,43.6726136 53.0741932,44.0249773 52.5178295,44.3340682 C51.9614659,44.6431591 51.5040114,45.0604318 51.1454659,45.5858864 C50.7869205,46.1113409 50.6076477,46.7944318 50.6076477,47.6351591 C50.6076477,48.0555227 50.700375,48.4573409 50.8858295,48.8406136 C51.0712841,49.2238864 51.3278295,49.5329773 51.6554659,49.7678864 C51.9831023,50.0027955 52.3509205,50.12025 52.7589205,50.12025 Z M53.5378295,48.4140682 C53.2287386,48.4140682 52.9938295,48.2935227 52.8331023,48.0524318 C52.672375,47.8113409 52.5920114,47.46825 52.5920114,47.0231591 C52.5920114,46.6275227 52.6878295,46.2875227 52.8794659,46.0031591 C53.0711023,45.7187955 53.3121932,45.4684318 53.6027386,45.2520682 C53.8932841,45.0357045 54.304375,44.7791591 54.8360114,44.4824318 L54.8360114,44.4824318 L54.8360114,47.5238864 C54.7247386,47.7093409 54.5454659,47.9040682 54.2981932,48.1080682 C54.0509205,48.3120682 53.7974659,48.4140682 53.5378295,48.4140682 Z M60.8447386,37.6577045 L60.8447386,35.5806136 L58.860375,35.5806136 L58.860375,37.6577045 L60.8447386,37.6577045 Z M60.8447386,49.9718864 L60.8447386,39.2526136 L58.860375,39.2526136 L58.860375,49.9718864 L60.8447386,49.9718864 Z M64.9618295,49.9718864 L64.9618295,41.3297045 C65.4934659,40.8846136 65.9571023,40.6620682 66.3527386,40.6620682 C66.6741932,40.6620682 66.8967386,40.7609773 67.020375,40.9587955 C67.1440114,41.1566136 67.2058295,41.4595227 67.2058295,41.8675227 L67.2058295,41.8675227 L67.2058295,49.9718864 L69.1901932,49.9718864 L69.1901932,41.2926136 C69.1901932,40.6744318 69.0665568,40.1551591 68.8192841,39.7347955 C68.5720114,39.3144318 68.1578295,39.10425 67.5767386,39.10425 C66.6865568,39.10425 65.8149205,39.5060682 64.9618295,40.3097045 L64.9618295,40.3097045 L64.9618295,39.2526136 L62.9774659,39.2526136 L62.9774659,49.9718864 L64.9618295,49.9718864 Z M74.0861932,50.12025 C75.1371023,50.12025 75.9036477,49.8235227 76.3858295,49.2300682 C76.8680114,48.6366136 77.1091023,47.7773409 77.1091023,46.65225 L77.1091023,46.65225 L77.1091023,46.24425 L75.180375,46.24425 L75.180375,46.8933409 C75.180375,47.4867955 75.1061932,47.9287955 74.9578295,48.2193409 C74.8094659,48.5098864 74.5251023,48.6551591 74.1047386,48.6551591 C73.684375,48.6551591 73.378375,48.5098864 73.1867386,48.2193409 C72.9951023,47.9287955 72.8992841,47.4558864 72.8992841,46.8006136 L72.8992841,46.8006136 L72.8992841,44.6493409 L77.1276477,44.6493409 L77.1276477,43.7777045 C77.1276477,42.6773409 77.0565568,41.8026136 76.914375,41.1535227 C76.7721932,40.5044318 76.4816477,40.0006136 76.0427386,39.6420682 C75.6038295,39.2835227 74.9516477,39.10425 74.0861932,39.10425 C72.8992841,39.10425 72.0740114,39.4473409 71.610375,40.1335227 C71.1467386,40.8197045 70.9149205,41.9046136 70.9149205,43.38825 L70.9149205,43.38825 L70.9149205,45.83625 C70.9149205,46.8253409 71.0076477,47.6289773 71.1931023,48.2471591 C71.3785568,48.8653409 71.7000114,49.3320682 72.1574659,49.6473409 C72.6149205,49.9626136 73.2578295,50.12025 74.0861932,50.12025 Z M75.180375,43.5737045 L72.8992841,43.5737045 L72.8992841,42.9987955 C72.8992841,42.3558864 72.9301932,41.8644318 72.9920114,41.5244318 C73.0538295,41.1844318 73.1681932,40.94025 73.3351023,40.7918864 C73.5020114,40.6435227 73.7461932,40.5693409 74.0676477,40.5693409 C74.5251023,40.5693409 74.8249205,40.7269773 74.9671023,41.04225 C75.1092841,41.3575227 75.180375,41.8798864 75.180375,42.6093409 L75.180375,42.6093409 L75.180375,43.5737045 Z M80.9665568,49.9718864 L80.9665568,42.1457045 C81.2014659,41.7624318 81.4456477,41.4935227 81.6991023,41.3389773 C81.9525568,41.1844318 82.2400114,41.1071591 82.5614659,41.1071591 C82.8952841,41.1071591 83.2600114,41.1813409 83.6556477,41.3297045 L83.6556477,41.3297045 L83.6556477,39.1413409 C83.5567386,39.1289773 83.4516477,39.1227955 83.340375,39.1227955 C82.9076477,39.1227955 82.4965568,39.2464318 82.1071023,39.4937045 C81.7176477,39.7409773 81.3374659,40.1675227 80.9665568,40.7733409 L80.9665568,40.7733409 L80.9665568,39.2526136 L78.9821932,39.2526136 L78.9821932,49.9718864 L80.9665568,49.9718864 Z M87.3647386,50.12025 C88.2796477,50.12025 89.0029205,49.8853409 89.5345568,49.4155227 C90.0661932,48.9457045 90.3320114,48.2657045 90.3320114,47.3755227 C90.3320114,46.7573409 90.1991023,46.2318864 89.9332841,45.7991591 C89.6674659,45.3664318 89.2934659,44.9275227 88.8112841,44.4824318 L88.8112841,44.4824318 L86.9196477,42.7391591 C86.5611023,42.4177045 86.3818295,42.0591591 86.3818295,41.6635227 C86.3818295,41.3544318 86.4776477,41.0947955 86.6692841,40.8846136 C86.8609205,40.6744318 87.1174659,40.5693409 87.4389205,40.5693409 C87.8345568,40.5693409 88.1312841,40.7269773 88.3291023,41.04225 C88.5269205,41.3575227 88.6691023,41.8180682 88.7556477,42.4238864 L88.7556477,42.4238864 L90.0909205,41.9231591 C90.0167386,41.0947955 89.7478295,40.4178864 89.2841932,39.8924318 C88.8205568,39.3669773 88.1807386,39.10425 87.3647386,39.10425 C86.5116477,39.10425 85.8378295,39.3360682 85.3432841,39.7997045 C84.8487386,40.2633409 84.6014659,40.9093409 84.6014659,41.7377045 C84.6014659,42.3187955 84.7158295,42.81025 84.9445568,43.2120682 C85.1732841,43.6138864 85.4978295,43.9940682 85.9181932,44.3526136 L85.9181932,44.3526136 L87.7541932,45.9289773 C88.0632841,46.1886136 88.2858295,46.4420682 88.4218295,46.6893409 C88.5578295,46.9366136 88.6258295,47.2147955 88.6258295,47.5238864 C88.6258295,47.8700682 88.5300114,48.1451591 88.338375,48.3491591 C88.1467386,48.5531591 87.8778295,48.6551591 87.5316477,48.6551591 C87.0865568,48.6551591 86.7434659,48.48825 86.502375,48.1544318 C86.2612841,47.8206136 86.0912841,47.3075227 85.992375,46.6151591 L85.992375,46.6151591 L84.3418295,47.1158864 C84.4160114,48.0307955 84.7220114,48.76025 85.2598295,49.30425 C85.7976477,49.84825 86.4992841,50.12025 87.3647386,50.12025 Z" id="oncontainers" fill="#FFFFFF"></path>
            </g>
        </g>
    </g>
</svg>