<?xml version="1.0" encoding="UTF-8"?>
<svg width="24px" height="24px" viewBox="0 0 24 24" version="1.1" xmlns="http://www.w3.org/2000/svg" xmlns:xlink="http://www.w3.org/1999/xlink">
    <!-- Generator: Sketch 63.1 (92452) - https://sketch.com -->
    <title>icons/24/User</title>
    <desc>Created with Sketch.</desc>
    <g id="icons/24/User" stroke="none" stroke-width="1" fill="none" fill-rule="evenodd">
        <path d="M12,1 C16.9705627,1 21,5.02943725 21,10 L20.9989118,9.83912145 C22.7368171,10.3167676 24,12.0121861 24,14 C24,16.215077 22.4314715,18.0670786 20.3854004,18.2755687 C19.0752166,21.626596 15.8147774,24 12,24 C8.16103345,24 4.88345742,21.5964015 3.59008364,18.2120161 C1.5563077,17.9911186 0,16.1449342 0,13.9385033 C0,11.9499229 1.26415717,10.2539635 3.00309872,9.77707276 C3.12085599,4.90969523 7.10384887,1 12,1 Z M18.9311024,9.01402224 L18.8697331,9.09588279 C17.2056089,11.213703 13.7288644,12.632129 8.55548097,13.4280977 L7,13.6554978 L7,11.281 L5,11.781 L5,15 C5,18.7854517 8.00478338,21.8690987 11.7593502,21.995941 L12,22 C15.8659932,22 19,18.8659932 19,15 L19,15 L19,10 C19,9.66533607 18.9765147,9.33615742 18.9311024,9.01402224 Z M21.0006401,12.014506 L21,15 C21,15.3457872 20.9804993,15.6870198 20.9425375,16.022658 C21.5659192,15.6387269 22,14.8855291 22,14 C22,13.1422184 21.5926963,12.4086051 21.0006401,12.014506 Z M3.00035072,11.9523502 C2.40775813,12.3462901 2,13.0802433 2,13.9385033 C2,14.821162 2.43127123,15.5723458 3.05133256,15.957424 C3.01703304,15.6423594 3,15.3231688 3,15 L3,15 Z M12,3 C8.22870202,3 5.15397054,5.98235572 5.00560569,9.71726702 L9,8.71922359 L9,11.329 L9.03666776,11.3235266 C14.6993836,10.3473331 17.5915576,8.6281446 17.9628877,6.33159917 C16.7302084,4.3323533 14.5206981,3 12,3 Z" id="Combined-Shape" fill="#292929"></path>
    </g>
</svg>