<?xml version="1.0" encoding="iso-8859-1"?>
<!-- Generator: Adobe Illustrator 19.0.0, SVG Export Plug-In . SVG Version: 6.00 Build 0)  -->
<svg version="1.1" id="Layer_1" xmlns="http://www.w3.org/2000/svg" xmlns:xlink="http://www.w3.org/1999/xlink" x="0px" y="0px"
	 viewBox="0 0 259.244 259.244" style="enable-background:new 0 0 259.244 259.244;" xml:space="preserve">
<g>
	<path style="fill:#3DB39E;" d="M248.348,129.3h-15.849C232.41,65.277,180.831,13.394,117.202,13.394
		c-31.841,0-60.661,12.998-81.534,33.996C14.017,68.549,0.25,97.092,0.036,129.3H0l0.018,0.331L0,130.033h0.036
		c0.393,63.853,51.758,115.816,115.19,115.816c31.841,0,60.661-13.007,81.534-34.049l-25.852-24.931
		c-14.178,14.303-34.058,23.027-55.682,23.135c-44.401,0.206-79.201-36.49-79.201-80.122c-0.107-22.893,10.092-42.908,25.486-57.595
		c14.186-14.285,34.058-23.001,55.691-23.108c44.41-0.206,79.201,36.445,79.201,79.997v0.125h-15.661
		c-9.708,0-13.668,6.499-8.814,14.41l33.799,33.433c7.732,7.732,9.967,7.661,17.646,0l33.799-33.433
		C262.025,135.781,258.056,129.3,248.348,129.3z"/>
</g>
<g>
</g>
<g>
</g>
<g>
</g>
<g>
</g>
<g>
</g>
<g>
</g>
<g>
</g>
<g>
</g>
<g>
</g>
<g>
</g>
<g>
</g>
<g>
</g>
<g>
</g>
<g>
</g>
<g>
</g>
</svg>
