<?xml version="1.0" standalone="no"?>
<!DOCTYPE svg PUBLIC "-//W3C//DTD SVG 1.1//EN" "http://www.w3.org/Graphics/SVG/1.1/DTD/svg11.dtd" >
<svg xmlns="http://www.w3.org/2000/svg" xmlns:xlink="http://www.w3.org/1999/xlink" version="1.1">
<metadata>
Created by FontForge 20170731 at Tue Apr 30 17:14:28 2019
 By Aleksey,,,
Copyright 2016 The Oswald Project Authors (https://github.com/googlefonts/OswaldFont)
</metadata>
<defs>
<font id="Oswald-Medium" horiz-adv-x="0" >
  <font-face 
    font-family="Oswald Medium"
    font-weight="500"
    font-stretch="normal"
    units-per-em="1000"
    panose-1="0 0 0 0 0 0 0 0 0 0"
    ascent="800"
    descent="-200"
    x-height="578"
    cap-height="810"
    bbox="-210 -323 1309 1308"
    underline-thickness="50"
    underline-position="-175"
    unicode-range="U+000D-FB02"
  />
<missing-glyph horiz-adv-x="674" 
d="M86 0v810h502v-810h-502zM189 90h296v630h-296v-630z" />
    <glyph glyph-name="fi" unicode="fi" horiz-adv-x="522" 
d="M78 0v483h-62v95h62v37q0 55 13 93t45 58t88 20q15 0 31 -1.5t33 -3.5v-96q-7 1 -15 2t-15 1q-23 0 -33.5 -13.5t-10.5 -47.5v-49h253v-578h-135v483h-118v-483h-136zM342 670v113h126v-113h-126z" />
    <glyph glyph-name="fl" unicode="fl" horiz-adv-x="534" 
d="M77 0v481h-63v97h63v37q0 32 5 65t24 61.5t61.5 45.5t117.5 17q39 0 88 -5.5t110 -17.5v-781h-136v706q-13 2 -25 2.5t-23 0.5q-42 0 -60 -12t-22.5 -33.5t-4.5 -48.5v-18.5v-18.5h75v-97h-75v-481h-135z" />
    <glyph glyph-name="f_f" unicode="ff" horiz-adv-x="580" 
d="M80 0v483h-62v95h62v37q0 52 9.5 90.5t40 59.5t92.5 21q19 0 36 -1.5t38 -4.5v-101q-8 2 -18.5 3.5t-19.5 1.5q-24 0 -33 -15t-9 -44v-47h80v-95h-80v-483h-136zM355 0v483h-62v95h62v37q0 52 9.5 90.5t40 59.5t92.5 21q19 0 36 -1.5t38 -4.5v-101q-8 2 -18.5 3.5
t-19.5 1.5q-24 0 -33 -15t-9 -44v-47h80v-95h-80v-483h-136z" />
    <glyph glyph-name="f_f_i" unicode="ffi" horiz-adv-x="771" 
d="M77 0v484h-63v94h63v37q0 52 9.5 90.5t40 59.5t92.5 21q19 0 34.5 -1.5t33.5 -4.5v-101q-8 2 -17.5 3.5t-17.5 1.5q-23 0 -31.5 -15t-8.5 -44v-47h118v37q0 52 9.5 90.5t40 59.5t93.5 21q19 0 34 -1.5t35 -4.5v-101q-8 2 -18 3.5t-18 1.5q-24 0 -32.5 -15t-8.5 -44v-47
h252v-578h-135v484h-117v-484h-135v484h-118v-484h-135zM590 670v113h128v-113h-128z" />
    <glyph glyph-name="f_f_l" unicode="ffl" horiz-adv-x="818" 
d="M564 804q40 0 89 -5.5t109 -17.5v-781h-136v706q-13 2 -25 2.5t-22 0.5q-42 0 -60.5 -12t-22.5 -33.5t-4 -48.5v-37h74v-95h-74v-483h-136v483h-140v-483h-136v483h-62v95h62v37q0 52 9.5 90.5t40 59.5t92.5 21q19 0 36.5 -1.5t37.5 -4.5v-101q-8 2 -18.5 3.5t-19.5 1.5
q-24 0 -33 -15t-9 -44v-47h140v37q0 32 5 65t24 61.5t62 45.5t117 17z" />
    <glyph glyph-name=".notdef" horiz-adv-x="674" 
d="M86 0v810h502v-810h-502zM189 90h296v630h-296v-630z" />
    <glyph glyph-name=".null" 
 />
    <glyph glyph-name="nonmarkingreturn" horiz-adv-x="333" 
 />
    <glyph glyph-name="NULL" 
 />
    <glyph glyph-name="NULL" 
 />
    <glyph glyph-name="CR" unicode="&#xd;" horiz-adv-x="243" 
 />
    <glyph glyph-name="space" unicode=" " horiz-adv-x="243" 
 />
    <glyph glyph-name="exclam" unicode="!" horiz-adv-x="233" 
d="M90 190l-41 619h136l-48 -619h-47zM48 0v132h132v-132h-132z" />
    <glyph glyph-name="quotedbl" unicode="&#x22;" horiz-adv-x="315" 
d="M23 535v275h118l-52 -275h-66zM185 535v275h118l-51 -275h-67z" />
    <glyph glyph-name="numbersign" unicode="#" horiz-adv-x="511" 
d="M53 0l36 279h-49l1 91h61l14 107h-73l1 93h87l31 240h106l-31 -240h83l32 240h105l-32 -240h48l-2 -93h-60l-14 -107h71l-1 -91h-83l-37 -279h-106l37 279h-83l-36 -279h-106zM207 370h84l14 107h-83z" />
    <glyph glyph-name="dollar" unicode="$" horiz-adv-x="488" 
d="M239 -94v84q-103 4 -153.5 67t-55.5 179l128 25q2 -47 11 -83t28.5 -55.5t51.5 -19.5q36 0 51.5 21.5t15.5 54.5q0 53 -24.5 87t-63.5 68l-103 90q-28 25 -49 52.5t-33 62t-12 80.5q0 91 52 142.5t140 56.5v81h43v-80q51 -3 84 -22.5t52.5 -50t29 -68.5t11.5 -79
l-126 -22q-2 38 -8 68.5t-22.5 48t-48.5 15.5q-34 -1 -51.5 -22t-17.5 -53q0 -43 19 -69.5t47 -52.5l102 -89q32 -29 59.5 -63t44 -76t16.5 -96t-21.5 -96.5t-60.5 -68.5t-93 -32v-85h-43z" />
    <glyph glyph-name="percent" unicode="%" horiz-adv-x="950" 
d="M311 0l237 810h91l-236 -810h-92zM214 365q-93 0 -133 52t-40 149v50q0 99 39 148t134 49t134.5 -47.5t39.5 -146.5v-55q0 -97 -40 -148t-134 -51zM214 457q26 0 38 14t16 39.5t4 57.5v47q0 50 -9 77.5t-49 27.5q-39 0 -48 -27.5t-9 -77.5v-48q0 -32 4 -57t16 -39t37 -14
zM735 -3q-93 0 -132.5 52t-39.5 150v49q0 99 38.5 148.5t133.5 49.5q96 0 135 -48t39 -147v-54q0 -98 -40 -149t-134 -51zM735 90q26 0 38.5 14t16 39t3.5 57v48q0 50 -9 77.5t-49 27.5q-39 0 -48 -28t-9 -77v-48q0 -33 4 -57.5t16 -38.5t37 -14z" />
    <glyph glyph-name="ampersand" unicode="&#x26;" horiz-adv-x="587" 
d="M232 -11q-56 0 -97.5 23.5t-64 66t-22.5 99.5q0 77 33.5 134t83.5 105q-19 36 -39 72.5t-33 74.5t-13 77q0 52 21 92t60 63.5t94 23.5q51 0 89.5 -20t61.5 -56.5t23 -85.5q0 -54 -23.5 -100t-56.5 -83.5t-64 -69.5l108 -185q10 18 17 46t11.5 60t6.5 59h108
q0 -49 -9.5 -93t-25.5 -81.5t-35 -69.5q12 -14 31.5 -24.5t41.5 -11.5v-115q-6 -1 -11.5 -1.5t-10.5 -0.5q-27 1 -50 12.5t-42 28.5t-34 34q-26 -33 -66 -53.5t-93 -20.5zM235 89q30 0 52 15t38 35l-111 187q-23 -33 -35 -69.5t-12 -75.5q0 -24 7 -45.5t22 -34t39 -12.5z
M243 477q17 22 33 53t26 65t10 65q0 27 -16 42.5t-40 15.5q-28 0 -42 -22.5t-14 -54.5q0 -43 14 -85.5t29 -78.5z" />
    <glyph glyph-name="quotesingle" unicode="'" horiz-adv-x="149" 
d="M23 535v275h115l-47 -275h-68z" />
    <glyph glyph-name="parenleft" unicode="(" horiz-adv-x="319" 
d="M286 -186q-62 0 -102 27.5t-64 76t-35.5 112t-14.5 136.5t-3 148q0 78 3 152t14.5 138t35.5 112t64 75t102 27v-94q-31 0 -49.5 -32t-27.5 -88t-11.5 -130.5t-2.5 -159.5q0 -87 2.5 -161t12 -129t27.5 -85.5t49 -31.5v-93z" />
    <glyph glyph-name="parenright" unicode=")" horiz-adv-x="295" 
d="M32 -186v94q31 0 49.5 31t27.5 86.5t12 129.5t3 160t-3 160.5t-11.5 130t-27 87t-50.5 32.5v93q62 0 102.5 -26.5t64.5 -75t35 -112t14 -137t3 -152.5q0 -75 -3 -148t-14 -137t-35 -112.5t-64.5 -76t-102.5 -27.5z" />
    <glyph glyph-name="asterisk" unicode="*" horiz-adv-x="411" 
d="M159 459l-80 48l76 106l-113 43l32 83l104 -57l-12 128h102l-13 -128l106 57l30 -83l-112 -44l76 -105l-82 -48l-56 115z" />
    <glyph glyph-name="plus" unicode="+" horiz-adv-x="432" 
d="M168 209v162h-142v88h142v159h94v-159h145v-88h-145v-162h-94z" />
    <glyph glyph-name="comma" unicode="," horiz-adv-x="213" 
d="M63 -136l-14 50q27 8 46 28.5t19 57.5h-72v135h133v-123q0 -64 -28 -100.5t-84 -47.5z" />
    <glyph glyph-name="hyphen" unicode="-" horiz-adv-x="355" 
d="M57 281v92h241v-92h-241z" />
    <glyph glyph-name="period" unicode="." horiz-adv-x="217" 
d="M47 0v137h132v-137h-132z" />
    <glyph glyph-name="slash" unicode="/" horiz-adv-x="396" 
d="M36 0l234 810h90l-234 -810h-90z" />
    <glyph glyph-name="zero" unicode="0" horiz-adv-x="534" 
d="M267 -12q-71 0 -117.5 30t-70 83t-23.5 122v359q0 71 22.5 124.5t69 83.5t119.5 30t119.5 -30t69 -83.5t22.5 -124.5v-359q0 -69 -23.5 -122t-70 -83t-117.5 -30zM267 107q31 0 46 19t20 46t5 53v355q0 28 -4.5 55.5t-19.5 46.5t-47 19t-47 -19t-19.5 -46.5t-4.5 -55.5
v-355q0 -26 5.5 -53t20.5 -46t45 -19z" />
    <glyph glyph-name="one" unicode="1" horiz-adv-x="392" 
d="M151 0v657q-6 -3 -23.5 -9t-38.5 -11.5t-38.5 -10.5t-24.5 -8v103q14 5 35 14t44.5 20.5t44 25.5t33.5 29h106v-810h-138z" />
    <glyph glyph-name="two" unicode="2" horiz-adv-x="497" 
d="M41 0v98l200 309q22 34 41.5 65t32 64.5t12.5 73.5q0 45 -16 69t-50 24q-32 0 -50 -18t-24.5 -47t-6.5 -64v-34h-136v36q0 72 21.5 126.5t68.5 85.5t123 31q104 0 156 -56t52 -156q0 -50 -14 -90.5t-37 -77.5t-50 -76l-166 -252h246v-111h-403z" />
    <glyph glyph-name="three" unicode="3" horiz-adv-x="496" 
d="M250 -12q-76 0 -122.5 28.5t-67.5 81t-21 122.5v28h137v-10v-14q1 -38 7 -65t22.5 -41t45.5 -14q31 0 46.5 15t21 44t5.5 69q0 62 -19.5 97.5t-75.5 38.5h-9.5h-13.5v111h10.5h10.5q55 1 76 29.5t21 91.5q0 51 -15.5 80t-59.5 29q-43 0 -57.5 -32t-15.5 -83v-14.5v-15.5
h-137v39q0 69 24.5 117.5t71.5 74t114 25.5q69 0 116 -25t71.5 -72.5t24.5 -116.5q0 -72 -30 -118t-77 -60q32 -10 56 -34.5t37.5 -64t13.5 -95.5q0 -73 -20.5 -128.5t-67 -86.5t-123.5 -31z" />
    <glyph glyph-name="four" unicode="4" horiz-adv-x="504" 
d="M274 0v199h-242v118l211 493h161v-501h83v-110h-83v-199h-130zM148 309h126v352z" />
    <glyph glyph-name="five" unicode="5" horiz-adv-x="493" 
d="M249 -12q-81 0 -125.5 30t-61.5 85t-17 129h135q0 -41 5.5 -72.5t22 -49t48.5 -16.5q35 0 49.5 22.5t18.5 63t4 94.5q0 47 -5.5 82t-21.5 54.5t-50 19.5q-29 0 -48 -19.5t-28 -51.5h-119l8 451h364v-124h-248l-8 -195q15 18 43.5 29t63.5 13q64 3 104 -27t59 -87t19 -136
q0 -64 -8.5 -118t-31.5 -93.5t-64.5 -61.5t-107.5 -22z" />
    <glyph glyph-name="six" unicode="6" horiz-adv-x="521" 
d="M267 -11q-75 0 -122 35t-68.5 95.5t-21.5 135.5v284q0 79 18 142.5t64 100.5t129 37q71 0 115.5 -23.5t65.5 -68.5t21 -111q0 -3 0.5 -6.5t0.5 -6.5h-133q0 54 -13 81t-56 27q-26 0 -42 -16t-23.5 -52.5t-7.5 -97.5v-97q14 23 42.5 36.5t66.5 13.5q66 1 104 -29t54.5 -83
t16.5 -121q0 -79 -20 -141.5t-66 -98.5t-125 -36zM268 96q29 0 44 18t21 50t6 75q0 44 -3.5 78.5t-18.5 55t-50 20.5q-17 0 -31.5 -6.5t-25 -16.5t-16.5 -20v-127q0 -34 6.5 -63t23 -46.5t44.5 -17.5z" />
    <glyph glyph-name="seven" unicode="7" horiz-adv-x="413" 
d="M79 0l161 704h-219v106h355v-85l-163 -725h-134z" />
    <glyph glyph-name="eight" unicode="8" horiz-adv-x="510" 
d="M255 -11q-77 0 -124 31t-67 86.5t-20 128.5q0 35 6.5 64.5t19 53.5t30.5 42.5t41 30.5q-36 25 -60.5 68.5t-25.5 110.5q0 66 21.5 114.5t66.5 74t112 25.5q68 0 112 -26t65.5 -74t20.5 -114q-1 -68 -24.5 -111t-59.5 -68q23 -12 41 -30.5t30.5 -42.5t19 -53.5t6.5 -64.5
q1 -73 -19.5 -128.5t-67 -86.5t-124.5 -31zM255 94q33 0 49.5 20t21.5 50.5t5 62.5q1 34 -5 65.5t-22.5 51.5t-48.5 20q-31 0 -47.5 -20t-23 -51t-6.5 -66q0 -32 5.5 -63t22.5 -50.5t49 -19.5zM255 481q25 1 39.5 17.5t20.5 45.5t6 66q0 46 -15 75t-51 29q-35 0 -51.5 -29
t-16.5 -74q0 -37 6.5 -66.5t21.5 -46t40 -17.5z" />
    <glyph glyph-name="nine" unicode="9" horiz-adv-x="521" 
d="M253 -11q-70 0 -115 24t-66 70t-21 112v5v6h132q0 -54 13.5 -81t57.5 -27q27 0 42 16t22 53t7 97v97q-14 -23 -42 -36t-67 -14q-65 -1 -103.5 30.5t-55 85.5t-16.5 122q0 80 21 140.5t68 95t123 34.5q75 0 122 -33.5t68.5 -92.5t21.5 -135v-287q0 -79 -18.5 -143
t-64 -101.5t-129.5 -37.5zM254 416q28 0 44.5 14t26.5 30v126q0 35 -6 63.5t-21.5 46t-44.5 17.5q-28 0 -43.5 -18t-21.5 -50t-6 -75t3.5 -78t18.5 -55.5t50 -20.5z" />
    <glyph glyph-name="colon" unicode=":" horiz-adv-x="239" 
d="M64 413v134h130v-134h-130zM64 75v134h130v-134h-130z" />
    <glyph glyph-name="semicolon" unicode=";" horiz-adv-x="251" 
d="M84 -83l-14 50q29 3 47 20.5t18 54.5h-71v134h132v-123q0 -63 -26.5 -99t-85.5 -37zM63 434v136h131v-136h-131z" />
    <glyph glyph-name="less" unicode="&#x3c;" horiz-adv-x="386" 
d="M328 69l-298 210v117l298 210v-125l-198 -144l198 -143v-125z" />
    <glyph glyph-name="equal" unicode="=" horiz-adv-x="429" 
d="M59 446v91h312v-91h-312zM59 262v91h312v-91h-312z" />
    <glyph glyph-name="greater" unicode="&#x3e;" horiz-adv-x="386" 
d="M56 69v125l200 144l-200 143v125l299 -210v-117z" />
    <glyph glyph-name="question" unicode="?" horiz-adv-x="485" 
d="M145 208v127q47 39 85.5 82.5t61 92.5t22.5 103q0 42 -19 65.5t-55 23.5q-32 0 -50.5 -18t-18.5 -49q0 -14 3 -26t7 -26l-124 -27q-7 20 -10.5 39.5t-3.5 39.5q0 84 51.5 134t147.5 50q98 0 152 -53t54 -151q0 -64 -22.5 -118t-63.5 -101t-95 -90v-98h-122zM140 0v133
h134v-133h-134z" />
    <glyph glyph-name="at" unicode="@" horiz-adv-x="928" 
d="M471 -130q-100 0 -179.5 29t-134 86t-80 140.5t-19.5 192.5q6 118 41 210t96.5 154.5t145.5 95t187 32.5q98 0 169 -32t115.5 -89t64 -130.5t13.5 -157.5q-2 -56 -18.5 -110t-48 -97t-76.5 -69t-104 -26q-27 0 -51.5 9t-41.5 28t-22 46q-9 -29 -33 -52t-62 -26
q-53 -4 -90 21.5t-55 71t-17 100.5q1 50 16.5 104.5t45 101.5t72.5 76.5t98 29.5q18 0 31.5 -9t23 -20.5t15.5 -19.5l10 42h105l-50 -347q-2 -15 -3.5 -33t2.5 -31.5t18 -15.5q25 -3 49.5 13t44 46.5t32 72t14.5 89.5q4 69 -9.5 128t-46.5 103t-88 68t-133 24
q-82 0 -146 -29.5t-108.5 -82.5t-69 -126t-28.5 -160q-4 -70 6 -127.5t35 -100.5t64 -72.5t92.5 -44.5t120.5 -15q27 0 59 3.5t66.5 10.5t64.5 16l18 -89q-55 -14 -111.5 -23t-109.5 -9zM461 200q14 2 35 16.5t30 48.5l32 234q-3 5 -12.5 7.5t-16.5 2.5q-40 0 -70.5 -30.5
t-48.5 -79t-18 -103.5q0 -27 7 -50t22.5 -36t39.5 -10z" />
    <glyph glyph-name="A" unicode="A" horiz-adv-x="522" 
d="M20 0l162 810h158l162 -810h-137l-32 187h-141l-33 -187h-139zM207 281h110l-55 340z" />
    <glyph glyph-name="B" unicode="B" horiz-adv-x="557" 
d="M61 0v810h199q54 0 97.5 -10t75 -33.5t48.5 -63.5t17 -101q0 -49 -13.5 -84t-39.5 -55.5t-65 -27.5q48 -8 79.5 -33.5t47 -66.5t15.5 -99t-14.5 -102.5t-43 -74t-71 -44.5t-99.5 -15h-233zM209 104h56q67 0 91 32.5t24 100.5q0 49 -11.5 79.5t-38 45.5t-70.5 15h-51v-273
zM209 479h50q44 0 68 13t33.5 40t9.5 68q0 43 -14.5 66.5t-43.5 32t-74 8.5h-29v-228z" />
    <glyph glyph-name="C" unicode="C" horiz-adv-x="540" 
d="M279 -11q-89 0 -139.5 35t-70.5 95.5t-20 139.5v289q0 83 20 144t70.5 94t139.5 33q84 0 131.5 -28.5t67.5 -81.5t20 -123v-68h-142v70q0 34 -3.5 62t-19 44.5t-53.5 16.5t-55.5 -17.5t-22.5 -47t-5 -66.5v-352q0 -44 7 -72.5t25.5 -43t50.5 -14.5q37 0 52.5 17.5
t19.5 46.5t4 65v73h142v-65q0 -72 -19 -127.5t-66.5 -87t-133.5 -31.5z" />
    <glyph glyph-name="D" unicode="D" horiz-adv-x="557" 
d="M61 0v810h191q99 0 154.5 -27t79 -83t23.5 -142v-296q0 -88 -23.5 -146.5t-78 -87t-149.5 -28.5h-197zM209 103h45q51 0 73 18t27 52.5t5 84.5v310q0 49 -7 79t-29 44t-71 14h-43v-602z" />
    <glyph glyph-name="E" unicode="E" horiz-adv-x="428" 
d="M61 0v810h340v-104h-192v-233h151v-103h-151v-268h194v-102h-342z" />
    <glyph glyph-name="F" unicode="F" horiz-adv-x="413" 
d="M61 0v810h333v-102h-185v-236h151v-103h-151v-369h-148z" />
    <glyph glyph-name="G" unicode="G" horiz-adv-x="559" 
d="M264 -11q-80 0 -127 34t-67.5 96.5t-20.5 147.5v272q0 87 20 150t70.5 96.5t139.5 33.5q83 0 132 -28t70.5 -80.5t21.5 -127.5v-42h-141v46q0 39 -5.5 67t-22 42.5t-53.5 14.5q-39 0 -56.5 -19t-22 -50t-4.5 -68v-339q0 -42 7 -73t26 -47.5t54 -16.5q36 0 55 18t26.5 50
t7.5 76v76h-87v93h220v-411h-95l-11 80q-16 -40 -48.5 -65.5t-88.5 -25.5z" />
    <glyph glyph-name="H" unicode="H" horiz-adv-x="586" 
d="M63 0v810h147v-339h165v339h148v-810h-148v366h-165v-366h-147z" />
    <glyph glyph-name="I" unicode="I" horiz-adv-x="275" 
d="M65 0v810h146v-810h-146z" />
    <glyph glyph-name="J" unicode="J" horiz-adv-x="326" 
d="M10 -20v104q32 0 53 4t32.5 14.5t16.5 31t5 52.5v624h147v-630q0 -68 -16 -112.5t-55.5 -66t-111.5 -21.5h-71z" />
    <glyph glyph-name="K" unicode="K" horiz-adv-x="532" 
d="M61 0v810h148v-356l160 356h141l-155 -362l171 -448h-147l-136 369l-34 -62v-307h-148z" />
    <glyph glyph-name="L" unicode="L" horiz-adv-x="421" 
d="M61 0v810h148v-708h196v-102h-344z" />
    <glyph glyph-name="M" unicode="M" horiz-adv-x="683" 
d="M59 0l14 810h153l115 -561l120 561h148l15 -810h-110l-12 563l-115 -563h-89l-117 565l-11 -565h-111z" />
    <glyph glyph-name="N" unicode="N" horiz-adv-x="545" 
d="M61 0v810h103l197 -462v462h122v-810h-98l-198 484v-484h-126z" />
    <glyph glyph-name="O" unicode="O" horiz-adv-x="563" 
d="M281 -11q-86 0 -137 32t-73 92t-22 142v303q0 82 22 140.5t73 89.5t137 31q88 0 138.5 -31t73 -89.5t22.5 -140.5v-304q0 -81 -22.5 -140.5t-73 -92t-138.5 -32.5zM281 98q37 0 54.5 16t23.5 44t6 61v373q0 34 -6 61t-23.5 42.5t-54.5 15.5q-35 0 -53 -15.5t-24 -42.5
t-6 -61v-373q0 -33 5.5 -61t23.5 -44t54 -16z" />
    <glyph glyph-name="P" unicode="P" horiz-adv-x="527" 
d="M61 0v810h238q73 0 118.5 -27t67 -78.5t21.5 -124.5q0 -79 -27 -127.5t-75.5 -70.5t-114.5 -22h-80v-360h-148zM209 464h56q40 0 62.5 11.5t31 37t8.5 68.5q0 44 -6.5 71.5t-28 40.5t-67.5 13h-56v-242z" />
    <glyph glyph-name="Q" unicode="Q" horiz-adv-x="564" 
d="M456 -161q-25 12 -53.5 36t-56 54.5t-47.5 60.5q-4 -1 -8.5 -1h-9.5q-86 0 -137 32t-73 92t-22 142v303q0 82 22 140.5t73 89.5t137 31q88 0 139 -31t73 -89.5t22 -140.5v-304q0 -58 -11 -105t-36 -81.5t-66 -53.5q13 -14 27 -29t28 -28t27 -21zM281 98q37 0 55 16t24 44
t6 61v373q0 34 -6 61t-24 42.5t-55 15.5q-36 0 -54 -15.5t-23.5 -42.5t-5.5 -61v-373q0 -33 5.5 -61t23.5 -44t54 -16z" />
    <glyph glyph-name="R" unicode="R" horiz-adv-x="561" 
d="M61 0v810h194q82 0 138.5 -19.5t86 -66.5t29.5 -128q0 -49 -9 -88t-30.5 -66.5t-59.5 -42.5l113 -399h-148l-98 371h-68v-371h-148zM209 464h46q43 0 68.5 12.5t36.5 40t11 70.5q0 61 -22.5 91.5t-85.5 30.5h-54v-245z" />
    <glyph glyph-name="S" unicode="S" horiz-adv-x="494" 
d="M265 -11q-73 0 -122 28.5t-74 83.5t-28 135l127 25q2 -47 11.5 -83t29 -55.5t51.5 -19.5q36 0 51 21.5t15 54.5q0 53 -24 87t-64 68l-102 90q-43 37 -68.5 82.5t-25.5 112.5q0 96 56 148t153 52q57 0 95 -17.5t60.5 -48.5t33.5 -70.5t14 -83.5l-126 -22q-2 38 -8.5 68
t-23 47t-48.5 17q-33 0 -50.5 -21.5t-17.5 -53.5q0 -41 17 -67.5t49 -54.5l101 -89q50 -42 85.5 -98.5t35.5 -136.5q0 -58 -25.5 -103t-71 -70.5t-106.5 -25.5z" />
    <glyph glyph-name="T" unicode="T" horiz-adv-x="430" 
d="M142 0v701h-129v109h404v-109h-127v-701h-148z" />
    <glyph glyph-name="U" unicode="U" horiz-adv-x="566" 
d="M283 -11q-90 0 -140 33t-69 94t-19 146v548h144v-565q0 -38 5 -71.5t23.5 -54t55.5 -20.5q39 0 56.5 20.5t23 54t5.5 71.5v565h143v-548q0 -85 -19 -146t-68.5 -94t-140.5 -33z" />
    <glyph glyph-name="V" unicode="V" horiz-adv-x="516" 
d="M185 0l-163 810h131l107 -573l100 573h134l-163 -810h-146z" />
    <glyph glyph-name="W" unicode="W" horiz-adv-x="712" 
d="M146 0l-115 810h124l67 -525l84 523h101l86 -523l66 525h122l-113 -810h-120l-90 543l-89 -543h-123z" />
    <glyph glyph-name="X" unicode="X" horiz-adv-x="499" 
d="M10 0l163 430l-158 380h138l105 -251l92 251h128l-156 -408l168 -402h-138l-115 272l-100 -272h-127z" />
    <glyph glyph-name="Y" unicode="Y" horiz-adv-x="487" 
d="M174 0v309l-164 501h138l100 -321l94 321h135l-162 -501v-309h-141z" />
    <glyph glyph-name="Z" unicode="Z" horiz-adv-x="425" 
d="M33 0v95l218 613h-206v102h355v-76l-226 -632h227v-102h-368z" />
    <glyph glyph-name="bracketleft" unicode="[" horiz-adv-x="336" 
d="M57 -185v995h236v-59h-118v-876h118v-60h-236z" />
    <glyph glyph-name="backslash" unicode="\" horiz-adv-x="396" 
d="M270 0l-234 810h90l234 -810h-90z" />
    <glyph glyph-name="bracketright" unicode="]" horiz-adv-x="317" 
d="M24 -185v60h118v875h-119v60h237v-995h-236z" />
    <glyph glyph-name="asciicircum" unicode="^" horiz-adv-x="460" 
d="M32 481l139 329h118l140 -329h-121l-78 218l-78 -218h-120z" />
    <glyph glyph-name="underscore" unicode="_" horiz-adv-x="356" 
d="M0 -151v95h356v-95h-356z" />
    <glyph glyph-name="grave" unicode="`" horiz-adv-x="293" 
d="M166 610l-117 200h137l59 -200h-79z" />
    <glyph glyph-name="a" unicode="a" horiz-adv-x="452" 
d="M164 -9q-39 0 -67 20.5t-43 52t-15 65.5q0 54 20 91t53 62t75 43.5t85 33.5v50q0 25 -3.5 42t-13 26t-29.5 9q-17 0 -27.5 -8t-15 -22.5t-5.5 -33.5l-2 -35l-129 5q3 100 49.5 147.5t141.5 47.5q87 0 126.5 -48t39.5 -130v-267q0 -32 1.5 -58t4 -47t4.5 -37h-122
q-3 20 -7.5 45.5t-6.5 37.5q-10 -35 -38 -63.5t-76 -28.5zM214 92q13 0 24.5 6.5t20.5 15.5t13 16v161q-22 -13 -41.5 -26t-34 -28.5t-22 -33.5t-7.5 -42q0 -32 12.5 -50.5t34.5 -18.5z" />
    <glyph glyph-name="b" unicode="b" horiz-adv-x="477" 
d="M301 -9q-32 0 -60 15t-52 37v-43h-136v810h136v-276q25 24 54.5 38.5t63.5 14.5q39 0 64 -18t39 -47.5t19.5 -63t5.5 -64.5v-196q0 -57 -13.5 -104t-43 -75t-77.5 -28zM249 86q22 0 32.5 14.5t14 39t3.5 53.5v207q0 27 -4 48.5t-14.5 34.5t-32.5 13q-16 0 -31 -7.5
t-28 -16.5v-365q13 -9 28.5 -15t31.5 -6z" />
    <glyph glyph-name="c" unicode="c" horiz-adv-x="440" 
d="M226 -9q-67 0 -107.5 25.5t-59 73t-18.5 112.5v174q0 67 18.5 114t59.5 72t107 25q62 0 101.5 -19.5t57.5 -59t18 -99.5v-48h-128v51q0 30 -4.5 47.5t-15.5 25t-29 7.5t-29 -9.5t-15.5 -30.5t-4.5 -58v-212q0 -56 12 -75.5t38 -19.5q20 0 30.5 9t14 26.5t3.5 42.5v62h128
v-55q0 -58 -18.5 -99t-58 -61.5t-100.5 -20.5z" />
    <glyph glyph-name="d" unicode="d" horiz-adv-x="473" 
d="M182 -9q-69 0 -104.5 49t-35.5 157v177q0 60 13.5 108t43.5 76.5t81 28.5q31 0 57.5 -12.5t48.5 -32.5v268h136v-810h-136v41q-23 -23 -49 -36.5t-55 -13.5zM232 85q11 0 25 5t29 14v371q-12 8 -26 13.5t-29 5.5q-29 0 -40.5 -26.5t-11.5 -64.5v-216q0 -29 4 -52
t15.5 -36.5t33.5 -13.5z" />
    <glyph glyph-name="e" unicode="e" horiz-adv-x="446" 
d="M227 -9q-65 0 -106 24.5t-60.5 72t-19.5 114.5v174q0 69 19.5 116t61 71t105.5 24q69 0 107.5 -26t55 -75.5t16.5 -120.5v-82h-230v-114q0 -28 5.5 -46t17.5 -26t29 -8q18 0 29 8.5t16 25t5 41.5v48h127v-39q0 -88 -44 -135t-134 -47zM176 350h102v55q0 30 -5 48.5
t-16 27t-31 8.5q-18 0 -29 -9t-16 -30t-5 -60v-40z" />
    <glyph glyph-name="f" unicode="f" horiz-adv-x="304" 
d="M80 0v483h-62v95h62v37q0 52 9.5 90.5t40 59.5t92.5 21q19 0 36 -1.5t38 -4.5v-101q-8 2 -18.5 3.5t-19.5 1.5q-24 0 -33 -15t-9 -44v-47h80v-95h-80v-483h-136z" />
    <glyph glyph-name="g" unicode="g" horiz-adv-x="469" 
d="M222 -190q-59 0 -104 12t-70 37t-25 65q0 27 11.5 48.5t31.5 37.5t43 27q-33 9 -50.5 29t-17.5 48q0 34 17 58t47 51q-31 25 -46.5 62.5t-15.5 98.5q0 66 21.5 111.5t63 68.5t101.5 23q46 0 77 -13.5t51 -40.5q8 12 28 30t46 30l18 8l33 -73q-11 -3 -29.5 -10t-36.5 -15
t-28 -14q9 -20 15 -50t6 -57q0 -61 -19 -106t-58.5 -69.5t-102.5 -24.5q-21 0 -41 3.5t-37 8.5q-6 -9 -11.5 -19t-5.5 -21t12 -18t40 -10l122 -12q71 -7 105 -44.5t34 -101.5q0 -52 -23.5 -87t-73 -53t-128.5 -18zM237 -88q56 0 84 11t28 40q0 16 -7 26t-25 16.5t-51 9.5
l-99 9q-11 -9 -19.5 -18.5t-13.5 -20.5t-5 -23q0 -25 24 -37.5t84 -12.5zM229 269q18 0 29 6.5t17 21t8 36.5t2 51t-2 51t-7.5 37t-16.5 22t-30 7q-18 0 -29.5 -7t-17 -21.5t-8 -36.5t-2.5 -52q0 -28 2 -49.5t8 -36t17.5 -22t29.5 -7.5z" />
    <glyph glyph-name="h" unicode="h" horiz-adv-x="478" 
d="M54 0v810h136v-287q30 30 65.5 47t77.5 17q35 0 56 -17.5t31 -46.5t10 -63v-460h-136v433q0 26 -8 40t-31 14q-14 0 -31.5 -8t-33.5 -21v-458h-136z" />
    <glyph glyph-name="i" unicode="i" horiz-adv-x="248" 
d="M56 0v578h136v-578h-136zM56 670v113h136v-113h-136z" />
    <glyph glyph-name="j" unicode="j" horiz-adv-x="254" 
d="M58 -164q-18 0 -37 3t-35 8v97q6 -1 14.5 -2t14.5 -1q18 0 29 7t16.5 20t5.5 32v578h136v-594q0 -68 -37.5 -108t-106.5 -40zM66 670v113h137v-113h-137z" />
    <glyph glyph-name="k" unicode="k" horiz-adv-x="487" 
d="M53 0v810h136v-465l149 233h148l-145 -232l142 -346h-143l-105 285l-46 -64v-221h-136z" />
    <glyph glyph-name="l" unicode="l" horiz-adv-x="252" 
d="M61 0v810h135v-810h-135z" />
    <glyph glyph-name="m" unicode="m" horiz-adv-x="718" 
d="M52 0v578h131v-50q30 32 65 46.5t71 14.5q34 0 59.5 -17t37.5 -54q33 38 70 54.5t76 16.5q31 0 55 -15.5t38 -46t14 -76.5v-451h-130v439q0 33 -11 45.5t-31 12.5q-16 0 -35.5 -9t-35.5 -25v-5.5v-6.5v-451h-129v439q0 33 -11.5 45.5t-31.5 12.5q-16 0 -35 -9t-36 -25
v-463h-131z" />
    <glyph glyph-name="n" unicode="n" horiz-adv-x="474" 
d="M52 0v578h136v-58q31 30 65.5 48.5t74.5 18.5q36 0 57 -17.5t31 -46.5t10 -63v-460h-136v433q0 26 -8 40t-31 14q-14 0 -30.5 -8t-32.5 -20v-459h-136z" />
    <glyph glyph-name="o" unicode="o" horiz-adv-x="455" 
d="M227 -9q-63 0 -104 23.5t-61.5 68.5t-20.5 109v194q0 64 20.5 109t61.5 68.5t104 23.5t104.5 -23.5t62 -68.5t20.5 -109v-194q0 -64 -20.5 -109t-62 -68.5t-104.5 -23.5zM228 85q23 0 34 13t14 35.5t3 49.5v212q0 27 -3 49t-14 35.5t-34 13.5t-34 -13.5t-14.5 -35.5
t-3.5 -49v-212q0 -27 3.5 -49.5t14.5 -35.5t34 -13z" />
    <glyph glyph-name="p" unicode="p" horiz-adv-x="476" 
d="M52 -190v768h136v-44q25 24 55 38.5t63 14.5q39 0 64 -18t39 -47.5t19.5 -63t5.5 -64.5v-196q0 -57 -13.5 -104t-43 -75t-78.5 -28q-31 0 -58.5 15t-52.5 38v-234h-136zM248 86q22 0 32.5 14.5t14 39t3.5 53.5v207q0 27 -4 48.5t-15 34.5t-32 13q-16 0 -31.5 -7.5
t-27.5 -17.5v-365q13 -9 28 -14.5t32 -5.5z" />
    <glyph glyph-name="q" unicode="q" horiz-adv-x="474" 
d="M287 -190v233q-23 -24 -49 -38t-56 -14q-69 0 -104 49t-35 157v177q0 60 13 108t43.5 76.5t81.5 28.5q31 0 57.5 -13t48.5 -34v38h136v-768h-136zM233 85q11 0 25.5 5t28.5 14v370q-12 9 -26 14.5t-29 5.5q-30 0 -41.5 -26.5t-11.5 -64.5v-216q0 -29 4.5 -52t16 -36.5
t33.5 -13.5z" />
    <glyph glyph-name="r" unicode="r" horiz-adv-x="353" 
d="M55 0v578h136v-89q30 51 60 73.5t66 22.5q6 0 10.5 -0.5t10.5 -1.5v-141q-12 5 -26.5 8.5t-29.5 3.5q-27 0 -49 -13t-42 -43v-398h-136z" />
    <glyph glyph-name="s" unicode="s" horiz-adv-x="400" 
d="M209 -9q-73 0 -120 39t-67 114l101 39q12 -47 32 -72t52 -25q24 0 36 12t12 33q0 24 -14.5 43.5t-49.5 48.5l-70 59q-38 33 -61.5 67.5t-23.5 86.5q0 47 21.5 80.5t59 52t83.5 18.5q70 0 112.5 -41.5t54.5 -108.5l-89 -38q-5 24 -14.5 44.5t-24.5 33.5t-35 13
q-21 0 -33.5 -13t-12.5 -33q0 -17 14.5 -35t41.5 -41l71 -64q23 -20 44 -43t35 -51.5t14 -65.5q0 -50 -22.5 -84t-61 -51.5t-85.5 -17.5z" />
    <glyph glyph-name="t" unicode="t" horiz-adv-x="332" 
d="M219 -7q-55 0 -86.5 18t-44.5 52t-13 81v344h-58v90h58v173h137v-173h88v-90h-88v-332q0 -30 13 -42.5t39 -12.5q11 0 21.5 1t20.5 2v-104q-17 -2 -39.5 -4.5t-47.5 -2.5z" />
    <glyph glyph-name="u" unicode="u" horiz-adv-x="473" 
d="M145 -9q-34 0 -56 17.5t-32 47t-10 62.5v460h136v-435q0 -26 8.5 -40.5t31.5 -14.5q15 0 30.5 8t30.5 19v463h136v-578h-136v55q-29 -28 -64 -46t-75 -18z" />
    <glyph glyph-name="v" unicode="v" horiz-adv-x="404" 
d="M127 0l-115 578h133l59 -415l58 415h131l-115 -578h-151z" />
    <glyph glyph-name="w" unicode="w" horiz-adv-x="593" 
d="M113 0l-89 578h113l51 -375l60 375h101l57 -379l55 379h107l-91 -578h-115l-64 365l-67 -365h-118z" />
    <glyph glyph-name="x" unicode="x" horiz-adv-x="416" 
d="M10 0l126 311l-121 267h134l73 -160l64 160h116l-123 -286l132 -292h-135l-80 177l-67 -177h-119z" />
    <glyph glyph-name="y" unicode="y" horiz-adv-x="421" 
d="M56 -157v98q35 0 57 4t32 14t10 28q0 13 -6.5 41t-14.5 61l-127 489h132l75 -381l65 381h131l-135 -601q-11 -51 -37 -80t-65 -41.5t-91 -12.5h-26z" />
    <glyph glyph-name="z" unicode="z" horiz-adv-x="370" 
d="M34 0v89l167 389h-153v100h297v-79l-170 -398h169v-101h-310z" />
    <glyph glyph-name="braceleft" unicode="{" horiz-adv-x="338" 
d="M311 -192q-71 0 -112.5 9t-61.5 32t-25.5 63.5t-5.5 103.5v109q0 64 -4 94t-17 39t-41 9v96q28 0 41 9.5t17 40t4 92.5v109q0 64 5.5 104.5t25.5 63.5t61.5 32t112.5 9v-95q-25 0 -40.5 -4t-22.5 -15.5t-9 -35.5t-2 -63v-122q0 -80 -17.5 -121.5t-58.5 -51.5
q41 -10 58.5 -51t17.5 -121v-123q0 -40 2 -63.5t9 -35t22.5 -15.5t40.5 -4v-94z" />
    <glyph glyph-name="bar" unicode="|" horiz-adv-x="251" 
d="M66 -165l1 975h117v-975h-118z" />
    <glyph glyph-name="braceright" unicode="}" horiz-adv-x="351" 
d="M40 -192v94q26 0 41 4t22 15.5t9 35t2 63.5v123q0 80 18 121t59 51q-41 10 -59 51.5t-18 121.5v122q0 39 -2 63t-9 35.5t-22 15.5t-41 4v95q72 0 113 -9t61.5 -32t26 -63.5t5.5 -104.5v-109q0 -62 4 -92.5t17 -40t40 -9.5v-96q-27 0 -40 -9t-17 -39t-4 -94v-109
q0 -63 -5.5 -103.5t-26 -63.5t-61.5 -32t-113 -9z" />
    <glyph glyph-name="asciitilde" unicode="~" horiz-adv-x="465" 
d="M312 348q-27 0 -56 14.5t-55.5 28.5t-47.5 14q-12 0 -32 -11.5t-38 -31.5l-45 60q13 18 33.5 37t43 32.5t41.5 13.5q27 0 55.5 -14t55 -28.5t46.5 -14.5q14 0 33 13t37 31l48 -54q-12 -20 -32.5 -41t-43 -35t-43.5 -14z" />
    <glyph glyph-name="uni00A0" unicode="&#xa0;" horiz-adv-x="243" 
 />
    <glyph glyph-name="exclamdown" unicode="&#xa1;" horiz-adv-x="223" 
d="M43 -167l48 619h47l41 -619h-136zM49 511v131h132v-131h-132z" />
    <glyph glyph-name="cent" unicode="&#xa2;" horiz-adv-x="424" 
d="M196 -106v98q-56 6 -90.5 33t-50 72t-15.5 105v174q0 62 16 107t50.5 71.5t89.5 31.5v97h38v-96q60 -1 97 -21.5t54.5 -59.5t17.5 -97v-48h-129v49q0 31 -4.5 48t-15 24t-28.5 7q-19 0 -30 -8.5t-15.5 -30t-4.5 -59.5v-207q0 -57 12 -76t38 -19q20 0 30 9t14 26.5t4 42.5
v60h129v-55q0 -57 -17.5 -97t-55 -61t-96.5 -23v-97h-38z" />
    <glyph glyph-name="sterling" unicode="&#xa3;" horiz-adv-x="445" 
d="M12 0v74l59 27v236h-59v104h59v92q0 59 5.5 110.5t24 91t55 62t98.5 22.5q65 0 100 -25.5t49.5 -69.5t14.5 -102v-16.5v-12.5h-113q0 30 -3 56t-13.5 41.5t-33.5 15.5q-24 0 -34.5 -18t-13.5 -47.5t-3 -65.5v-134h119v-104h-119v-227h210v-110h-402z" />
    <glyph glyph-name="currency" unicode="&#xa4;" horiz-adv-x="553" 
d="M54 186l-15 15l80 79q-25 28 -40 65t-15 78t15 78t40 65l-80 79l15 15l79 -79q28 26 64.5 41t78.5 15t78.5 -15t64.5 -41l79 79l15 -15l-79 -79q25 -28 39 -65t14 -78t-14 -78t-40 -65l80 -79l-15 -15l-79 79q-28 -26 -64.5 -41.5t-78.5 -14.5q-42 -1 -78.5 14.5
t-64.5 41.5zM276 253q47 0 84 23t59 61.5t22 85.5t-21.5 85.5t-59 61.5t-84.5 23q-46 0 -83 -23t-59 -61.5t-22 -85.5t22 -85.5t59 -61.5t83 -23z" />
    <glyph glyph-name="yen" unicode="&#xa5;" horiz-adv-x="466" 
d="M170 0v118h-87v75h87v65h-87v76h70l-148 476h138l100 -350l94 350h136l-147 -476h70v-76h-86v-65h86v-75h-86v-118h-140z" />
    <glyph glyph-name="brokenbar" unicode="&#xa6;" horiz-adv-x="215" 
d="M57 401v409h100v-409h-100zM57 -167v408h100v-408h-100z" />
    <glyph glyph-name="section" unicode="&#xa7;" horiz-adv-x="451" 
d="M224 -7q-52 0 -87.5 21.5t-57.5 57.5t-33 80l95 27q6 -18 17 -38t28 -33.5t39 -13.5q28 0 44.5 13.5t18.5 38.5q1 17 -5 31t-19.5 28t-36.5 29l-101 65q-34 22 -58 52t-23 79q2 47 27 78t59 44q-30 19 -57.5 52t-29.5 75q-1 48 22.5 81t65 50.5t92.5 17.5
q52 0 88.5 -21.5t59.5 -57.5t33 -80l-94 -26q-7 19 -17 39t-26.5 33t-41.5 13q-25 -1 -40.5 -14t-15.5 -39q0 -16 8 -28.5t20 -22t22 -16.5l101 -64q37 -23 60 -58t22 -81q0 -43 -22 -72t-55 -49q34 -28 55.5 -59t21.5 -75q0 -73 -48 -115t-131 -42zM249 344q15 8 29.5 21.5
t14.5 34.5q0 13 -7.5 29t-26.5 28l-52 34q-18 -7 -32 -23t-14 -38q0 -13 7 -25.5t18 -19.5z" />
    <glyph glyph-name="dieresis" unicode="&#xa8;" horiz-adv-x="413" 
d="M243 680v130h120v-130h-120zM49 680v130h119v-130h-119z" />
    <glyph glyph-name="copyright" unicode="&#xa9;" horiz-adv-x="873" 
d="M437 -12q-107 0 -183 36.5t-124 97.5t-71 136t-23 151t23 150.5t71 135.5t124 97.5t183 36.5q106 0 182 -36.5t124 -97.5t71 -135.5t23 -150.5t-22.5 -151t-70.5 -136t-124 -97.5t-183 -36.5zM437 123q-55 0 -94 15t-62.5 43t-34.5 67.5t-11 88.5v153q0 67 20 114.5
t64.5 73t117.5 25.5q68 0 110.5 -20t63 -59.5t20.5 -98.5v-43h-139v43q0 31 -5.5 49t-17.5 25t-31 7q-22 0 -34.5 -9t-17.5 -31.5t-5 -60.5v-187q0 -39 6 -60t18.5 -29t32.5 -8q22 0 33.5 9.5t16 27t4.5 43.5v49h139v-44q0 -59 -20.5 -100t-63.5 -62t-110 -21zM439 30
q92 0 158.5 32t109.5 86t64 121.5t21 139.5t-21 139t-64 121t-109.5 85.5t-158.5 31.5t-159 -31.5t-110 -85.5t-63.5 -121t-20.5 -139t20.5 -139.5t63.5 -121.5t110 -86t159 -32z" />
    <glyph glyph-name="ordfeminine" unicode="&#xaa;" horiz-adv-x="464" 
d="M174 317q-50 0 -79 32.5t-29 83.5q0 41 18 70t48.5 48.5t68 34t76.5 26.5v54q0 26 -7 45t-29 19q-16 0 -25 -9.5t-13 -27t-6 -43.5l-115 2q2 82 45.5 125.5t120.5 43.5q55 0 88 -21t47 -60.5t14 -92.5v-323h-107l-5 66q-14 -30 -41.5 -51.5t-69.5 -21.5zM224 406
q17 0 31 10.5t22 25.5v121q-26 -12 -47 -28.5t-34 -36t-13 -42.5q0 -24 12 -37t29 -13z" />
    <glyph glyph-name="guillemotleft" unicode="&#xab;" horiz-adv-x="472" 
d="M420 39l-181 231v54l181 231v-145l-92 -113l92 -113v-145zM215 39l-181 231v54l181 231v-145l-93 -113l93 -113v-145z" />
    <glyph glyph-name="logicalnot" unicode="&#xac;" horiz-adv-x="445" 
d="M339 230v135h-296v96h364v-231h-68z" />
    <glyph glyph-name="uni00AD" unicode="&#xad;" horiz-adv-x="358" 
d="M62 360v93h240v-93h-240z" />
    <glyph glyph-name="registered" unicode="&#xae;" horiz-adv-x="889" 
d="M445 -14q-106 0 -181.5 36.5t-123.5 97.5t-70.5 135.5t-22.5 148.5q0 76 22.5 150t70.5 134.5t123.5 97t181.5 36.5t181.5 -36.5t123.5 -97t70.5 -134.5t22.5 -150q0 -75 -22.5 -149t-70 -135t-123 -97.5t-182.5 -36.5zM445 38q88 0 152 31t105 83.5t61 118t20 133.5
q0 69 -20 134.5t-61 117.5t-105 82.5t-152 30.5q-89 0 -153 -30.5t-105.5 -82.5t-61.5 -117.5t-20 -133.5q0 -69 20 -134t61.5 -118t105.5 -84t153 -31zM284 149v518h161q59 0 98 -15.5t59 -47t20 -83.5q0 -48 -19 -78t-60 -49l92 -245h-118l-76 223h-44v-223h-113zM397 430
h27q52 0 70 21.5t18 65.5q0 38 -16 59t-55 21h-44v-167z" />
    <glyph glyph-name="macron" unicode="&#xaf;" horiz-adv-x="327" 
d="M52 739v71h224v-71h-224z" />
    <glyph glyph-name="degree" unicode="&#xb0;" horiz-adv-x="498" 
d="M248 452q-55 0 -97 22.5t-64.5 64t-22.5 97.5q0 57 22.5 97.5t64.5 63t97 22.5q57 0 98.5 -22.5t65 -63t23.5 -97.5t-23.5 -98t-65 -63.5t-98.5 -22.5zM248 532q45 0 69 29t24 75t-24 74.5t-69 28.5q-43 0 -67.5 -28t-24.5 -75q0 -46 24.5 -75t67.5 -29z" />
    <glyph glyph-name="plusminus" unicode="&#xb1;" horiz-adv-x="427" 
d="M168 180v109h-107v90h107v108h93v-108h106v-90h-106v-109h-93zM61 0v91h306v-91h-306z" />
    <glyph glyph-name="uni00B2" unicode="&#xb2;" horiz-adv-x="449" 
d="M79 433v71l119 125q30 31 48 53t25.5 39.5t7.5 35.5q0 27 -11.5 40.5t-35.5 13.5q-31 0 -43 -23t-12 -66h-99v15q0 45 15.5 81.5t50 58t90.5 21.5q68 0 107 -37t39 -102q0 -51 -23.5 -88t-68.5 -83l-70 -71h167v-84h-306z" />
    <glyph glyph-name="uni00B3" unicode="&#xb3;" horiz-adv-x="451" 
d="M229 423q-55 0 -88 17.5t-47.5 48t-14.5 70.5v16h99v-4q0 -31 12.5 -46t40.5 -15q24 0 36 14.5t12 41.5q0 30 -13 45.5t-46 15.5h-26v70h23q30 0 43.5 14.5t13.5 44.5q0 25 -11 40t-35 15q-27 0 -38.5 -16.5t-11.5 -44.5v-4h-99v16q0 67 40 101.5t110 34.5
q67 0 106.5 -31t39.5 -92q0 -43 -19.5 -70.5t-46.5 -37.5q28 -9 49 -33t21 -77q0 -65 -40.5 -99.5t-109.5 -34.5z" />
    <glyph glyph-name="acute" unicode="&#xb4;" horiz-adv-x="292" 
d="M55 610l60 200h138l-119 -200h-79z" />
    <glyph glyph-name="uni00B5" unicode="&#xb5;" horiz-adv-x="467" 
d="M46 -181l-1 759h136v-433q0 -26 8 -40t31 -14q14 0 29.5 7.5t31.5 19.5v460h135v-578h-135v51q-16 -16 -34.5 -29t-37.5 -19q-7 -2 -14 -3.5t-12 -1.5v-179h-137z" />
    <glyph glyph-name="paragraph" unicode="&#xb6;" horiz-adv-x="507" 
d="M193 -96v598q-70 1 -114.5 40.5t-44.5 113.5q0 56 24.5 90t67.5 49t97 15h218v-906h-83v833h-79v-833h-86z" />
    <glyph glyph-name="periodcentered" unicode="&#xb7;" horiz-adv-x="202" 
d="M37 311v131h131v-131h-131z" />
    <glyph glyph-name="cedilla" unicode="&#xb8;" horiz-adv-x="353" 
d="M144 -257q-18 0 -36.5 3t-35.5 8v63q12 -4 26 -6t28 -2q26 0 44 8.5t18 28.5q0 19 -12.5 29.5t-32.5 16.5t-44 8v100h57v-61q56 0 90 -24.5t34 -70.5q0 -36 -18.5 -58t-49.5 -32.5t-68 -10.5z" />
    <glyph glyph-name="uni00B9" unicode="&#xb9;" horiz-adv-x="359" 
d="M164 433v337l-92 -36v88l131 66h62v-455h-101z" />
    <glyph glyph-name="ordmasculine" unicode="&#xba;" horiz-adv-x="464" 
d="M232 316q-56 0 -92 20t-54 58.5t-18 92.5v164q0 82 40.5 126.5t123.5 44.5q80 0 122 -45.5t42 -125.5v-164q0 -53 -19 -91t-55.5 -59t-89.5 -21zM231 405q23 0 33 11.5t13.5 31.5t3.5 45v152q0 26 -3.5 45.5t-13.5 31t-33 11.5q-22 0 -33 -11.5t-15 -31.5t-4 -45v-152
q0 -24 4 -44t15 -32t33 -12z" />
    <glyph glyph-name="guillemotright" unicode="&#xbb;" horiz-adv-x="488" 
d="M51 39v145l98 114l-98 112v145l186 -231v-54zM257 39v145l97 114l-97 112v145l186 -231v-54z" />
    <glyph glyph-name="onequarter" unicode="&#xbc;" horiz-adv-x="897" 
d="M154 355v337l-92 -36v88l131 66h62v-455h-101zM192 0l379 810h94l-379 -810h-94zM651 0v104h-174v67l193 284h82v-282h44v-69h-44v-104h-101zM558 173h93l-1 139z" />
    <glyph glyph-name="onehalf" unicode="&#xbd;" horiz-adv-x="919" 
d="M133 355v337l-92 -36v88l131 66h62v-455h-101zM171 0l379 810h94l-379 -810h-94zM540 0v71l119 125q30 31 48 53t25.5 39.5t7.5 35.5q0 27 -11.5 40.5t-35.5 13.5q-31 0 -43 -23t-12 -66h-99v15q0 45 15.5 81.5t50 58t90.5 21.5q68 0 107 -37t39 -102q0 -51 -23.5 -88
t-68.5 -83l-70 -71h167v-84h-306z" />
    <glyph glyph-name="threequarters" unicode="&#xbe;" horiz-adv-x="899" 
d="M209 344q-55 0 -88 17.5t-47.5 48t-14.5 70.5v16h99v-4q0 -31 12.5 -46t40.5 -15q24 0 36 14.5t12 41.5q0 30 -13 45.5t-46 15.5h-26v70h23q30 0 43.5 14.5t13.5 44.5q0 25 -11 40t-35 15q-27 0 -38.5 -16.5t-11.5 -44.5v-4h-99v16q0 67 40 101.5t110 34.5
q67 0 106.5 -31t39.5 -92q0 -43 -19.5 -70.5t-46.5 -37.5q28 -9 49 -33t21 -77q0 -65 -40.5 -99.5t-109.5 -34.5zM254 0l379 810h94l-379 -810h-94zM714 0v104h-174v67l193 284h82v-282h44v-69h-44v-104h-101zM621 173h93l-1 139z" />
    <glyph glyph-name="questiondown" unicode="&#xbf;" horiz-adv-x="485" 
d="M345 427v-127q-47 -39 -85.5 -82.5t-61 -92.5t-22.5 -103q0 -42 19 -65.5t55 -23.5q32 0 50.5 18t18.5 49q0 14 -3 26t-7 26l124 27q7 -20 10.5 -39.5t3.5 -39.5q0 -84 -51.5 -134t-147.5 -50q-98 0 -152 53t-54 151q0 64 22.5 118t63.5 101t95 90v98h122zM350 635v-133
h-134v133h134z" />
    <glyph glyph-name="Agrave" unicode="&#xc0;" horiz-adv-x="522" 
d="M20 0l162 810h158l162 -810h-137l-32 187h-141l-33 -187h-139zM207 281h110l-55 340zM224 866l-119 200h138l59 -200h-78z" />
    <glyph glyph-name="Aacute" unicode="&#xc1;" horiz-adv-x="522" 
d="M20 0l162 810h158l162 -810h-137l-32 187h-141l-33 -187h-139zM207 281h110l-55 340zM220 866l61 200h137l-119 -200h-79z" />
    <glyph glyph-name="Acircumflex" unicode="&#xc2;" horiz-adv-x="522" 
d="M20 0l162 810h158l162 -810h-137l-32 187h-141l-33 -187h-139zM207 281h110l-55 340zM109 874l90 184h122l92 -184h-101l-52 120l-51 -120h-100z" />
    <glyph glyph-name="Atilde" unicode="&#xc3;" horiz-adv-x="522" 
d="M20 0l162 810h158l162 -810h-137l-32 187h-141l-33 -187h-139zM207 281h110l-55 340zM340 915q-27 0 -48 12.5t-40 24t-40 11.5q-20 0 -27.5 -10.5t-7.5 -30.5h-70q0 36 7.5 64.5t26.5 45t51 16.5q25 0 45 -11.5t39.5 -23t40.5 -11.5q17 0 24.5 10t7.5 30h66
q0 -31 -5 -60t-21.5 -48t-48.5 -19z" />
    <glyph glyph-name="Adieresis" unicode="&#xc4;" horiz-adv-x="522" 
d="M20 0l162 810h158l162 -810h-137l-32 187h-141l-33 -187h-139zM207 281h110l-55 340zM299 912v130h120v-130h-120zM103 912v130h120v-130h-120z" />
    <glyph glyph-name="Aring" unicode="&#xc5;" horiz-adv-x="522" 
d="M20 0l162 810h158l162 -810h-137l-32 187h-141l-33 -187h-139zM207 281h110l-55 340zM260 841q-48 0 -81 29t-33 82t33 81.5t81 28.5q49 0 82.5 -29t33.5 -81q0 -53 -33.5 -82t-82.5 -29zM260 897q26 0 40 15.5t14 39.5q0 25 -14 40t-40 15q-25 0 -39 -15t-14 -40
q0 -24 14 -39.5t39 -15.5z" />
    <glyph glyph-name="AE" unicode="&#xc6;" horiz-adv-x="673" 
d="M-31 0l347 804h332v-103h-187v-230h133v-104h-133v-265h187v-102h-318v186h-140l-77 -186h-144zM224 283h106v285z" />
    <glyph glyph-name="Ccedilla" unicode="&#xc7;" horiz-adv-x="540" 
d="M279 -11q-89 0 -139.5 35t-70.5 95.5t-20 139.5v289q0 83 20 144t70.5 94t139.5 33q84 0 131.5 -28.5t67.5 -81.5t20 -123v-68h-142v70q0 34 -3.5 62t-19 44.5t-53.5 16.5t-55.5 -17.5t-22.5 -47t-5 -66.5v-352q0 -44 7 -72.5t25.5 -43t50.5 -14.5q37 0 52.5 17.5
t19.5 46.5t4 65v73h142v-65q0 -72 -19 -127.5t-66.5 -87t-133.5 -31.5zM287 -257q-18 0 -36.5 3t-35.5 8v63q12 -4 26 -6t28 -2q26 0 44 8.5t18 28.5q0 19 -12.5 29.5t-32.5 16.5t-44 8v100h57v-61q56 0 90 -24.5t34 -70.5q0 -36 -18.5 -58t-49.5 -32.5t-68 -10.5z" />
    <glyph glyph-name="Egrave" unicode="&#xc8;" horiz-adv-x="428" 
d="M61 0v810h340v-104h-192v-233h151v-103h-151v-268h194v-102h-342zM197 866l-119 200h138l59 -200h-78z" />
    <glyph glyph-name="Eacute" unicode="&#xc9;" horiz-adv-x="428" 
d="M61 0v810h340v-104h-192v-233h151v-103h-151v-268h194v-102h-342zM193 866l61 200h137l-119 -200h-79z" />
    <glyph glyph-name="Ecircumflex" unicode="&#xca;" horiz-adv-x="428" 
d="M61 0v810h340v-104h-192v-233h151v-103h-151v-268h194v-102h-342zM82 874l90 184h122l92 -184h-101l-52 120l-51 -120h-100z" />
    <glyph glyph-name="Edieresis" unicode="&#xcb;" horiz-adv-x="428" 
d="M61 0v810h340v-104h-192v-233h151v-103h-151v-268h194v-102h-342zM272 912v130h120v-130h-120zM76 912v130h120v-130h-120z" />
    <glyph glyph-name="Igrave" unicode="&#xcc;" horiz-adv-x="275" 
d="M65 0v810h146v-810h-146zM100 866l-119 200h138l59 -200h-78z" />
    <glyph glyph-name="Iacute" unicode="&#xcd;" horiz-adv-x="275" 
d="M65 0v810h146v-810h-146zM96 866l61 200h137l-119 -200h-79z" />
    <glyph glyph-name="Icircumflex" unicode="&#xce;" horiz-adv-x="275" 
d="M65 0v810h146v-810h-146zM-15 874l90 184h122l92 -184h-101l-52 120l-51 -120h-100z" />
    <glyph glyph-name="Idieresis" unicode="&#xcf;" horiz-adv-x="275" 
d="M65 0v810h146v-810h-146zM175 912v130h120v-130h-120zM-21 912v130h120v-130h-120z" />
    <glyph glyph-name="Eth" unicode="&#xd0;" horiz-adv-x="541" 
d="M57 0v379h-47v77h47v354h191q99 0 154.5 -27t79 -83t23.5 -142v-296q0 -88 -23.5 -146.5t-78 -87t-149.5 -28.5h-197zM204 103h46q51 0 73 18t27 52.5t5 84.5v310q0 49 -6.5 79t-29 44t-71.5 14h-44v-249h51v-77h-51v-276z" />
    <glyph glyph-name="Ntilde" unicode="&#xd1;" horiz-adv-x="545" 
d="M61 0v810h103l197 -462v462h122v-810h-98l-198 484v-484h-126zM351 915q-27 0 -48 12.5t-40 24t-40 11.5q-20 0 -27.5 -10.5t-7.5 -30.5h-70q0 36 7.5 64.5t26.5 45t51 16.5q25 0 45 -11.5t39.5 -23t40.5 -11.5q17 0 24.5 10t7.5 30h66q0 -31 -5 -60t-21.5 -48t-48.5 -19
z" />
    <glyph glyph-name="Ograve" unicode="&#xd2;" horiz-adv-x="563" 
d="M281 -11q-86 0 -137 32t-73 92t-22 142v303q0 82 22 140.5t73 89.5t137 31q88 0 138.5 -31t73 -89.5t22.5 -140.5v-304q0 -81 -22.5 -140.5t-73 -92t-138.5 -32.5zM281 98q37 0 54.5 16t23.5 44t6 61v373q0 34 -6 61t-23.5 42.5t-54.5 15.5q-35 0 -53 -15.5t-24 -42.5
t-6 -61v-373q0 -33 5.5 -61t23.5 -44t54 -16zM245 866l-119 200h138l59 -200h-78z" />
    <glyph glyph-name="Oacute" unicode="&#xd3;" horiz-adv-x="563" 
d="M281 -11q-86 0 -137 32t-73 92t-22 142v303q0 82 22 140.5t73 89.5t137 31q88 0 138.5 -31t73 -89.5t22.5 -140.5v-304q0 -81 -22.5 -140.5t-73 -92t-138.5 -32.5zM281 98q37 0 54.5 16t23.5 44t6 61v373q0 34 -6 61t-23.5 42.5t-54.5 15.5q-35 0 -53 -15.5t-24 -42.5
t-6 -61v-373q0 -33 5.5 -61t23.5 -44t54 -16zM241 866l61 200h137l-119 -200h-79z" />
    <glyph glyph-name="Ocircumflex" unicode="&#xd4;" horiz-adv-x="563" 
d="M281 -11q-86 0 -137 32t-73 92t-22 142v303q0 82 22 140.5t73 89.5t137 31q88 0 138.5 -31t73 -89.5t22.5 -140.5v-304q0 -81 -22.5 -140.5t-73 -92t-138.5 -32.5zM281 98q37 0 54.5 16t23.5 44t6 61v373q0 34 -6 61t-23.5 42.5t-54.5 15.5q-35 0 -53 -15.5t-24 -42.5
t-6 -61v-373q0 -33 5.5 -61t23.5 -44t54 -16zM130 874l90 184h122l92 -184h-101l-52 120l-51 -120h-100z" />
    <glyph glyph-name="Otilde" unicode="&#xd5;" horiz-adv-x="563" 
d="M281 -11q-86 0 -137 32t-73 92t-22 142v303q0 82 22 140.5t73 89.5t137 31q88 0 138.5 -31t73 -89.5t22.5 -140.5v-304q0 -81 -22.5 -140.5t-73 -92t-138.5 -32.5zM281 98q37 0 54.5 16t23.5 44t6 61v373q0 34 -6 61t-23.5 42.5t-54.5 15.5q-35 0 -53 -15.5t-24 -42.5
t-6 -61v-373q0 -33 5.5 -61t23.5 -44t54 -16zM361 915q-27 0 -48 12.5t-40 24t-40 11.5q-20 0 -27.5 -10.5t-7.5 -30.5h-70q0 36 7.5 64.5t26.5 45t51 16.5q25 0 45 -11.5t39.5 -23t40.5 -11.5q17 0 24.5 10t7.5 30h66q0 -31 -5 -60t-21.5 -48t-48.5 -19z" />
    <glyph glyph-name="Odieresis" unicode="&#xd6;" horiz-adv-x="563" 
d="M281 -11q-86 0 -137 32t-73 92t-22 142v303q0 82 22 140.5t73 89.5t137 31q88 0 138.5 -31t73 -89.5t22.5 -140.5v-304q0 -81 -22.5 -140.5t-73 -92t-138.5 -32.5zM281 98q37 0 54.5 16t23.5 44t6 61v373q0 34 -6 61t-23.5 42.5t-54.5 15.5q-35 0 -53 -15.5t-24 -42.5
t-6 -61v-373q0 -33 5.5 -61t23.5 -44t54 -16zM320 912v130h120v-130h-120zM124 912v130h120v-130h-120z" />
    <glyph glyph-name="multiply" unicode="&#xd7;" horiz-adv-x="436" 
d="M116 240l-64 64l103 103l-103 102l64 65l102 -103l102 103l65 -64l-103 -103l103 -103l-64 -64l-103 102z" />
    <glyph glyph-name="Oslash" unicode="&#xd8;" horiz-adv-x="557" 
d="M139 -82l-39 14l308 950l40 -13zM281 -11q-86 0 -137 32t-73 92t-22 142v303q0 82 22 140.5t73 89.5t137 31q88 0 138.5 -31t73 -89.5t22.5 -140.5v-304q0 -81 -22.5 -140.5t-73 -92t-138.5 -32.5zM281 98q37 0 54.5 16t23.5 44t6 61v373q0 34 -6 61t-23.5 42.5
t-54.5 15.5q-35 0 -53 -15.5t-24 -42.5t-6 -61v-373q0 -33 5.5 -61t23.5 -44t54 -16z" />
    <glyph glyph-name="Ugrave" unicode="&#xd9;" horiz-adv-x="566" 
d="M283 -11q-90 0 -140 33t-69 94t-19 146v548h144v-565q0 -38 5 -71.5t23.5 -54t55.5 -20.5q39 0 56.5 20.5t23 54t5.5 71.5v565h143v-548q0 -85 -19 -146t-68.5 -94t-140.5 -33zM246 866l-119 200h138l59 -200h-78z" />
    <glyph glyph-name="Uacute" unicode="&#xda;" horiz-adv-x="566" 
d="M283 -11q-90 0 -140 33t-69 94t-19 146v548h144v-565q0 -38 5 -71.5t23.5 -54t55.5 -20.5q39 0 56.5 20.5t23 54t5.5 71.5v565h143v-548q0 -85 -19 -146t-68.5 -94t-140.5 -33zM242 866l61 200h137l-119 -200h-79z" />
    <glyph glyph-name="Ucircumflex" unicode="&#xdb;" horiz-adv-x="566" 
d="M283 -11q-90 0 -140 33t-69 94t-19 146v548h144v-565q0 -38 5 -71.5t23.5 -54t55.5 -20.5q39 0 56.5 20.5t23 54t5.5 71.5v565h143v-548q0 -85 -19 -146t-68.5 -94t-140.5 -33zM131 874l90 184h122l92 -184h-101l-52 120l-51 -120h-100z" />
    <glyph glyph-name="Udieresis" unicode="&#xdc;" horiz-adv-x="566" 
d="M283 -11q-90 0 -140 33t-69 94t-19 146v548h144v-565q0 -38 5 -71.5t23.5 -54t55.5 -20.5q39 0 56.5 20.5t23 54t5.5 71.5v565h143v-548q0 -85 -19 -146t-68.5 -94t-140.5 -33zM321 912v130h120v-130h-120zM125 912v130h120v-130h-120z" />
    <glyph glyph-name="Yacute" unicode="&#xdd;" horiz-adv-x="487" 
d="M174 0v309l-164 501h138l100 -321l94 321h135l-162 -501v-309h-141zM203 866l61 200h137l-119 -200h-79z" />
    <glyph glyph-name="Thorn" unicode="&#xde;" horiz-adv-x="533" 
d="M57 0v810h147v-107h97q74 0 122 -25.5t71 -77t23 -127.5q0 -65 -14 -110.5t-42 -74t-71.5 -41.5t-102.5 -13h-83v-234h-147zM204 343h64q59 0 85.5 27t26.5 98q0 66 -24 94.5t-80 28.5h-72v-248z" />
    <glyph glyph-name="germandbls" unicode="&#xdf;" horiz-adv-x="529" 
d="M239 -12v107q33 0 55.5 8t35.5 25t18.5 42.5t5.5 60.5q0 40 -11.5 69.5t-35 46t-59.5 16.5v107q29 0 47 18t26.5 49t8.5 69q0 51 -15 82.5t-58 31.5q-27 0 -42 -14t-21 -39.5t-6 -61.5v-605h-136v605q0 60 20.5 108.5t64 78t112.5 29.5q104 0 153.5 -56t49.5 -158
q0 -64 -26 -108t-83 -70q49 -13 81 -41t48.5 -70t16.5 -97q0 -59 -15.5 -103t-46.5 -73t-78.5 -43t-109.5 -14z" />
    <glyph glyph-name="agrave" unicode="&#xe0;" horiz-adv-x="452" 
d="M164 -9q-39 0 -67 20.5t-43 52t-15 65.5q0 54 20 91t53 62t75 43.5t85 33.5v50q0 25 -3.5 42t-13 26t-29.5 9q-17 0 -27.5 -8t-15 -22.5t-5.5 -33.5l-2 -35l-129 5q3 100 49.5 147.5t141.5 47.5q87 0 126.5 -48t39.5 -130v-267q0 -32 1.5 -58t4 -47t4.5 -37h-122
q-3 20 -7.5 45.5t-6.5 37.5q-10 -35 -38 -63.5t-76 -28.5zM214 92q13 0 24.5 6.5t20.5 15.5t13 16v161q-22 -13 -41.5 -26t-34 -28.5t-22 -33.5t-7.5 -42q0 -32 12.5 -50.5t34.5 -18.5zM200 634l-119 200h138l59 -200h-78z" />
    <glyph glyph-name="aacute" unicode="&#xe1;" horiz-adv-x="452" 
d="M164 -9q-39 0 -67 20.5t-43 52t-15 65.5q0 54 20 91t53 62t75 43.5t85 33.5v50q0 25 -3.5 42t-13 26t-29.5 9q-17 0 -27.5 -8t-15 -22.5t-5.5 -33.5l-2 -35l-129 5q3 100 49.5 147.5t141.5 47.5q87 0 126.5 -48t39.5 -130v-267q0 -32 1.5 -58t4 -47t4.5 -37h-122
q-3 20 -7.5 45.5t-6.5 37.5q-10 -35 -38 -63.5t-76 -28.5zM214 92q13 0 24.5 6.5t20.5 15.5t13 16v161q-22 -13 -41.5 -26t-34 -28.5t-22 -33.5t-7.5 -42q0 -32 12.5 -50.5t34.5 -18.5zM196 634l61 200h137l-119 -200h-79z" />
    <glyph glyph-name="acircumflex" unicode="&#xe2;" horiz-adv-x="452" 
d="M164 -9q-39 0 -67 20.5t-43 52t-15 65.5q0 54 20 91t53 62t75 43.5t85 33.5v50q0 25 -3.5 42t-13 26t-29.5 9q-17 0 -27.5 -8t-15 -22.5t-5.5 -33.5l-2 -35l-129 5q3 100 49.5 147.5t141.5 47.5q87 0 126.5 -48t39.5 -130v-267q0 -32 1.5 -58t4 -47t4.5 -37h-122
q-3 20 -7.5 45.5t-6.5 37.5q-10 -35 -38 -63.5t-76 -28.5zM214 92q13 0 24.5 6.5t20.5 15.5t13 16v161q-22 -13 -41.5 -26t-34 -28.5t-22 -33.5t-7.5 -42q0 -32 12.5 -50.5t34.5 -18.5zM85 642l90 184h122l92 -184h-101l-52 120l-51 -120h-100z" />
    <glyph glyph-name="atilde" unicode="&#xe3;" horiz-adv-x="452" 
d="M164 -9q-39 0 -67 20.5t-43 52t-15 65.5q0 54 20 91t53 62t75 43.5t85 33.5v50q0 25 -3.5 42t-13 26t-29.5 9q-17 0 -27.5 -8t-15 -22.5t-5.5 -33.5l-2 -35l-129 5q3 100 49.5 147.5t141.5 47.5q87 0 126.5 -48t39.5 -130v-267q0 -32 1.5 -58t4 -47t4.5 -37h-122
q-3 20 -7.5 45.5t-6.5 37.5q-10 -35 -38 -63.5t-76 -28.5zM214 92q13 0 24.5 6.5t20.5 15.5t13 16v161q-22 -13 -41.5 -26t-34 -28.5t-22 -33.5t-7.5 -42q0 -32 12.5 -50.5t34.5 -18.5zM316 683q-27 0 -48 12.5t-40 24t-40 11.5q-20 0 -27.5 -10.5t-7.5 -30.5h-70
q0 36 7.5 64.5t26.5 45t51 16.5q25 0 45 -11.5t39.5 -23t40.5 -11.5q17 0 24.5 10t7.5 30h66q0 -31 -5 -60t-21.5 -48t-48.5 -19z" />
    <glyph glyph-name="adieresis" unicode="&#xe4;" horiz-adv-x="452" 
d="M164 -9q-39 0 -67 20.5t-43 52t-15 65.5q0 54 20 91t53 62t75 43.5t85 33.5v50q0 25 -3.5 42t-13 26t-29.5 9q-17 0 -27.5 -8t-15 -22.5t-5.5 -33.5l-2 -35l-129 5q3 100 49.5 147.5t141.5 47.5q87 0 126.5 -48t39.5 -130v-267q0 -32 1.5 -58t4 -47t4.5 -37h-122
q-3 20 -7.5 45.5t-6.5 37.5q-10 -35 -38 -63.5t-76 -28.5zM214 92q13 0 24.5 6.5t20.5 15.5t13 16v161q-22 -13 -41.5 -26t-34 -28.5t-22 -33.5t-7.5 -42q0 -32 12.5 -50.5t34.5 -18.5zM275 680v130h120v-130h-120zM79 680v130h120v-130h-120z" />
    <glyph glyph-name="aring" unicode="&#xe5;" horiz-adv-x="452" 
d="M164 -9q-39 0 -67 20.5t-43 52t-15 65.5q0 54 20 91t53 62t75 43.5t85 33.5v50q0 25 -3.5 42t-13 26t-29.5 9q-17 0 -27.5 -8t-15 -22.5t-5.5 -33.5l-2 -35l-129 5q3 100 49.5 147.5t141.5 47.5q87 0 126.5 -48t39.5 -130v-267q0 -32 1.5 -58t4 -47t4.5 -37h-122
q-3 20 -7.5 45.5t-6.5 37.5q-10 -35 -38 -63.5t-76 -28.5zM214 92q13 0 24.5 6.5t20.5 15.5t13 16v161q-22 -13 -41.5 -26t-34 -28.5t-22 -33.5t-7.5 -42q0 -32 12.5 -50.5t34.5 -18.5zM236 609q-48 0 -81 29t-33 82t33 81.5t81 28.5q49 0 82.5 -29t33.5 -81
q0 -53 -33.5 -82t-82.5 -29zM236 665q26 0 40 15.5t14 39.5q0 25 -14 40t-40 15q-25 0 -39 -15t-14 -40q0 -24 14 -39.5t39 -15.5z" />
    <glyph glyph-name="ae" unicode="&#xe6;" horiz-adv-x="665" 
d="M185 -10q-70 0 -108 38.5t-38 101.5q0 55 21.5 90.5t58.5 57t84 33.5l68 17v78q0 39 -9.5 59t-37.5 20q-17 0 -28.5 -9.5t-16.5 -29.5t-5 -51l-133 3q0 89 44 139t131 50q57 0 89 -27t38 -65h-16q4 26 23.5 46.5t51.5 33t70 12.5q76 0 113 -38t37 -98q0 -52 -20.5 -82.5
t-54.5 -46t-75 -25.5l-69 -15v-120q0 -31 8.5 -51t36.5 -20q19 0 28.5 10t13 28t3.5 41v32h129v-36q0 -56 -17.5 -95t-52.5 -60t-89 -21q-37 0 -66 12.5t-47.5 36.5t-24.5 57q-10 -33 -30 -57t-47.5 -36.5t-62.5 -12.5zM216 87q19 0 30.5 8.5t18 25.5t6.5 44v96l-38 -14
q-23 -9 -38.5 -22t-23 -30.5t-7.5 -40.5q0 -20 5.5 -35t17 -23.5t29.5 -8.5zM403 348l35 8q34 8 50.5 24t16.5 50q0 23 -11 38.5t-38 15.5q-20 0 -31.5 -9.5t-16.5 -26.5t-5 -42v-58z" />
    <glyph glyph-name="ccedilla" unicode="&#xe7;" horiz-adv-x="440" 
d="M226 -9q-67 0 -107.5 25.5t-59 73t-18.5 112.5v174q0 67 18.5 114t59.5 72t107 25q62 0 101.5 -19.5t57.5 -59t18 -99.5v-48h-128v51q0 30 -4.5 47.5t-15.5 25t-29 7.5t-29 -9.5t-15.5 -30.5t-4.5 -58v-212q0 -56 12 -75.5t38 -19.5q20 0 30.5 9t14 26.5t3.5 42.5v62h128
v-55q0 -58 -18.5 -99t-58 -61.5t-100.5 -20.5zM238 -257q-18 0 -36.5 3t-35.5 8v63q12 -4 26 -6t28 -2q26 0 44 8.5t18 28.5q0 19 -12.5 29.5t-32.5 16.5t-44 8v100h57v-61q56 0 90 -24.5t34 -70.5q0 -36 -18.5 -58t-49.5 -32.5t-68 -10.5z" />
    <glyph glyph-name="egrave" unicode="&#xe8;" horiz-adv-x="446" 
d="M227 -9q-65 0 -106 24.5t-60.5 72t-19.5 114.5v174q0 69 19.5 116t61 71t105.5 24q69 0 107.5 -26t55 -75.5t16.5 -120.5v-82h-230v-114q0 -28 5.5 -46t17.5 -26t29 -8q18 0 29 8.5t16 25t5 41.5v48h127v-39q0 -88 -44 -135t-134 -47zM176 350h102v55q0 30 -5 48.5
t-16 27t-31 8.5q-18 0 -29 -9t-16 -30t-5 -60v-40zM188 634l-119 200h138l59 -200h-78z" />
    <glyph glyph-name="eacute" unicode="&#xe9;" horiz-adv-x="446" 
d="M227 -9q-65 0 -106 24.5t-60.5 72t-19.5 114.5v174q0 69 19.5 116t61 71t105.5 24q69 0 107.5 -26t55 -75.5t16.5 -120.5v-82h-230v-114q0 -28 5.5 -46t17.5 -26t29 -8q18 0 29 8.5t16 25t5 41.5v48h127v-39q0 -88 -44 -135t-134 -47zM176 350h102v55q0 30 -5 48.5
t-16 27t-31 8.5q-18 0 -29 -9t-16 -30t-5 -60v-40zM184 634l61 200h137l-119 -200h-79z" />
    <glyph glyph-name="ecircumflex" unicode="&#xea;" horiz-adv-x="446" 
d="M227 -9q-65 0 -106 24.5t-60.5 72t-19.5 114.5v174q0 69 19.5 116t61 71t105.5 24q69 0 107.5 -26t55 -75.5t16.5 -120.5v-82h-230v-114q0 -28 5.5 -46t17.5 -26t29 -8q18 0 29 8.5t16 25t5 41.5v48h127v-39q0 -88 -44 -135t-134 -47zM176 350h102v55q0 30 -5 48.5
t-16 27t-31 8.5q-18 0 -29 -9t-16 -30t-5 -60v-40zM73 642l90 184h122l92 -184h-101l-52 120l-51 -120h-100z" />
    <glyph glyph-name="edieresis" unicode="&#xeb;" horiz-adv-x="446" 
d="M227 -9q-65 0 -106 24.5t-60.5 72t-19.5 114.5v174q0 69 19.5 116t61 71t105.5 24q69 0 107.5 -26t55 -75.5t16.5 -120.5v-82h-230v-114q0 -28 5.5 -46t17.5 -26t29 -8q18 0 29 8.5t16 25t5 41.5v48h127v-39q0 -88 -44 -135t-134 -47zM176 350h102v55q0 30 -5 48.5
t-16 27t-31 8.5q-18 0 -29 -9t-16 -30t-5 -60v-40zM263 680v130h120v-130h-120zM67 680v130h120v-130h-120z" />
    <glyph glyph-name="igrave" unicode="&#xec;" horiz-adv-x="253" 
d="M60 0v578h136v-578h-136zM91 634l-119 200h138l59 -200h-78z" />
    <glyph glyph-name="iacute" unicode="&#xed;" horiz-adv-x="253" 
d="M60 0v578h136v-578h-136zM87 634l61 200h137l-119 -200h-79z" />
    <glyph glyph-name="icircumflex" unicode="&#xee;" horiz-adv-x="253" 
d="M60 0v578h136v-578h-136zM-24 642l90 184h122l92 -184h-101l-52 120l-51 -120h-100z" />
    <glyph glyph-name="idieresis" unicode="&#xef;" horiz-adv-x="253" 
d="M60 0v578h136v-578h-136zM166 680v130h120v-130h-120zM-30 680v130h120v-130h-120z" />
    <glyph glyph-name="eth" unicode="&#xf0;" horiz-adv-x="496" 
d="M250 -12q-60 0 -104 26t-68.5 77t-24.5 127v119q0 68 18 120.5t55 82.5t94 30q29 0 50.5 -8t35.5 -19q-2 39 -10 71.5t-19 49.5l-103 -41l-9 47l84 34q-15 19 -48.5 30t-93.5 11l6 87q92 -1 148.5 -20.5t88.5 -60.5l101 41l9 -47l-82 -33q18 -35 32.5 -77t23.5 -96.5
t9 -127.5v-185q0 -83 -22.5 -135t-66 -77.5t-104.5 -25.5zM252 85q22 0 34 14t16.5 38.5t4.5 57.5v64v64.5v64v63.5q-10 8 -23.5 15t-30.5 7q-26 0 -40.5 -18.5t-20 -59t-5.5 -108.5q0 -70 3.5 -115t17.5 -66t44 -21z" />
    <glyph glyph-name="ntilde" unicode="&#xf1;" horiz-adv-x="474" 
d="M52 0v578h136v-58q31 30 65.5 48.5t74.5 18.5q36 0 57 -17.5t31 -46.5t10 -63v-460h-136v433q0 26 -8 40t-31 14q-14 0 -30.5 -8t-32.5 -20v-459h-136zM317 683q-27 0 -48 12.5t-40 24t-40 11.5q-20 0 -27.5 -10.5t-7.5 -30.5h-70q0 36 7.5 64.5t26.5 45t51 16.5
q25 0 45 -11.5t39.5 -23t40.5 -11.5q17 0 24.5 10t7.5 30h66q0 -31 -5 -60t-21.5 -48t-48.5 -19z" />
    <glyph glyph-name="ograve" unicode="&#xf2;" horiz-adv-x="455" 
d="M227 -9q-63 0 -104 23.5t-61.5 68.5t-20.5 109v194q0 64 20.5 109t61.5 68.5t104 23.5t104.5 -23.5t62 -68.5t20.5 -109v-194q0 -64 -20.5 -109t-62 -68.5t-104.5 -23.5zM228 85q23 0 34 13t14 35.5t3 49.5v212q0 27 -3 49t-14 35.5t-34 13.5t-34 -13.5t-14.5 -35.5
t-3.5 -49v-212q0 -27 3.5 -49.5t14.5 -35.5t34 -13zM190 634l-119 200h138l59 -200h-78z" />
    <glyph glyph-name="oacute" unicode="&#xf3;" horiz-adv-x="455" 
d="M227 -9q-63 0 -104 23.5t-61.5 68.5t-20.5 109v194q0 64 20.5 109t61.5 68.5t104 23.5t104.5 -23.5t62 -68.5t20.5 -109v-194q0 -64 -20.5 -109t-62 -68.5t-104.5 -23.5zM228 85q23 0 34 13t14 35.5t3 49.5v212q0 27 -3 49t-14 35.5t-34 13.5t-34 -13.5t-14.5 -35.5
t-3.5 -49v-212q0 -27 3.5 -49.5t14.5 -35.5t34 -13zM186 634l61 200h137l-119 -200h-79z" />
    <glyph glyph-name="ocircumflex" unicode="&#xf4;" horiz-adv-x="455" 
d="M227 -9q-63 0 -104 23.5t-61.5 68.5t-20.5 109v194q0 64 20.5 109t61.5 68.5t104 23.5t104.5 -23.5t62 -68.5t20.5 -109v-194q0 -64 -20.5 -109t-62 -68.5t-104.5 -23.5zM228 85q23 0 34 13t14 35.5t3 49.5v212q0 27 -3 49t-14 35.5t-34 13.5t-34 -13.5t-14.5 -35.5
t-3.5 -49v-212q0 -27 3.5 -49.5t14.5 -35.5t34 -13zM75 642l90 184h122l92 -184h-101l-52 120l-51 -120h-100z" />
    <glyph glyph-name="otilde" unicode="&#xf5;" horiz-adv-x="455" 
d="M227 -9q-63 0 -104 23.5t-61.5 68.5t-20.5 109v194q0 64 20.5 109t61.5 68.5t104 23.5t104.5 -23.5t62 -68.5t20.5 -109v-194q0 -64 -20.5 -109t-62 -68.5t-104.5 -23.5zM228 85q23 0 34 13t14 35.5t3 49.5v212q0 27 -3 49t-14 35.5t-34 13.5t-34 -13.5t-14.5 -35.5
t-3.5 -49v-212q0 -27 3.5 -49.5t14.5 -35.5t34 -13zM306 683q-27 0 -48 12.5t-40 24t-40 11.5q-20 0 -27.5 -10.5t-7.5 -30.5h-70q0 36 7.5 64.5t26.5 45t51 16.5q25 0 45 -11.5t39.5 -23t40.5 -11.5q17 0 24.5 10t7.5 30h66q0 -31 -5 -60t-21.5 -48t-48.5 -19z" />
    <glyph glyph-name="odieresis" unicode="&#xf6;" horiz-adv-x="455" 
d="M227 -9q-63 0 -104 23.5t-61.5 68.5t-20.5 109v194q0 64 20.5 109t61.5 68.5t104 23.5t104.5 -23.5t62 -68.5t20.5 -109v-194q0 -64 -20.5 -109t-62 -68.5t-104.5 -23.5zM228 85q23 0 34 13t14 35.5t3 49.5v212q0 27 -3 49t-14 35.5t-34 13.5t-34 -13.5t-14.5 -35.5
t-3.5 -49v-212q0 -27 3.5 -49.5t14.5 -35.5t34 -13zM265 680v130h120v-130h-120zM69 680v130h120v-130h-120z" />
    <glyph glyph-name="divide" unicode="&#xf7;" horiz-adv-x="403" 
d="M27 374v82h349v-82h-349zM157 175v117h93v-117h-93zM157 529v117h93v-117h-93z" />
    <glyph glyph-name="oslash" unicode="&#xf8;" horiz-adv-x="451" 
d="M100 -92l-34 14l283 749l38 -14zM227 -9q-63 0 -104 23.5t-61.5 68.5t-20.5 109v194q0 64 20.5 109t61.5 68.5t104 23.5t104.5 -23.5t62 -68.5t20.5 -109v-194q0 -64 -20.5 -109t-62 -68.5t-104.5 -23.5zM228 85q23 0 34 13t14 35.5t3 49.5v212q0 27 -3 49t-14 35.5
t-34 13.5t-34 -13.5t-14.5 -35.5t-3.5 -49v-212q0 -27 3.5 -49.5t14.5 -35.5t34 -13z" />
    <glyph glyph-name="ugrave" unicode="&#xf9;" horiz-adv-x="473" 
d="M145 -9q-34 0 -56 17.5t-32 47t-10 62.5v460h136v-435q0 -26 8.5 -40.5t31.5 -14.5q15 0 30.5 8t30.5 19v463h136v-578h-136v55q-29 -28 -64 -46t-75 -18zM200 634l-119 200h138l59 -200h-78z" />
    <glyph glyph-name="uacute" unicode="&#xfa;" horiz-adv-x="473" 
d="M145 -9q-34 0 -56 17.5t-32 47t-10 62.5v460h136v-435q0 -26 8.5 -40.5t31.5 -14.5q15 0 30.5 8t30.5 19v463h136v-578h-136v55q-29 -28 -64 -46t-75 -18zM196 634l61 200h137l-119 -200h-79z" />
    <glyph glyph-name="ucircumflex" unicode="&#xfb;" horiz-adv-x="473" 
d="M145 -9q-34 0 -56 17.5t-32 47t-10 62.5v460h136v-435q0 -26 8.5 -40.5t31.5 -14.5q15 0 30.5 8t30.5 19v463h136v-578h-136v55q-29 -28 -64 -46t-75 -18zM85 642l90 184h122l92 -184h-101l-52 120l-51 -120h-100z" />
    <glyph glyph-name="udieresis" unicode="&#xfc;" horiz-adv-x="473" 
d="M145 -9q-34 0 -56 17.5t-32 47t-10 62.5v460h136v-435q0 -26 8.5 -40.5t31.5 -14.5q15 0 30.5 8t30.5 19v463h136v-578h-136v55q-29 -28 -64 -46t-75 -18zM275 680v130h120v-130h-120zM79 680v130h120v-130h-120z" />
    <glyph glyph-name="yacute" unicode="&#xfd;" horiz-adv-x="421" 
d="M56 -157v98q35 0 57 4t32 14t10 28q0 13 -6.5 41t-14.5 61l-127 489h132l75 -381l65 381h131l-135 -601q-11 -51 -37 -80t-65 -41.5t-91 -12.5h-26zM169 634l61 200h137l-119 -200h-79z" />
    <glyph glyph-name="thorn" unicode="&#xfe;" horiz-adv-x="471" 
d="M50 -190v1000h136v-276q25 24 54.5 38.5t63.5 14.5q39 0 63.5 -18t38.5 -47.5t19.5 -63t5.5 -64.5v-196q0 -57 -13 -104t-43 -75t-78 -28q-31 0 -59 15t-52 37v-233h-136zM246 86q21 0 31.5 14.5t14 39t3.5 53.5v207q0 27 -4 48.5t-15 34.5t-32 13q-16 0 -30.5 -7
t-27.5 -18v-365q13 -9 27.5 -14.5t32.5 -5.5z" />
    <glyph glyph-name="ydieresis" unicode="&#xff;" horiz-adv-x="421" 
d="M56 -157v98q35 0 57 4t32 14t10 28q0 13 -6.5 41t-14.5 61l-127 489h132l75 -381l65 381h131l-135 -601q-11 -51 -37 -80t-65 -41.5t-91 -12.5h-26zM248 680v130h120v-130h-120zM52 680v130h120v-130h-120z" />
    <glyph glyph-name="Amacron" unicode="&#x100;" horiz-adv-x="522" 
d="M20 0l162 810h158l162 -810h-137l-32 187h-141l-33 -187h-139zM207 281h110l-55 340zM143 907v71h236v-71h-236z" />
    <glyph glyph-name="amacron" unicode="&#x101;" horiz-adv-x="452" 
d="M164 -9q-39 0 -67 20.5t-43 52t-15 65.5q0 54 20 91t53 62t75 43.5t85 33.5v50q0 25 -3.5 42t-13 26t-29.5 9q-17 0 -27.5 -8t-15 -22.5t-5.5 -33.5l-2 -35l-129 5q3 100 49.5 147.5t141.5 47.5q87 0 126.5 -48t39.5 -130v-267q0 -32 1.5 -58t4 -47t4.5 -37h-122
q-3 20 -7.5 45.5t-6.5 37.5q-10 -35 -38 -63.5t-76 -28.5zM214 92q13 0 24.5 6.5t20.5 15.5t13 16v161q-22 -13 -41.5 -26t-34 -28.5t-22 -33.5t-7.5 -42q0 -32 12.5 -50.5t34.5 -18.5zM119 675v71h236v-71h-236z" />
    <glyph glyph-name="Abreve" unicode="&#x102;" horiz-adv-x="522" 
d="M20 0l162 810h158l162 -810h-137l-32 187h-141l-33 -187h-139zM207 281h110l-55 340zM262 874q-72 0 -108.5 39.5t-36.5 106.5h78q0 -36 15 -55t52 -19q36 0 51 19.5t15 54.5h78q0 -67 -36.5 -106.5t-107.5 -39.5z" />
    <glyph glyph-name="abreve" unicode="&#x103;" horiz-adv-x="452" 
d="M164 -9q-39 0 -67 20.5t-43 52t-15 65.5q0 54 20 91t53 62t75 43.5t85 33.5v50q0 25 -3.5 42t-13 26t-29.5 9q-17 0 -27.5 -8t-15 -22.5t-5.5 -33.5l-2 -35l-129 5q3 100 49.5 147.5t141.5 47.5q87 0 126.5 -48t39.5 -130v-267q0 -32 1.5 -58t4 -47t4.5 -37h-122
q-3 20 -7.5 45.5t-6.5 37.5q-10 -35 -38 -63.5t-76 -28.5zM214 92q13 0 24.5 6.5t20.5 15.5t13 16v161q-22 -13 -41.5 -26t-34 -28.5t-22 -33.5t-7.5 -42q0 -32 12.5 -50.5t34.5 -18.5zM238 642q-72 0 -108.5 39.5t-36.5 106.5h78q0 -36 15 -55t52 -19q36 0 51 19.5t15 54.5
h78q0 -67 -36.5 -106.5t-107.5 -39.5z" />
    <glyph glyph-name="Aogonek" unicode="&#x104;" horiz-adv-x="522" 
d="M20 0l162 810h158l162 -810h-137l-32 187h-141l-33 -187h-139zM207 281h110l-55 340zM466 -246q-26 0 -52.5 3.5t-48.5 13.5t-35 29t-13 51q0 30 14 59t35.5 53t44.5 37h64q-14 -17 -27.5 -37.5t-23 -43t-9.5 -44.5q0 -32 23 -43t49 -11q8 0 16.5 0.5t14.5 1.5l-17 -66
q-7 -1 -16.5 -2t-18.5 -1z" />
    <glyph glyph-name="aogonek" unicode="&#x105;" horiz-adv-x="452" 
d="M164 -9q-39 0 -67 20.5t-43 52t-15 65.5q0 54 20 91t53 62t75 43.5t85 33.5v50q0 25 -3.5 42t-13 26t-29.5 9q-17 0 -27.5 -8t-15 -22.5t-5.5 -33.5l-2 -35l-129 5q3 100 49.5 147.5t141.5 47.5q87 0 126.5 -48t39.5 -130v-267q0 -32 1.5 -58t4 -47t4.5 -37h-122
q-3 20 -7.5 45.5t-6.5 37.5q-10 -35 -38 -63.5t-76 -28.5zM214 92q13 0 24.5 6.5t20.5 15.5t13 16v161q-22 -13 -41.5 -26t-34 -28.5t-22 -33.5t-7.5 -42q0 -32 12.5 -50.5t34.5 -18.5zM382 -246q-26 0 -52.5 3.5t-48.5 13.5t-35 29t-13 51q0 30 14 59t35.5 53t44.5 37h64
q-14 -17 -27.5 -37.5t-23 -43t-9.5 -44.5q0 -32 23 -43t49 -11q8 0 16.5 0.5t14.5 1.5l-17 -66q-7 -1 -16.5 -2t-18.5 -1z" />
    <glyph glyph-name="Cacute" unicode="&#x106;" horiz-adv-x="540" 
d="M279 -11q-89 0 -139.5 35t-70.5 95.5t-20 139.5v289q0 83 20 144t70.5 94t139.5 33q84 0 131.5 -28.5t67.5 -81.5t20 -123v-68h-142v70q0 34 -3.5 62t-19 44.5t-53.5 16.5t-55.5 -17.5t-22.5 -47t-5 -66.5v-352q0 -44 7 -72.5t25.5 -43t50.5 -14.5q37 0 52.5 17.5
t19.5 46.5t4 65v73h142v-65q0 -72 -19 -127.5t-66.5 -87t-133.5 -31.5zM234 866l61 200h137l-119 -200h-79z" />
    <glyph glyph-name="cacute" unicode="&#x107;" horiz-adv-x="440" 
d="M226 -9q-67 0 -107.5 25.5t-59 73t-18.5 112.5v174q0 67 18.5 114t59.5 72t107 25q62 0 101.5 -19.5t57.5 -59t18 -99.5v-48h-128v51q0 30 -4.5 47.5t-15.5 25t-29 7.5t-29 -9.5t-15.5 -30.5t-4.5 -58v-212q0 -56 12 -75.5t38 -19.5q20 0 30.5 9t14 26.5t3.5 42.5v62h128
v-55q0 -58 -18.5 -99t-58 -61.5t-100.5 -20.5zM180 634l61 200h137l-119 -200h-79z" />
    <glyph glyph-name="Ccircumflex" unicode="&#x108;" horiz-adv-x="540" 
d="M279 -11q-89 0 -139.5 35t-70.5 95.5t-20 139.5v289q0 83 20 144t70.5 94t139.5 33q84 0 131.5 -28.5t67.5 -81.5t20 -123v-68h-142v70q0 34 -3.5 62t-19 44.5t-53.5 16.5t-55.5 -17.5t-22.5 -47t-5 -66.5v-352q0 -44 7 -72.5t25.5 -43t50.5 -14.5q37 0 52.5 17.5
t19.5 46.5t4 65v73h142v-65q0 -72 -19 -127.5t-66.5 -87t-133.5 -31.5zM123 874l90 184h122l92 -184h-101l-52 120l-51 -120h-100z" />
    <glyph glyph-name="ccircumflex" unicode="&#x109;" horiz-adv-x="440" 
d="M226 -9q-67 0 -107.5 25.5t-59 73t-18.5 112.5v174q0 67 18.5 114t59.5 72t107 25q62 0 101.5 -19.5t57.5 -59t18 -99.5v-48h-128v51q0 30 -4.5 47.5t-15.5 25t-29 7.5t-29 -9.5t-15.5 -30.5t-4.5 -58v-212q0 -56 12 -75.5t38 -19.5q20 0 30.5 9t14 26.5t3.5 42.5v62h128
v-55q0 -58 -18.5 -99t-58 -61.5t-100.5 -20.5zM69 642l90 184h122l92 -184h-101l-52 120l-51 -120h-100z" />
    <glyph glyph-name="Cdotaccent" unicode="&#x10a;" horiz-adv-x="540" 
d="M279 -11q-89 0 -139.5 35t-70.5 95.5t-20 139.5v289q0 83 20 144t70.5 94t139.5 33q84 0 131.5 -28.5t67.5 -81.5t20 -123v-68h-142v70q0 34 -3.5 62t-19 44.5t-53.5 16.5t-55.5 -17.5t-22.5 -47t-5 -66.5v-352q0 -44 7 -72.5t25.5 -43t50.5 -14.5q37 0 52.5 17.5
t19.5 46.5t4 65v73h142v-65q0 -72 -19 -127.5t-66.5 -87t-133.5 -31.5zM209 893v137h132v-137h-132z" />
    <glyph glyph-name="cdotaccent" unicode="&#x10b;" horiz-adv-x="440" 
d="M226 -9q-67 0 -107.5 25.5t-59 73t-18.5 112.5v174q0 67 18.5 114t59.5 72t107 25q62 0 101.5 -19.5t57.5 -59t18 -99.5v-48h-128v51q0 30 -4.5 47.5t-15.5 25t-29 7.5t-29 -9.5t-15.5 -30.5t-4.5 -58v-212q0 -56 12 -75.5t38 -19.5q20 0 30.5 9t14 26.5t3.5 42.5v62h128
v-55q0 -58 -18.5 -99t-58 -61.5t-100.5 -20.5zM155 661v137h132v-137h-132z" />
    <glyph glyph-name="Ccaron" unicode="&#x10c;" horiz-adv-x="540" 
d="M279 -11q-89 0 -139.5 35t-70.5 95.5t-20 139.5v289q0 83 20 144t70.5 94t139.5 33q84 0 131.5 -28.5t67.5 -81.5t20 -123v-68h-142v70q0 34 -3.5 62t-19 44.5t-53.5 16.5t-55.5 -17.5t-22.5 -47t-5 -66.5v-352q0 -44 7 -72.5t25.5 -43t50.5 -14.5q37 0 52.5 17.5
t19.5 46.5t4 65v73h142v-65q0 -72 -19 -127.5t-66.5 -87t-133.5 -31.5zM209 870l-88 180h100l54 -113l54 113h100l-88 -180h-132z" />
    <glyph glyph-name="ccaron" unicode="&#x10d;" horiz-adv-x="440" 
d="M226 -9q-67 0 -107.5 25.5t-59 73t-18.5 112.5v174q0 67 18.5 114t59.5 72t107 25q62 0 101.5 -19.5t57.5 -59t18 -99.5v-48h-128v51q0 30 -4.5 47.5t-15.5 25t-29 7.5t-29 -9.5t-15.5 -30.5t-4.5 -58v-212q0 -56 12 -75.5t38 -19.5q20 0 30.5 9t14 26.5t3.5 42.5v62h128
v-55q0 -58 -18.5 -99t-58 -61.5t-100.5 -20.5zM155 638l-88 180h100l54 -113l54 113h100l-88 -180h-132z" />
    <glyph glyph-name="Dcaron" unicode="&#x10e;" horiz-adv-x="557" 
d="M61 0v810h191q99 0 154.5 -27t79 -83t23.5 -142v-296q0 -88 -23.5 -146.5t-78 -87t-149.5 -28.5h-197zM209 103h45q51 0 73 18t27 52.5t5 84.5v310q0 49 -7 79t-29 44t-71 14h-43v-602zM213 870l-88 180h100l54 -113l54 113h100l-88 -180h-132z" />
    <glyph glyph-name="dcaron" unicode="&#x10f;" horiz-adv-x="585" 
d="M182 -9q-69 0 -104.5 49t-35.5 157v177q0 60 13.5 108t43.5 76.5t81 28.5q31 0 57.5 -12.5t48.5 -32.5v268h136v-810h-136v41q-23 -23 -49 -36.5t-55 -13.5zM232 85q11 0 25 5t29 14v371q-12 8 -26 13.5t-29 5.5q-29 0 -40.5 -26.5t-11.5 -64.5v-216q0 -29 4 -52
t15.5 -36.5t33.5 -13.5zM492 539l-14 50q27 8 46 28.5t19 57.5h-72v135h133v-124q0 -63 -28 -99.5t-84 -47.5z" />
    <glyph glyph-name="Dcroat" unicode="&#x110;" horiz-adv-x="560" 
d="M64 0v381h-49v74h49v355h192q99 0 154.5 -27t78 -83t22.5 -142v-296q0 -88 -23 -146.5t-77.5 -87t-149.5 -28.5h-197zM210 103h49q51 0 73 18t27 52.5t5 84.5v310q0 49 -6.5 79t-29 44t-70.5 14h-48v-250h54v-74h-54v-278z" />
    <glyph glyph-name="dcroat" unicode="&#x111;" horiz-adv-x="478" 
d="M180 -9q-68 0 -103.5 49t-35.5 157v177q0 60 13 108t43.5 76.5t81.5 28.5q30 0 56 -12.5t48 -32.5v138h-123v63h123v67h136v-67h54v-63h-54v-680h-136v41q-22 -23 -47.5 -36.5t-55.5 -13.5zM230 85q11 0 25 5t28 14v371q-12 8 -25.5 13.5t-27.5 5.5q-30 0 -41.5 -26.5
t-11.5 -64.5v-216q0 -29 4.5 -52t16 -36.5t32.5 -13.5z" />
    <glyph glyph-name="Emacron" unicode="&#x112;" horiz-adv-x="428" 
d="M61 0v810h340v-104h-192v-233h151v-103h-151v-268h194v-102h-342zM116 907v71h236v-71h-236z" />
    <glyph glyph-name="emacron" unicode="&#x113;" horiz-adv-x="446" 
d="M227 -9q-65 0 -106 24.5t-60.5 72t-19.5 114.5v174q0 69 19.5 116t61 71t105.5 24q69 0 107.5 -26t55 -75.5t16.5 -120.5v-82h-230v-114q0 -28 5.5 -46t17.5 -26t29 -8q18 0 29 8.5t16 25t5 41.5v48h127v-39q0 -88 -44 -135t-134 -47zM176 350h102v55q0 30 -5 48.5
t-16 27t-31 8.5q-18 0 -29 -9t-16 -30t-5 -60v-40zM107 675v71h236v-71h-236z" />
    <glyph glyph-name="Ebreve" unicode="&#x114;" horiz-adv-x="428" 
d="M61 0v810h340v-104h-192v-233h151v-103h-151v-268h194v-102h-342zM235 874q-72 0 -108.5 39.5t-36.5 106.5h78q0 -36 15 -55t52 -19q36 0 51 19.5t15 54.5h78q0 -67 -36.5 -106.5t-107.5 -39.5z" />
    <glyph glyph-name="ebreve" unicode="&#x115;" horiz-adv-x="446" 
d="M227 -9q-65 0 -106 24.5t-60.5 72t-19.5 114.5v174q0 69 19.5 116t61 71t105.5 24q69 0 107.5 -26t55 -75.5t16.5 -120.5v-82h-230v-114q0 -28 5.5 -46t17.5 -26t29 -8q18 0 29 8.5t16 25t5 41.5v48h127v-39q0 -88 -44 -135t-134 -47zM176 350h102v55q0 30 -5 48.5
t-16 27t-31 8.5q-18 0 -29 -9t-16 -30t-5 -60v-40zM225 642q-72 0 -108.5 39.5t-36.5 106.5h78q0 -36 15 -55t52 -19q36 0 51 19.5t15 54.5h78q0 -67 -36.5 -106.5t-107.5 -39.5z" />
    <glyph glyph-name="Edotaccent" unicode="&#x116;" horiz-adv-x="428" 
d="M61 0v810h340v-104h-192v-233h151v-103h-151v-268h194v-102h-342zM168 893v137h132v-137h-132z" />
    <glyph glyph-name="edotaccent" unicode="&#x117;" horiz-adv-x="446" 
d="M227 -9q-65 0 -106 24.5t-60.5 72t-19.5 114.5v174q0 69 19.5 116t61 71t105.5 24q69 0 107.5 -26t55 -75.5t16.5 -120.5v-82h-230v-114q0 -28 5.5 -46t17.5 -26t29 -8q18 0 29 8.5t16 25t5 41.5v48h127v-39q0 -88 -44 -135t-134 -47zM176 350h102v55q0 30 -5 48.5
t-16 27t-31 8.5q-18 0 -29 -9t-16 -30t-5 -60v-40zM159 661v137h132v-137h-132z" />
    <glyph glyph-name="Eogonek" unicode="&#x118;" horiz-adv-x="428" 
d="M61 0v810h340v-104h-192v-233h151v-103h-151v-268h194v-102h-342zM339 -246q-26 0 -52.5 3.5t-48.5 13.5t-35 29t-13 51q0 30 14 59t35.5 53t44.5 37h64q-14 -17 -27.5 -37.5t-23 -43t-9.5 -44.5q0 -32 23 -43t49 -11q8 0 16.5 0.5t14.5 1.5l-17 -66q-7 -1 -16.5 -2
t-18.5 -1z" />
    <glyph glyph-name="eogonek" unicode="&#x119;" horiz-adv-x="446" 
d="M227 -9q-65 0 -106 24.5t-60.5 72t-19.5 114.5v174q0 69 19.5 116t61 71t105.5 24q69 0 107.5 -26t55 -75.5t16.5 -120.5v-82h-230v-114q0 -28 5.5 -46t17.5 -26t29 -8q18 0 29 8.5t16 25t5 41.5v48h127v-39q0 -88 -44 -135t-134 -47zM176 350h102v55q0 30 -5 48.5
t-16 27t-31 8.5q-18 0 -29 -9t-16 -30t-5 -60v-40zM284 -236q-26 0 -52.5 3.5t-48.5 13.5t-35 29t-13 51q0 30 14 59t35.5 53t44.5 37h64q-14 -17 -27.5 -37.5t-23 -43t-9.5 -44.5q0 -32 23 -43t49 -11q8 0 16.5 0.5t14.5 1.5l-17 -66q-7 -1 -16.5 -2t-18.5 -1z" />
    <glyph glyph-name="Ecaron" unicode="&#x11a;" horiz-adv-x="428" 
d="M61 0v810h340v-104h-192v-233h151v-103h-151v-268h194v-102h-342zM168 870l-88 180h100l54 -113l54 113h100l-88 -180h-132z" />
    <glyph glyph-name="ecaron" unicode="&#x11b;" horiz-adv-x="446" 
d="M227 -9q-65 0 -106 24.5t-60.5 72t-19.5 114.5v174q0 69 19.5 116t61 71t105.5 24q69 0 107.5 -26t55 -75.5t16.5 -120.5v-82h-230v-114q0 -28 5.5 -46t17.5 -26t29 -8q18 0 29 8.5t16 25t5 41.5v48h127v-39q0 -88 -44 -135t-134 -47zM176 350h102v55q0 30 -5 48.5
t-16 27t-31 8.5q-18 0 -29 -9t-16 -30t-5 -60v-40zM159 638l-88 180h100l54 -113l54 113h100l-88 -180h-132z" />
    <glyph glyph-name="Gcircumflex" unicode="&#x11c;" horiz-adv-x="559" 
d="M264 -11q-80 0 -127 34t-67.5 96.5t-20.5 147.5v272q0 87 20 150t70.5 96.5t139.5 33.5q83 0 132 -28t70.5 -80.5t21.5 -127.5v-42h-141v46q0 39 -5.5 67t-22 42.5t-53.5 14.5q-39 0 -56.5 -19t-22 -50t-4.5 -68v-339q0 -42 7 -73t26 -47.5t54 -16.5q36 0 55 18t26.5 50
t7.5 76v76h-87v93h220v-411h-95l-11 80q-16 -40 -48.5 -65.5t-88.5 -25.5zM128 874l90 184h122l92 -184h-101l-52 120l-51 -120h-100z" />
    <glyph glyph-name="gcircumflex" unicode="&#x11d;" horiz-adv-x="469" 
d="M222 -190q-59 0 -104 12t-70 37t-25 65q0 27 11.5 48.5t31.5 37.5t43 27q-33 9 -50.5 29t-17.5 48q0 34 17 58t47 51q-31 25 -46.5 62.5t-15.5 98.5q0 66 21.5 111.5t63 68.5t101.5 23q46 0 77 -13.5t51 -40.5q8 12 28 30t46 30l18 8l33 -73q-11 -3 -29.5 -10t-36.5 -15
t-28 -14q9 -20 15 -50t6 -57q0 -61 -19 -106t-58.5 -69.5t-102.5 -24.5q-21 0 -41 3.5t-37 8.5q-6 -9 -11.5 -19t-5.5 -21t12 -18t40 -10l122 -12q71 -7 105 -44.5t34 -101.5q0 -52 -23.5 -87t-73 -53t-128.5 -18zM237 -88q56 0 84 11t28 40q0 16 -7 26t-25 16.5t-51 9.5
l-99 9q-11 -9 -19.5 -18.5t-13.5 -20.5t-5 -23q0 -25 24 -37.5t84 -12.5zM229 269q18 0 29 6.5t17 21t8 36.5t2 51t-2 51t-7.5 37t-16.5 22t-30 7q-18 0 -29.5 -7t-17 -21.5t-8 -36.5t-2.5 -52q0 -28 2 -49.5t8 -36t17.5 -22t29.5 -7.5zM83 642l90 184h122l92 -184h-101
l-52 120l-51 -120h-100z" />
    <glyph glyph-name="Gbreve" unicode="&#x11e;" horiz-adv-x="559" 
d="M264 -11q-80 0 -127 34t-67.5 96.5t-20.5 147.5v272q0 87 20 150t70.5 96.5t139.5 33.5q83 0 132 -28t70.5 -80.5t21.5 -127.5v-42h-141v46q0 39 -5.5 67t-22 42.5t-53.5 14.5q-39 0 -56.5 -19t-22 -50t-4.5 -68v-339q0 -42 7 -73t26 -47.5t54 -16.5q36 0 55 18t26.5 50
t7.5 76v76h-87v93h220v-411h-95l-11 80q-16 -40 -48.5 -65.5t-88.5 -25.5zM280 874q-72 0 -108.5 39.5t-36.5 106.5h78q0 -36 15 -55t52 -19q36 0 51 19.5t15 54.5h78q0 -67 -36.5 -106.5t-107.5 -39.5z" />
    <glyph glyph-name="gbreve" unicode="&#x11f;" horiz-adv-x="469" 
d="M222 -190q-59 0 -104 12t-70 37t-25 65q0 27 11.5 48.5t31.5 37.5t43 27q-33 9 -50.5 29t-17.5 48q0 34 17 58t47 51q-31 25 -46.5 62.5t-15.5 98.5q0 66 21.5 111.5t63 68.5t101.5 23q46 0 77 -13.5t51 -40.5q8 12 28 30t46 30l18 8l33 -73q-11 -3 -29.5 -10t-36.5 -15
t-28 -14q9 -20 15 -50t6 -57q0 -61 -19 -106t-58.5 -69.5t-102.5 -24.5q-21 0 -41 3.5t-37 8.5q-6 -9 -11.5 -19t-5.5 -21t12 -18t40 -10l122 -12q71 -7 105 -44.5t34 -101.5q0 -52 -23.5 -87t-73 -53t-128.5 -18zM237 -88q56 0 84 11t28 40q0 16 -7 26t-25 16.5t-51 9.5
l-99 9q-11 -9 -19.5 -18.5t-13.5 -20.5t-5 -23q0 -25 24 -37.5t84 -12.5zM229 269q18 0 29 6.5t17 21t8 36.5t2 51t-2 51t-7.5 37t-16.5 22t-30 7q-18 0 -29.5 -7t-17 -21.5t-8 -36.5t-2.5 -52q0 -28 2 -49.5t8 -36t17.5 -22t29.5 -7.5zM236 642q-72 0 -108.5 39.5
t-36.5 106.5h78q0 -36 15 -55t52 -19q36 0 51 19.5t15 54.5h78q0 -67 -36.5 -106.5t-107.5 -39.5z" />
    <glyph glyph-name="Gdotaccent" unicode="&#x120;" horiz-adv-x="559" 
d="M264 -11q-80 0 -127 34t-67.5 96.5t-20.5 147.5v272q0 87 20 150t70.5 96.5t139.5 33.5q83 0 132 -28t70.5 -80.5t21.5 -127.5v-42h-141v46q0 39 -5.5 67t-22 42.5t-53.5 14.5q-39 0 -56.5 -19t-22 -50t-4.5 -68v-339q0 -42 7 -73t26 -47.5t54 -16.5q36 0 55 18t26.5 50
t7.5 76v76h-87v93h220v-411h-95l-11 80q-16 -40 -48.5 -65.5t-88.5 -25.5zM214 893v137h132v-137h-132z" />
    <glyph glyph-name="gdotaccent" unicode="&#x121;" horiz-adv-x="469" 
d="M222 -190q-59 0 -104 12t-70 37t-25 65q0 27 11.5 48.5t31.5 37.5t43 27q-33 9 -50.5 29t-17.5 48q0 34 17 58t47 51q-31 25 -46.5 62.5t-15.5 98.5q0 66 21.5 111.5t63 68.5t101.5 23q46 0 77 -13.5t51 -40.5q8 12 28 30t46 30l18 8l33 -73q-11 -3 -29.5 -10t-36.5 -15
t-28 -14q9 -20 15 -50t6 -57q0 -61 -19 -106t-58.5 -69.5t-102.5 -24.5q-21 0 -41 3.5t-37 8.5q-6 -9 -11.5 -19t-5.5 -21t12 -18t40 -10l122 -12q71 -7 105 -44.5t34 -101.5q0 -52 -23.5 -87t-73 -53t-128.5 -18zM237 -88q56 0 84 11t28 40q0 16 -7 26t-25 16.5t-51 9.5
l-99 9q-11 -9 -19.5 -18.5t-13.5 -20.5t-5 -23q0 -25 24 -37.5t84 -12.5zM229 269q18 0 29 6.5t17 21t8 36.5t2 51t-2 51t-7.5 37t-16.5 22t-30 7q-18 0 -29.5 -7t-17 -21.5t-8 -36.5t-2.5 -52q0 -28 2 -49.5t8 -36t17.5 -22t29.5 -7.5zM169 661v137h132v-137h-132z" />
    <glyph glyph-name="uni0122" unicode="&#x122;" horiz-adv-x="559" 
d="M264 -11q-80 0 -127 34t-67.5 96.5t-20.5 147.5v272q0 87 20 150t70.5 96.5t139.5 33.5q83 0 132 -28t70.5 -80.5t21.5 -127.5v-42h-141v46q0 39 -5.5 67t-22 42.5t-53.5 14.5q-39 0 -56.5 -19t-22 -50t-4.5 -68v-339q0 -42 7 -73t26 -47.5t54 -16.5q36 0 55 18t26.5 50
t7.5 76v76h-87v93h220v-411h-95l-11 80q-16 -40 -48.5 -65.5t-88.5 -25.5zM241 -322l-20 53q29 4 46.5 20t17.5 52h-71v131h132l-1 -117q0 -63 -22.5 -100t-81.5 -39z" />
    <glyph glyph-name="uni0123" unicode="&#x123;" horiz-adv-x="469" 
d="M222 -190q-59 0 -104 12t-70 37t-25 65q0 27 11.5 48.5t31.5 37.5t43 27q-33 9 -50.5 29t-17.5 48q0 34 17 58t47 51q-31 25 -46.5 62.5t-15.5 98.5q0 66 21.5 111.5t63 68.5t101.5 23q46 0 77 -13.5t51 -40.5q8 12 28 30t46 30l18 8l33 -73q-11 -3 -29.5 -10t-36.5 -15
t-28 -14q9 -20 15 -50t6 -57q0 -61 -19 -106t-58.5 -69.5t-102.5 -24.5q-21 0 -41 3.5t-37 8.5q-6 -9 -11.5 -19t-5.5 -21t12 -18t40 -10l122 -12q71 -7 105 -44.5t34 -101.5q0 -52 -23.5 -87t-73 -53t-128.5 -18zM237 -88q56 0 84 11t28 40q0 16 -7 26t-25 16.5t-51 9.5
l-99 9q-11 -9 -19.5 -18.5t-13.5 -20.5t-5 -23q0 -25 24 -37.5t84 -12.5zM229 269q18 0 29 6.5t17 21t8 36.5t2 51t-2 51t-7.5 37t-16.5 22t-30 7q-18 0 -29.5 -7t-17 -21.5t-8 -36.5t-2.5 -52q0 -28 2 -49.5t8 -36t17.5 -22t29.5 -7.5zM274 899l20 -53q-29 -4 -46.5 -20
t-17.5 -52h71v-131h-132l1 117q0 63 22.5 100t81.5 39z" />
    <glyph glyph-name="Hcircumflex" unicode="&#x124;" horiz-adv-x="586" 
d="M63 0v810h147v-339h165v339h148v-810h-148v366h-165v-366h-147zM141 874l90 184h122l92 -184h-101l-52 120l-51 -120h-100z" />
    <glyph glyph-name="hcircumflex" unicode="&#x125;" horiz-adv-x="478" 
d="M54 0v810h136v-287q30 30 65.5 47t77.5 17q35 0 56 -17.5t31 -46.5t10 -63v-460h-136v433q0 26 -8 40t-31 14q-14 0 -31.5 -8t-33.5 -21v-458h-136zM-30 874l90 184h122l92 -184h-101l-52 120l-51 -120h-100z" />
    <glyph glyph-name="Hbar" unicode="&#x126;" horiz-adv-x="550" 
d="M50 0v617h-49v57h49v136h147v-136h161v136h148v-136h43v-57h-43v-617h-148v366h-161v-366h-147zM197 471h161v146h-161v-146z" />
    <glyph glyph-name="hbar" unicode="&#x127;" horiz-adv-x="479" 
d="M54 0v680h-54v68h54v62h136v-62h120v-68h-120v-157q31 30 66.5 47t76.5 17q35 0 56 -17.5t31 -46.5t10 -63v-460h-136v433q0 26 -7.5 40t-31.5 14q-14 0 -31 -8t-34 -21v-458h-136z" />
    <glyph glyph-name="Itilde" unicode="&#x128;" horiz-adv-x="275" 
d="M65 0v810h146v-810h-146zM216 915q-27 0 -48 12.5t-40 24t-40 11.5q-20 0 -27.5 -10.5t-7.5 -30.5h-70q0 36 7.5 64.5t26.5 45t51 16.5q25 0 45 -11.5t39.5 -23t40.5 -11.5q17 0 24.5 10t7.5 30h66q0 -31 -5 -60t-21.5 -48t-48.5 -19z" />
    <glyph glyph-name="itilde" unicode="&#x129;" horiz-adv-x="253" 
d="M60 0v578h136v-578h-136zM207 683q-27 0 -48 12.5t-40 24t-40 11.5q-20 0 -27.5 -10.5t-7.5 -30.5h-70q0 36 7.5 64.5t26.5 45t51 16.5q25 0 45 -11.5t39.5 -23t40.5 -11.5q17 0 24.5 10t7.5 30h66q0 -31 -5 -60t-21.5 -48t-48.5 -19z" />
    <glyph glyph-name="Imacron" unicode="&#x12a;" horiz-adv-x="275" 
d="M65 0v810h146v-810h-146zM19 907v71h236v-71h-236z" />
    <glyph glyph-name="imacron" unicode="&#x12b;" horiz-adv-x="253" 
d="M60 0v578h136v-578h-136zM10 675v71h236v-71h-236z" />
    <glyph glyph-name="Ibreve" unicode="&#x12c;" horiz-adv-x="275" 
d="M65 0v810h146v-810h-146zM138 874q-72 0 -108.5 39.5t-36.5 106.5h78q0 -36 15 -55t52 -19q36 0 51 19.5t15 54.5h78q0 -67 -36.5 -106.5t-107.5 -39.5z" />
    <glyph glyph-name="ibreve" unicode="&#x12d;" horiz-adv-x="253" 
d="M60 0v578h136v-578h-136zM129 642q-72 0 -108.5 39.5t-36.5 106.5h78q0 -36 15 -55t52 -19q36 0 51 19.5t15 54.5h78q0 -67 -36.5 -106.5t-107.5 -39.5z" />
    <glyph glyph-name="Iogonek" unicode="&#x12e;" horiz-adv-x="275" 
d="M65 0v810h146v-810h-146zM162 -246q-26 0 -52.5 3.5t-48.5 13.5t-35 29t-13 51q0 30 14 59t35.5 53t44.5 37h64q-14 -17 -27.5 -37.5t-23 -43t-9.5 -44.5q0 -32 23 -43t49 -11q8 0 16.5 0.5t14.5 1.5l-17 -66q-7 -1 -16.5 -2t-18.5 -1z" />
    <glyph glyph-name="iogonek" unicode="&#x12f;" horiz-adv-x="248" 
d="M56 0v578h136v-578h-136zM56 670v113h136v-113h-136zM149 -246q-26 0 -52.5 3.5t-48.5 13.5t-35 29t-13 51q0 30 14 59t35.5 53t44.5 37h64q-14 -17 -27.5 -37.5t-23 -43t-9.5 -44.5q0 -32 23 -43t49 -11q8 0 16.5 0.5t14.5 1.5l-17 -66q-7 -1 -16.5 -2t-18.5 -1z" />
    <glyph glyph-name="Idotaccent" unicode="&#x130;" horiz-adv-x="275" 
d="M65 0v810h146v-810h-146zM71 893v137h132v-137h-132z" />
    <glyph glyph-name="dotlessi" unicode="&#x131;" horiz-adv-x="253" 
d="M60 0v578h136v-578h-136z" />
    <glyph glyph-name="IJ" unicode="&#x132;" horiz-adv-x="601" 
d="M65 0v810h146v-810h-146zM285 -20v104q32 0 53 4t32.5 14.5t16.5 31t5 52.5v624h147v-630q0 -68 -16 -112.5t-55.5 -66t-111.5 -21.5h-71z" />
    <glyph glyph-name="ij" unicode="&#x133;" horiz-adv-x="502" 
d="M56 0v578h136v-578h-136zM56 670v113h136v-113h-136zM306 -164q-18 0 -37 3t-35 8v97q6 -1 14.5 -2t14.5 -1q18 0 29 7t16.5 20t5.5 32v578h136v-594q0 -68 -37.5 -108t-106.5 -40zM314 670v113h137v-113h-137z" />
    <glyph glyph-name="Jcircumflex" unicode="&#x134;" horiz-adv-x="326" 
d="M10 -20v104q32 0 53 4t32.5 14.5t16.5 31t5 52.5v624h147v-630q0 -68 -16 -112.5t-55.5 -66t-111.5 -21.5h-71zM39 874l90 184h122l92 -184h-101l-52 120l-51 -120h-100z" />
    <glyph glyph-name="jcircumflex" unicode="&#x135;" horiz-adv-x="254" 
d="M58 -164q-18 0 -37 3t-35 8v97q6 -1 14.5 -2t14.5 -1q18 0 29 7t16.5 20t5.5 32v578h136v-594q0 -68 -37.5 -108t-106.5 -40zM-17 642l90 184h122l92 -184h-101l-52 120l-51 -120h-100z" />
    <glyph glyph-name="uni0136" unicode="&#x136;" horiz-adv-x="532" 
d="M61 0v810h148v-356l160 356h141l-155 -362l171 -448h-147l-136 369l-34 -62v-307h-148zM228 -322l-20 53q29 4 46.5 20t17.5 52h-71v131h132l-1 -117q0 -63 -22.5 -100t-81.5 -39z" />
    <glyph glyph-name="uni0137" unicode="&#x137;" horiz-adv-x="487" 
d="M53 0v810h136v-465l149 233h148l-145 -232l142 -346h-143l-105 285l-46 -64v-221h-136zM205 -322l-20 53q29 4 46.5 20t17.5 52h-71v131h132l-1 -117q0 -63 -22.5 -100t-81.5 -39z" />
    <glyph glyph-name="kgreenlandic" unicode="&#x138;" horiz-adv-x="470" 
d="M54 0v578h136v-247l131 247h143l-125 -240l126 -338h-140l-94 275l-41 -60v-215h-136z" />
    <glyph glyph-name="Lacute" unicode="&#x139;" horiz-adv-x="421" 
d="M61 0v810h148v-708h196v-102h-344zM94 866l61 200h137l-119 -200h-79z" />
    <glyph glyph-name="lacute" unicode="&#x13a;" horiz-adv-x="252" 
d="M61 0v810h135v-810h-135zM88 866l61 200h137l-119 -200h-79z" />
    <glyph glyph-name="uni013B" unicode="&#x13b;" horiz-adv-x="421" 
d="M61 0v810h148v-708h196v-102h-344zM194 -322l-20 53q29 4 46.5 20t17.5 52h-71v131h132l-1 -117q0 -63 -22.5 -100t-81.5 -39z" />
    <glyph glyph-name="uni013C" unicode="&#x13c;" horiz-adv-x="252" 
d="M61 0v810h135v-810h-135zM90 -322l-20 53q29 4 46.5 20t17.5 52h-71v131h132l-1 -117q0 -63 -22.5 -100t-81.5 -39z" />
    <glyph glyph-name="Lcaron" unicode="&#x13d;" horiz-adv-x="421" 
d="M61 0v810h148v-708h196v-102h-344zM308 539l-14 50q27 8 46 28.5t19 57.5h-72v135h133v-124q0 -63 -28 -99.5t-84 -47.5z" />
    <glyph glyph-name="lcaron" unicode="&#x13e;" horiz-adv-x="360" 
d="M61 0v810h135v-810h-135zM266 539l-14 50q27 8 46 28.5t19 57.5h-72v135h133v-124q0 -63 -28 -99.5t-84 -47.5z" />
    <glyph glyph-name="Ldot" unicode="&#x13f;" horiz-adv-x="421" 
d="M61 0v810h148v-708h196v-102h-344zM298 380v131h95v-131h-95z" />
    <glyph glyph-name="ldot" unicode="&#x140;" horiz-adv-x="325" 
d="M61 0v810h135v-810h-135zM243 374v131h95v-131h-95z" />
    <glyph glyph-name="Lslash" unicode="&#x141;" horiz-adv-x="424" 
d="M66 0v367l-65 -33v93l65 33v350h147v-276l101 52v-93l-101 -52v-339h196v-102h-343z" />
    <glyph glyph-name="lslash" unicode="&#x142;" horiz-adv-x="302" 
d="M86 0v415l-67 -31v88l67 30v308h135v-249l70 32v-87l-70 -31v-475h-135z" />
    <glyph glyph-name="Nacute" unicode="&#x143;" horiz-adv-x="545" 
d="M61 0v810h103l197 -462v462h122v-810h-98l-198 484v-484h-126zM231 866l61 200h137l-119 -200h-79z" />
    <glyph glyph-name="nacute" unicode="&#x144;" horiz-adv-x="474" 
d="M52 0v578h136v-58q31 30 65.5 48.5t74.5 18.5q36 0 57 -17.5t31 -46.5t10 -63v-460h-136v433q0 26 -8 40t-31 14q-14 0 -30.5 -8t-32.5 -20v-459h-136zM197 634l61 200h137l-119 -200h-79z" />
    <glyph glyph-name="uni0145" unicode="&#x145;" horiz-adv-x="545" 
d="M61 0v810h103l197 -462v462h122v-810h-98l-198 484v-484h-126zM233 -322l-20 53q29 4 46.5 20t17.5 52h-71v131h132l-1 -117q0 -63 -22.5 -100t-81.5 -39z" />
    <glyph glyph-name="uni0146" unicode="&#x146;" horiz-adv-x="474" 
d="M52 0v578h136v-58q31 30 65.5 48.5t74.5 18.5q36 0 57 -17.5t31 -46.5t10 -63v-460h-136v433q0 26 -8 40t-31 14q-14 0 -30.5 -8t-32.5 -20v-459h-136zM199 -322l-20 53q29 4 46.5 20t17.5 52h-71v131h132l-1 -117q0 -63 -22.5 -100t-81.5 -39z" />
    <glyph glyph-name="Ncaron" unicode="&#x147;" horiz-adv-x="545" 
d="M61 0v810h103l197 -462v462h122v-810h-98l-198 484v-484h-126zM206 870l-88 180h100l54 -113l54 113h100l-88 -180h-132z" />
    <glyph glyph-name="ncaron" unicode="&#x148;" horiz-adv-x="474" 
d="M52 0v578h136v-58q31 30 65.5 48.5t74.5 18.5q36 0 57 -17.5t31 -46.5t10 -63v-460h-136v433q0 26 -8 40t-31 14q-14 0 -30.5 -8t-32.5 -20v-459h-136zM172 638l-88 180h100l54 -113l54 113h100l-88 -180h-132z" />
    <glyph glyph-name="napostrophe" unicode="&#x149;" horiz-adv-x="544" 
d="M43 616l-14 50q27 8 46 28.5t19 57.5h-72v135h133v-123q0 -64 -28 -100.5t-84 -47.5zM134 0v578h136v-58q31 30 65.5 48.5t74.5 18.5q36 0 57 -17.5t31 -46.5t10 -63v-460h-136v433q0 26 -8 40t-31 14q-14 0 -30.5 -8t-32.5 -20v-459h-136z" />
    <glyph glyph-name="Eng" unicode="&#x14a;" horiz-adv-x="550" 
d="M256 -196v92q48 0 72 9t33 31.5t9 60.5v63l-185 424v-484h-122v810h103l200 -462v462h119v-810q0 -64 -14 -108t-51.5 -66t-107.5 -22h-56z" />
    <glyph glyph-name="eng" unicode="&#x14b;" horiz-adv-x="433" 
d="M166 -190v93q48 0 72.5 9t33.5 29t9 54v438q0 26 -7.5 40t-31.5 14q-14 0 -30.5 -8t-32.5 -20v-459h-136v578h136v-54q30 30 65 46.5t76 16.5q34 0 55.5 -17.5t31.5 -46.5t10 -63v-466q0 -64 -22.5 -104.5t-67.5 -60t-115 -19.5h-46z" />
    <glyph glyph-name="Omacron" unicode="&#x14c;" horiz-adv-x="563" 
d="M281 -11q-86 0 -137 32t-73 92t-22 142v303q0 82 22 140.5t73 89.5t137 31q88 0 138.5 -31t73 -89.5t22.5 -140.5v-304q0 -81 -22.5 -140.5t-73 -92t-138.5 -32.5zM281 98q37 0 54.5 16t23.5 44t6 61v373q0 34 -6 61t-23.5 42.5t-54.5 15.5q-35 0 -53 -15.5t-24 -42.5
t-6 -61v-373q0 -33 5.5 -61t23.5 -44t54 -16zM164 907v71h236v-71h-236z" />
    <glyph glyph-name="omacron" unicode="&#x14d;" horiz-adv-x="455" 
d="M227 -9q-63 0 -104 23.5t-61.5 68.5t-20.5 109v194q0 64 20.5 109t61.5 68.5t104 23.5t104.5 -23.5t62 -68.5t20.5 -109v-194q0 -64 -20.5 -109t-62 -68.5t-104.5 -23.5zM228 85q23 0 34 13t14 35.5t3 49.5v212q0 27 -3 49t-14 35.5t-34 13.5t-34 -13.5t-14.5 -35.5
t-3.5 -49v-212q0 -27 3.5 -49.5t14.5 -35.5t34 -13zM109 675v71h236v-71h-236z" />
    <glyph glyph-name="Obreve" unicode="&#x14e;" horiz-adv-x="563" 
d="M281 -11q-86 0 -137 32t-73 92t-22 142v303q0 82 22 140.5t73 89.5t137 31q88 0 138.5 -31t73 -89.5t22.5 -140.5v-304q0 -81 -22.5 -140.5t-73 -92t-138.5 -32.5zM281 98q37 0 54.5 16t23.5 44t6 61v373q0 34 -6 61t-23.5 42.5t-54.5 15.5q-35 0 -53 -15.5t-24 -42.5
t-6 -61v-373q0 -33 5.5 -61t23.5 -44t54 -16zM282 874q-72 0 -108.5 39.5t-36.5 106.5h78q0 -36 15 -55t52 -19q36 0 51 19.5t15 54.5h78q0 -67 -36.5 -106.5t-107.5 -39.5z" />
    <glyph glyph-name="obreve" unicode="&#x14f;" horiz-adv-x="455" 
d="M227 -9q-63 0 -104 23.5t-61.5 68.5t-20.5 109v194q0 64 20.5 109t61.5 68.5t104 23.5t104.5 -23.5t62 -68.5t20.5 -109v-194q0 -64 -20.5 -109t-62 -68.5t-104.5 -23.5zM228 85q23 0 34 13t14 35.5t3 49.5v212q0 27 -3 49t-14 35.5t-34 13.5t-34 -13.5t-14.5 -35.5
t-3.5 -49v-212q0 -27 3.5 -49.5t14.5 -35.5t34 -13zM228 642q-72 0 -108.5 39.5t-36.5 106.5h78q0 -36 15 -55t52 -19q36 0 51 19.5t15 54.5h78q0 -67 -36.5 -106.5t-107.5 -39.5z" />
    <glyph glyph-name="Ohungarumlaut" unicode="&#x150;" horiz-adv-x="563" 
d="M281 -11q-86 0 -137 32t-73 92t-22 142v303q0 82 22 140.5t73 89.5t137 31q88 0 138.5 -31t73 -89.5t22.5 -140.5v-304q0 -81 -22.5 -140.5t-73 -92t-138.5 -32.5zM281 98q37 0 54.5 16t23.5 44t6 61v373q0 34 -6 61t-23.5 42.5t-54.5 15.5q-35 0 -53 -15.5t-24 -42.5
t-6 -61v-373q0 -33 5.5 -61t23.5 -44t54 -16zM323 868l61 195h125l-116 -195h-70zM170 868l50 195h111l-91 -195h-70z" />
    <glyph glyph-name="ohungarumlaut" unicode="&#x151;" horiz-adv-x="455" 
d="M227 -9q-63 0 -104 23.5t-61.5 68.5t-20.5 109v194q0 64 20.5 109t61.5 68.5t104 23.5t104.5 -23.5t62 -68.5t20.5 -109v-194q0 -64 -20.5 -109t-62 -68.5t-104.5 -23.5zM228 85q23 0 34 13t14 35.5t3 49.5v212q0 27 -3 49t-14 35.5t-34 13.5t-34 -13.5t-14.5 -35.5
t-3.5 -49v-212q0 -27 3.5 -49.5t14.5 -35.5t34 -13zM268 636l61 195h125l-116 -195h-70zM115 636l50 195h111l-91 -195h-70z" />
    <glyph glyph-name="OE" unicode="&#x152;" horiz-adv-x="701" 
d="M292 0q-91 0 -144.5 31t-76 90t-22.5 142v270q0 84 22.5 146t74.5 95.5t141 33.5h386v-103h-182v-235h141v-103h-141v-265h184v-102h-383zM293 105h52v599h-53q-46 0 -66.5 -21.5t-25 -59t-4.5 -84.5v-288q0 -44 6 -77.5t26.5 -51t64.5 -17.5z" />
    <glyph glyph-name="oe" unicode="&#x153;" horiz-adv-x="695" 
d="M218 -11q-55 0 -93 23t-57 67.5t-19 108.5v213q0 63 18.5 105.5t57 65t95.5 22.5q30 0 56 -8.5t46 -24t30 -38.5q10 24 31 39.5t48 23.5t55 8q64 0 100 -27t50 -77t14 -119v-87h-227v-70q0 -35 3.5 -64.5t15 -47t33.5 -17.5q24 0 34 18.5t10 52.5v58h131v-57
q0 -82 -40 -125t-120 -43q-53 0 -88.5 19.5t-51.5 52.5q-16 -31 -47.5 -51.5t-84.5 -20.5zM232 85q22 0 33 12t15 34.5t4 53.5v220q0 28 -4 49.5t-14.5 34t-32.5 12.5q-20 0 -31 -12.5t-15 -34t-4 -49.5v-219q0 -28 3.5 -51t14 -36.5t31.5 -13.5zM423 355h97v57
q0 23 -4 43.5t-14 33t-31 12.5q-18 0 -28.5 -12t-15 -32t-4.5 -45v-57z" />
    <glyph glyph-name="Racute" unicode="&#x154;" horiz-adv-x="561" 
d="M61 0v810h194q82 0 138.5 -19.5t86 -66.5t29.5 -128q0 -49 -9 -88t-30.5 -66.5t-59.5 -42.5l113 -399h-148l-98 371h-68v-371h-148zM209 464h46q43 0 68.5 12.5t36.5 40t11 70.5q0 61 -22.5 91.5t-85.5 30.5h-54v-245zM240 866l61 200h137l-119 -200h-79z" />
    <glyph glyph-name="racute" unicode="&#x155;" horiz-adv-x="353" 
d="M55 0v578h136v-89q30 51 60 73.5t66 22.5q6 0 10.5 -0.5t10.5 -1.5v-141q-12 5 -26.5 8.5t-29.5 3.5q-27 0 -49 -13t-42 -43v-398h-136zM150 634l61 200h137l-119 -200h-79z" />
    <glyph glyph-name="uni0156" unicode="&#x156;" horiz-adv-x="561" 
d="M61 0v810h194q82 0 138.5 -19.5t86 -66.5t29.5 -128q0 -49 -9 -88t-30.5 -66.5t-59.5 -42.5l113 -399h-148l-98 371h-68v-371h-148zM209 464h46q43 0 68.5 12.5t36.5 40t11 70.5q0 61 -22.5 91.5t-85.5 30.5h-54v-245zM242 -322l-20 53q29 4 46.5 20t17.5 52h-71v131h132
l-1 -117q0 -63 -22.5 -100t-81.5 -39z" />
    <glyph glyph-name="uni0157" unicode="&#x157;" horiz-adv-x="353" 
d="M55 0v578h136v-89q30 51 60 73.5t66 22.5q6 0 10.5 -0.5t10.5 -1.5v-141q-12 5 -26.5 8.5t-29.5 3.5q-27 0 -49 -13t-42 -43v-398h-136zM84 -322l-20 53q29 4 46.5 20t17.5 52h-71v131h132l-1 -117q0 -63 -22.5 -100t-81.5 -39z" />
    <glyph glyph-name="Rcaron" unicode="&#x158;" horiz-adv-x="561" 
d="M61 0v810h194q82 0 138.5 -19.5t86 -66.5t29.5 -128q0 -49 -9 -88t-30.5 -66.5t-59.5 -42.5l113 -399h-148l-98 371h-68v-371h-148zM209 464h46q43 0 68.5 12.5t36.5 40t11 70.5q0 61 -22.5 91.5t-85.5 30.5h-54v-245zM215 870l-88 180h100l54 -113l54 113h100l-88 -180
h-132z" />
    <glyph glyph-name="rcaron" unicode="&#x159;" horiz-adv-x="353" 
d="M55 0v578h136v-89q30 51 60 73.5t66 22.5q6 0 10.5 -0.5t10.5 -1.5v-141q-12 5 -26.5 8.5t-29.5 3.5q-27 0 -49 -13t-42 -43v-398h-136zM125 638l-88 180h100l54 -113l54 113h100l-88 -180h-132z" />
    <glyph glyph-name="Sacute" unicode="&#x15a;" horiz-adv-x="494" 
d="M265 -11q-73 0 -122 28.5t-74 83.5t-28 135l127 25q2 -47 11.5 -83t29 -55.5t51.5 -19.5q36 0 51 21.5t15 54.5q0 53 -24 87t-64 68l-102 90q-43 37 -68.5 82.5t-25.5 112.5q0 96 56 148t153 52q57 0 95 -17.5t60.5 -48.5t33.5 -70.5t14 -83.5l-126 -22q-2 38 -8.5 68
t-23 47t-48.5 17q-33 0 -50.5 -21.5t-17.5 -53.5q0 -41 17 -67.5t49 -54.5l101 -89q50 -42 85.5 -98.5t35.5 -136.5q0 -58 -25.5 -103t-71 -70.5t-106.5 -25.5zM206 866l61 200h137l-119 -200h-79z" />
    <glyph glyph-name="sacute" unicode="&#x15b;" horiz-adv-x="400" 
d="M209 -9q-73 0 -120 39t-67 114l101 39q12 -47 32 -72t52 -25q24 0 36 12t12 33q0 24 -14.5 43.5t-49.5 48.5l-70 59q-38 33 -61.5 67.5t-23.5 86.5q0 47 21.5 80.5t59 52t83.5 18.5q70 0 112.5 -41.5t54.5 -108.5l-89 -38q-5 24 -14.5 44.5t-24.5 33.5t-35 13
q-21 0 -33.5 -13t-12.5 -33q0 -17 14.5 -35t41.5 -41l71 -64q23 -20 44 -43t35 -51.5t14 -65.5q0 -50 -22.5 -84t-61 -51.5t-85.5 -17.5zM159 634l61 200h137l-119 -200h-79z" />
    <glyph glyph-name="Scircumflex" unicode="&#x15c;" horiz-adv-x="494" 
d="M265 -11q-73 0 -122 28.5t-74 83.5t-28 135l127 25q2 -47 11.5 -83t29 -55.5t51.5 -19.5q36 0 51 21.5t15 54.5q0 53 -24 87t-64 68l-102 90q-43 37 -68.5 82.5t-25.5 112.5q0 96 56 148t153 52q57 0 95 -17.5t60.5 -48.5t33.5 -70.5t14 -83.5l-126 -22q-2 38 -8.5 68
t-23 47t-48.5 17q-33 0 -50.5 -21.5t-17.5 -53.5q0 -41 17 -67.5t49 -54.5l101 -89q50 -42 85.5 -98.5t35.5 -136.5q0 -58 -25.5 -103t-71 -70.5t-106.5 -25.5zM95 874l90 184h122l92 -184h-101l-52 120l-51 -120h-100z" />
    <glyph glyph-name="scircumflex" unicode="&#x15d;" horiz-adv-x="400" 
d="M209 -9q-73 0 -120 39t-67 114l101 39q12 -47 32 -72t52 -25q24 0 36 12t12 33q0 24 -14.5 43.5t-49.5 48.5l-70 59q-38 33 -61.5 67.5t-23.5 86.5q0 47 21.5 80.5t59 52t83.5 18.5q70 0 112.5 -41.5t54.5 -108.5l-89 -38q-5 24 -14.5 44.5t-24.5 33.5t-35 13
q-21 0 -33.5 -13t-12.5 -33q0 -17 14.5 -35t41.5 -41l71 -64q23 -20 44 -43t35 -51.5t14 -65.5q0 -50 -22.5 -84t-61 -51.5t-85.5 -17.5zM48 642l90 184h122l92 -184h-101l-52 120l-51 -120h-100z" />
    <glyph glyph-name="Scedilla" unicode="&#x15e;" horiz-adv-x="494" 
d="M265 -11q-73 0 -122 28.5t-74 83.5t-28 135l127 25q2 -47 11.5 -83t29 -55.5t51.5 -19.5q36 0 51 21.5t15 54.5q0 53 -24 87t-64 68l-102 90q-43 37 -68.5 82.5t-25.5 112.5q0 96 56 148t153 52q57 0 95 -17.5t60.5 -48.5t33.5 -70.5t14 -83.5l-126 -22q-2 38 -8.5 68
t-23 47t-48.5 17q-33 0 -50.5 -21.5t-17.5 -53.5q0 -41 17 -67.5t49 -54.5l101 -89q50 -42 85.5 -98.5t35.5 -136.5q0 -58 -25.5 -103t-71 -70.5t-106.5 -25.5zM264 -257q-18 0 -36.5 3t-35.5 8v63q12 -4 26 -6t28 -2q26 0 44 8.5t18 28.5q0 19 -12.5 29.5t-32.5 16.5t-44 8
v100h57v-61q56 0 90 -24.5t34 -70.5q0 -36 -18.5 -58t-49.5 -32.5t-68 -10.5z" />
    <glyph glyph-name="scedilla" unicode="&#x15f;" horiz-adv-x="400" 
d="M209 -9q-73 0 -120 39t-67 114l101 39q12 -47 32 -72t52 -25q24 0 36 12t12 33q0 24 -14.5 43.5t-49.5 48.5l-70 59q-38 33 -61.5 67.5t-23.5 86.5q0 47 21.5 80.5t59 52t83.5 18.5q70 0 112.5 -41.5t54.5 -108.5l-89 -38q-5 24 -14.5 44.5t-24.5 33.5t-35 13
q-21 0 -33.5 -13t-12.5 -33q0 -17 14.5 -35t41.5 -41l71 -64q23 -20 44 -43t35 -51.5t14 -65.5q0 -50 -22.5 -84t-61 -51.5t-85.5 -17.5zM217 -257q-18 0 -36.5 3t-35.5 8v63q12 -4 26 -6t28 -2q26 0 44 8.5t18 28.5q0 19 -12.5 29.5t-32.5 16.5t-44 8v100h57v-61
q56 0 90 -24.5t34 -70.5q0 -36 -18.5 -58t-49.5 -32.5t-68 -10.5z" />
    <glyph glyph-name="Scaron" unicode="&#x160;" horiz-adv-x="494" 
d="M265 -11q-73 0 -122 28.5t-74 83.5t-28 135l127 25q2 -47 11.5 -83t29 -55.5t51.5 -19.5q36 0 51 21.5t15 54.5q0 53 -24 87t-64 68l-102 90q-43 37 -68.5 82.5t-25.5 112.5q0 96 56 148t153 52q57 0 95 -17.5t60.5 -48.5t33.5 -70.5t14 -83.5l-126 -22q-2 38 -8.5 68
t-23 47t-48.5 17q-33 0 -50.5 -21.5t-17.5 -53.5q0 -41 17 -67.5t49 -54.5l101 -89q50 -42 85.5 -98.5t35.5 -136.5q0 -58 -25.5 -103t-71 -70.5t-106.5 -25.5zM181 870l-88 180h100l54 -113l54 113h100l-88 -180h-132z" />
    <glyph glyph-name="scaron" unicode="&#x161;" horiz-adv-x="400" 
d="M209 -9q-73 0 -120 39t-67 114l101 39q12 -47 32 -72t52 -25q24 0 36 12t12 33q0 24 -14.5 43.5t-49.5 48.5l-70 59q-38 33 -61.5 67.5t-23.5 86.5q0 47 21.5 80.5t59 52t83.5 18.5q70 0 112.5 -41.5t54.5 -108.5l-89 -38q-5 24 -14.5 44.5t-24.5 33.5t-35 13
q-21 0 -33.5 -13t-12.5 -33q0 -17 14.5 -35t41.5 -41l71 -64q23 -20 44 -43t35 -51.5t14 -65.5q0 -50 -22.5 -84t-61 -51.5t-85.5 -17.5zM134 638l-88 180h100l54 -113l54 113h100l-88 -180h-132z" />
    <glyph glyph-name="uni0162" unicode="&#x162;" horiz-adv-x="422" 
d="M142 0v701h-129v109h404v-109h-127v-701h-148zM228 -257q-18 0 -36.5 3t-35.5 8v63q12 -4 26 -6t28 -2q26 0 44 8.5t18 28.5q0 19 -12.5 29.5t-32.5 16.5t-44 8v100h57v-61q56 0 90 -24.5t34 -70.5q0 -36 -18.5 -58t-49.5 -32.5t-68 -10.5z" />
    <glyph glyph-name="uni0163" unicode="&#x163;" horiz-adv-x="332" 
d="M219 -7q-55 0 -86.5 18t-44.5 52t-13 81v344h-58v90h58v173h137v-173h88v-90h-88v-332q0 -30 13 -42.5t39 -12.5q11 0 21.5 1t20.5 2v-104q-17 -2 -39.5 -4.5t-47.5 -2.5zM230 -257q-18 0 -36.5 3t-35.5 8v63q12 -4 26 -6t28 -2q26 0 44 8.5t18 28.5q0 19 -12.5 29.5
t-32.5 16.5t-44 8v100h57v-61q56 0 90 -24.5t34 -70.5q0 -36 -18.5 -58t-49.5 -32.5t-68 -10.5z" />
    <glyph glyph-name="Tcaron" unicode="&#x164;" horiz-adv-x="422" 
d="M142 0v701h-129v109h404v-109h-127v-701h-148zM145 870l-88 180h100l54 -113l54 113h100l-88 -180h-132z" />
    <glyph glyph-name="tcaron" unicode="&#x165;" horiz-adv-x="385" 
d="M219 -7q-55 0 -86.5 18t-44.5 52t-13 81v344h-58v90h58v173h137v-173h88v-90h-88v-332q0 -30 13 -42.5t39 -12.5q11 0 21.5 1t20.5 2v-104q-17 -2 -39.5 -4.5t-47.5 -2.5zM277 622l-14 50q27 8 46 28.5t19 57.5h-72v135h133v-124q0 -63 -28 -99.5t-84 -47.5z" />
    <glyph glyph-name="Tbar" unicode="&#x166;" horiz-adv-x="424" 
d="M44 380v76h339v-76h-339zM142 0v701h-129v109h404v-109h-127v-701h-148z" />
    <glyph glyph-name="tbar" unicode="&#x167;" horiz-adv-x="292" 
d="M19 321v63h284v-63h-284zM219 -7q-55 0 -86.5 18t-44.5 52t-13 81v344h-58v90h58v173h137v-173h88v-90h-88v-332q0 -30 13 -42.5t39 -12.5q11 0 21.5 1t20.5 2v-104q-17 -2 -39.5 -4.5t-47.5 -2.5z" />
    <glyph glyph-name="Utilde" unicode="&#x168;" horiz-adv-x="566" 
d="M283 -11q-90 0 -140 33t-69 94t-19 146v548h144v-565q0 -38 5 -71.5t23.5 -54t55.5 -20.5q39 0 56.5 20.5t23 54t5.5 71.5v565h143v-548q0 -85 -19 -146t-68.5 -94t-140.5 -33zM362 915q-27 0 -48 12.5t-40 24t-40 11.5q-20 0 -27.5 -10.5t-7.5 -30.5h-70q0 36 7.5 64.5
t26.5 45t51 16.5q25 0 45 -11.5t39.5 -23t40.5 -11.5q17 0 24.5 10t7.5 30h66q0 -31 -5 -60t-21.5 -48t-48.5 -19z" />
    <glyph glyph-name="utilde" unicode="&#x169;" horiz-adv-x="473" 
d="M145 -9q-34 0 -56 17.5t-32 47t-10 62.5v460h136v-435q0 -26 8.5 -40.5t31.5 -14.5q15 0 30.5 8t30.5 19v463h136v-578h-136v55q-29 -28 -64 -46t-75 -18zM316 683q-27 0 -48 12.5t-40 24t-40 11.5q-20 0 -27.5 -10.5t-7.5 -30.5h-70q0 36 7.5 64.5t26.5 45t51 16.5
q25 0 45 -11.5t39.5 -23t40.5 -11.5q17 0 24.5 10t7.5 30h66q0 -31 -5 -60t-21.5 -48t-48.5 -19z" />
    <glyph glyph-name="Umacron" unicode="&#x16a;" horiz-adv-x="566" 
d="M283 -11q-90 0 -140 33t-69 94t-19 146v548h144v-565q0 -38 5 -71.5t23.5 -54t55.5 -20.5q39 0 56.5 20.5t23 54t5.5 71.5v565h143v-548q0 -85 -19 -146t-68.5 -94t-140.5 -33zM165 907v71h236v-71h-236z" />
    <glyph glyph-name="umacron" unicode="&#x16b;" horiz-adv-x="473" 
d="M145 -9q-34 0 -56 17.5t-32 47t-10 62.5v460h136v-435q0 -26 8.5 -40.5t31.5 -14.5q15 0 30.5 8t30.5 19v463h136v-578h-136v55q-29 -28 -64 -46t-75 -18zM119 675v71h236v-71h-236z" />
    <glyph glyph-name="Ubreve" unicode="&#x16c;" horiz-adv-x="566" 
d="M283 -11q-90 0 -140 33t-69 94t-19 146v548h144v-565q0 -38 5 -71.5t23.5 -54t55.5 -20.5q39 0 56.5 20.5t23 54t5.5 71.5v565h143v-548q0 -85 -19 -146t-68.5 -94t-140.5 -33zM284 874q-72 0 -108.5 39.5t-36.5 106.5h78q0 -36 15 -55t52 -19q36 0 51 19.5t15 54.5h78
q0 -67 -36.5 -106.5t-107.5 -39.5z" />
    <glyph glyph-name="ubreve" unicode="&#x16d;" horiz-adv-x="473" 
d="M145 -9q-34 0 -56 17.5t-32 47t-10 62.5v460h136v-435q0 -26 8.5 -40.5t31.5 -14.5q15 0 30.5 8t30.5 19v463h136v-578h-136v55q-29 -28 -64 -46t-75 -18zM237 642q-72 0 -108.5 39.5t-36.5 106.5h78q0 -36 15 -55t52 -19q36 0 51 19.5t15 54.5h78q0 -67 -36.5 -106.5
t-107.5 -39.5z" />
    <glyph glyph-name="Uring" unicode="&#x16e;" horiz-adv-x="566" 
d="M283 -11q-90 0 -140 33t-69 94t-19 146v548h144v-565q0 -38 5 -71.5t23.5 -54t55.5 -20.5q39 0 56.5 20.5t23 54t5.5 71.5v565h143v-548q0 -85 -19 -146t-68.5 -94t-140.5 -33zM282 841q-48 0 -81 29t-33 82t33 81.5t81 28.5q49 0 82.5 -29t33.5 -81q0 -53 -33.5 -82
t-82.5 -29zM282 897q26 0 40 15.5t14 39.5q0 25 -14 40t-40 15q-25 0 -39 -15t-14 -40q0 -24 14 -39.5t39 -15.5z" />
    <glyph glyph-name="uring" unicode="&#x16f;" horiz-adv-x="473" 
d="M145 -9q-34 0 -56 17.5t-32 47t-10 62.5v460h136v-435q0 -26 8.5 -40.5t31.5 -14.5q15 0 30.5 8t30.5 19v463h136v-578h-136v55q-29 -28 -64 -46t-75 -18zM236 609q-48 0 -81 29t-33 82t33 81.5t81 28.5q49 0 82.5 -29t33.5 -81q0 -53 -33.5 -82t-82.5 -29zM236 665
q26 0 40 15.5t14 39.5q0 25 -14 40t-40 15q-25 0 -39 -15t-14 -40q0 -24 14 -39.5t39 -15.5z" />
    <glyph glyph-name="Uhungarumlaut" unicode="&#x170;" horiz-adv-x="566" 
d="M283 -11q-90 0 -140 33t-69 94t-19 146v548h144v-565q0 -38 5 -71.5t23.5 -54t55.5 -20.5q39 0 56.5 20.5t23 54t5.5 71.5v565h143v-548q0 -85 -19 -146t-68.5 -94t-140.5 -33zM324 868l61 195h125l-116 -195h-70zM171 868l50 195h111l-91 -195h-70z" />
    <glyph glyph-name="uhungarumlaut" unicode="&#x171;" horiz-adv-x="473" 
d="M145 -9q-34 0 -56 17.5t-32 47t-10 62.5v460h136v-435q0 -26 8.5 -40.5t31.5 -14.5q15 0 30.5 8t30.5 19v463h136v-578h-136v55q-29 -28 -64 -46t-75 -18zM278 636l61 195h125l-116 -195h-70zM125 636l50 195h111l-91 -195h-70z" />
    <glyph glyph-name="Uogonek" unicode="&#x172;" horiz-adv-x="566" 
d="M283 -11q-90 0 -140 33t-69 94t-19 146v548h144v-565q0 -38 5 -71.5t23.5 -54t55.5 -20.5q39 0 56.5 20.5t23 54t5.5 71.5v565h143v-548q0 -85 -19 -146t-68.5 -94t-140.5 -33zM340 -246q-26 0 -52.5 3.5t-48.5 13.5t-35 29t-13 51q0 30 14 59t35.5 53t44.5 37h64
q-14 -17 -27.5 -37.5t-23 -43t-9.5 -44.5q0 -32 23 -43t49 -11q8 0 16.5 0.5t14.5 1.5l-17 -66q-7 -1 -16.5 -2t-18.5 -1z" />
    <glyph glyph-name="uogonek" unicode="&#x173;" horiz-adv-x="473" 
d="M145 -9q-34 0 -56 17.5t-32 47t-10 62.5v460h136v-435q0 -26 8.5 -40.5t31.5 -14.5q15 0 30.5 8t30.5 19v463h136v-578h-136v55q-29 -28 -64 -46t-75 -18zM377 -246q-26 0 -52.5 3.5t-48.5 13.5t-35 29t-13 51q0 30 14 59t35.5 53t44.5 37h64q-14 -17 -27.5 -37.5
t-23 -43t-9.5 -44.5q0 -32 23 -43t49 -11q8 0 16.5 0.5t14.5 1.5l-17 -66q-7 -1 -16.5 -2t-18.5 -1z" />
    <glyph glyph-name="Wcircumflex" unicode="&#x174;" horiz-adv-x="712" 
d="M146 0l-115 810h124l67 -525l84 523h101l86 -523l66 525h122l-113 -810h-120l-90 543l-89 -543h-123zM205 874l90 184h122l92 -184h-101l-52 120l-51 -120h-100z" />
    <glyph glyph-name="wcircumflex" unicode="&#x175;" horiz-adv-x="593" 
d="M113 0l-89 578h113l51 -375l60 375h101l57 -379l55 379h107l-91 -578h-115l-64 365l-67 -365h-118zM145 642l90 184h122l92 -184h-101l-52 120l-51 -120h-100z" />
    <glyph glyph-name="Ycircumflex" unicode="&#x176;" horiz-adv-x="487" 
d="M174 0v309l-164 501h138l100 -321l94 321h135l-162 -501v-309h-141zM92 874l90 184h122l92 -184h-101l-52 120l-51 -120h-100z" />
    <glyph glyph-name="ycircumflex" unicode="&#x177;" horiz-adv-x="421" 
d="M56 -157v98q35 0 57 4t32 14t10 28q0 13 -6.5 41t-14.5 61l-127 489h132l75 -381l65 381h131l-135 -601q-11 -51 -37 -80t-65 -41.5t-91 -12.5h-26zM58 642l90 184h122l92 -184h-101l-52 120l-51 -120h-100z" />
    <glyph glyph-name="Ydieresis" unicode="&#x178;" horiz-adv-x="487" 
d="M174 0v309l-164 501h138l100 -321l94 321h135l-162 -501v-309h-141zM282 912v130h120v-130h-120zM86 912v130h120v-130h-120z" />
    <glyph glyph-name="Zacute" unicode="&#x179;" horiz-adv-x="425" 
d="M33 0v95l218 613h-206v102h355v-76l-226 -632h227v-102h-368zM172 866l61 200h137l-119 -200h-79z" />
    <glyph glyph-name="zacute" unicode="&#x17a;" horiz-adv-x="370" 
d="M34 0v89l167 389h-153v100h297v-79l-170 -398h169v-101h-310zM144 634l61 200h137l-119 -200h-79z" />
    <glyph glyph-name="Zdotaccent" unicode="&#x17b;" horiz-adv-x="425" 
d="M33 0v95l218 613h-206v102h355v-76l-226 -632h227v-102h-368zM147 893v137h132v-137h-132z" />
    <glyph glyph-name="zdotaccent" unicode="&#x17c;" horiz-adv-x="370" 
d="M34 0v89l167 389h-153v100h297v-79l-170 -398h169v-101h-310zM119 661v137h132v-137h-132z" />
    <glyph glyph-name="Zcaron" unicode="&#x17d;" horiz-adv-x="425" 
d="M33 0v95l218 613h-206v102h355v-76l-226 -632h227v-102h-368zM147 870l-88 180h100l54 -113l54 113h100l-88 -180h-132z" />
    <glyph glyph-name="zcaron" unicode="&#x17e;" horiz-adv-x="370" 
d="M34 0v89l167 389h-153v100h297v-79l-170 -398h169v-101h-310zM119 638l-88 180h100l54 -113l54 113h100l-88 -180h-132z" />
    <glyph glyph-name="longs" unicode="&#x17f;" horiz-adv-x="304" 
d="M80 0v483h-62v95h62v37q0 52 9.5 90.5t40 59.5t92.5 21q19 0 36 -1.5t38 -4.5v-101q-8 2 -18.5 3.5t-19.5 1.5q-24 0 -33 -15t-9 -44v-625h-136z" />
    <glyph glyph-name="uni018F" unicode="&#x18f;" horiz-adv-x="559" 
d="M279 -11q-80 0 -132 30t-77 87.5t-25 138.5v176h316v174q0 39 -7.5 65t-25.5 38.5t-51 12.5q-31 0 -49.5 -12.5t-26 -38.5t-7.5 -65v-93h-149v66q0 81 25 137t77 85t132 29q78 0 129 -30.5t77 -88t26 -137.5v-315q0 -80 -26 -138t-77 -89.5t-129 -31.5zM278 98
q32 0 50.5 13.5t25.5 39.5t7 64v107h-167v-107q0 -38 7.5 -64t26 -39.5t50.5 -13.5z" />
    <glyph glyph-name="florin" unicode="&#x192;" horiz-adv-x="422" 
d="M83 -150q-18 0 -34.5 1.5l-38.5 3.5l11 101q7 -1 17.5 -3t18.5 -2q26 0 36.5 15.5t14.5 43.5l49 471h-62v97h72l5 41q5 51 18.5 88.5t46.5 58t95 20.5q19 0 35 -1.5t37 -3.5l-10 -102q-8 2 -18 3.5t-18 1.5q-24 0 -35.5 -15t-14.5 -44l-5 -47h69v-97h-79l-50 -464
q-5 -51 -18.5 -88.5t-46 -58t-95.5 -20.5z" />
    <glyph glyph-name="Ohorn" unicode="&#x1a0;" horiz-adv-x="563" 
d="M281 -11q-86 0 -137 32t-73 92t-22 142v303q0 82 22 140.5t73 89.5t137 31q88 0 138.5 -31t73 -89.5t22.5 -140.5v-304q0 -81 -22.5 -140.5t-73 -92t-138.5 -32.5zM281 98q37 0 54.5 16t23.5 44t6 61v373q0 34 -6 61t-23.5 42.5t-54.5 15.5q-35 0 -53 -15.5t-24 -42.5
t-6 -61v-373q0 -33 5.5 -61t23.5 -44t54 -16zM329 749v61h20q30 0 42 20t12 60h99q0 -70 -41 -105.5t-111 -35.5h-21z" />
    <glyph glyph-name="ohorn" unicode="&#x1a1;" horiz-adv-x="455" 
d="M227 -9q-63 0 -104 23.5t-61.5 68.5t-20.5 109v194q0 64 20.5 109t61.5 68.5t104 23.5t104.5 -23.5t62 -68.5t20.5 -109v-194q0 -64 -20.5 -109t-62 -68.5t-104.5 -23.5zM228 85q23 0 34 13t14 35.5t3 49.5v212q0 27 -3 49t-14 35.5t-34 13.5t-34 -13.5t-14.5 -35.5
t-3.5 -49v-212q0 -27 3.5 -49.5t14.5 -35.5t34 -13zM251 517v61h10q30 0 42 20t12 60h99q0 -70 -41 -105.5t-111 -35.5h-11z" />
    <glyph glyph-name="Uhorn" unicode="&#x1af;" horiz-adv-x="566" 
d="M283 -11q-90 0 -140 33t-69 94t-19 146v548h144v-565q0 -38 5 -71.5t23.5 -54t55.5 -20.5q39 0 56.5 20.5t23 54t5.5 71.5v565h143v-548q0 -85 -19 -146t-68.5 -94t-140.5 -33zM419 749v61h10q30 0 42 20t12 60h99q0 -70 -41 -105.5t-111 -35.5h-11z" />
    <glyph glyph-name="uhorn" unicode="&#x1b0;" horiz-adv-x="473" 
d="M145 -9q-34 0 -56 17.5t-32 47t-10 62.5v460h136v-435q0 -26 8.5 -40.5t31.5 -14.5q15 0 30.5 8t30.5 19v463h136v-578h-136v55q-29 -28 -64 -46t-75 -18zM317 517v61h10q30 0 42 20t12 60h99q0 -70 -41 -105.5t-111 -35.5h-11z" />
    <glyph glyph-name="uni01B7" unicode="&#x1b7;" horiz-adv-x="480" 
d="M238 -12q-76 0 -122.5 28.5t-68 81t-21.5 122.5v28h138v-10v-14q0 -62 15.5 -94.5t59.5 -32.5q23 0 37 8.5t22 26t11 43t3 57.5q0 64 -11 104t-39.5 58.5t-81.5 18.5h-86v78l161 217h-208v102h367v-76l-204 -277l-30 38h65q81 0 125 -33t61.5 -91.5t17.5 -136.5
q0 -73 -21 -128.5t-67.5 -86.5t-122.5 -31z" />
    <glyph glyph-name="uni01C4" unicode="&#x1c4;" horiz-adv-x="979" 
d="M61 0v810h191q99 0 154.5 -27t79 -83t23.5 -142v-296q0 -88 -23.5 -146.5t-78 -87t-149.5 -28.5h-197zM209 103h45q51 0 73 18t27 52.5t5 84.5v310q0 49 -7 79t-29 44t-71 14h-43v-602zM586 0v95l218 613h-206v102h355v-76l-226 -632h227v-102h-368zM700 870l-88 180h100
l54 -113l54 113h100l-88 -180h-132z" />
    <glyph glyph-name="uni01C5" unicode="&#x1c5;" horiz-adv-x="928" 
d="M61 0v810h191q99 0 154.5 -27t79 -83t23.5 -142v-296q0 -88 -23.5 -146.5t-78 -87t-149.5 -28.5h-197zM209 103h45q51 0 73 18t27 52.5t5 84.5v310q0 49 -7 79t-29 44t-71 14h-43v-602zM591 0v89l167 389h-153v100h297v-79l-170 -398h169v-101h-310zM676 638l-88 180h100
l54 -113l54 113h100l-88 -180h-132z" />
    <glyph glyph-name="uni01C6" unicode="&#x1c6;" horiz-adv-x="844" 
d="M182 -9q-69 0 -104.5 49t-35.5 157v177q0 60 13.5 108t43.5 76.5t81 28.5q31 0 57.5 -12.5t48.5 -32.5v268h136v-810h-136v41q-23 -23 -49 -36.5t-55 -13.5zM232 85q11 0 25 5t29 14v371q-12 8 -26 13.5t-29 5.5q-29 0 -40.5 -26.5t-11.5 -64.5v-216q0 -29 4 -52
t15.5 -36.5t33.5 -13.5zM507 0v89l167 389h-153v100h297v-79l-170 -398h169v-101h-310zM592 638l-88 180h100l54 -113l54 113h100l-88 -180h-132z" />
    <glyph glyph-name="uni01C7" unicode="&#x1c7;" horiz-adv-x="747" 
d="M61 0v810h148v-708h196v-102h-344zM431 -20v104q32 0 53 4t32.5 14.5t16.5 31t5 52.5v624h147v-630q0 -68 -16 -112.5t-55.5 -66t-111.5 -21.5h-71z" />
    <glyph glyph-name="uni01C8" unicode="&#x1c8;" horiz-adv-x="674" 
d="M61 0v810h148v-708h196v-102h-344zM479 -164q-18 0 -37 3t-35 8v97q6 -1 14.5 -2t14.5 -1q18 0 29 7t16.5 20t5.5 32v578h136v-594q0 -68 -37.5 -108t-106.5 -40zM487 670v113h137v-113h-137z" />
    <glyph glyph-name="uni01C9" unicode="&#x1c9;" horiz-adv-x="506" 
d="M61 0v810h135v-810h-135zM310 -164q-18 0 -37 3t-35 8v97q6 -1 14.5 -2t14.5 -1q18 0 29 7t16.5 20t5.5 32v578h136v-594q0 -68 -37.5 -108t-106.5 -40zM318 670v113h137v-113h-137z" />
    <glyph glyph-name="uni01CA" unicode="&#x1ca;" horiz-adv-x="871" 
d="M61 0v810h103l197 -462v462h122v-810h-98l-198 484v-484h-126zM555 -20v104q32 0 53 4t32.5 14.5t16.5 31t5 52.5v624h147v-630q0 -68 -16 -112.5t-55.5 -66t-111.5 -21.5h-71z" />
    <glyph glyph-name="uni01CB" unicode="&#x1cb;" horiz-adv-x="799" 
d="M61 0v810h103l197 -462v462h122v-810h-98l-198 484v-484h-126zM603 -164q-18 0 -37 3t-35 8v97q6 -1 14.5 -2t14.5 -1q18 0 29 7t16.5 20t5.5 32v578h136v-594q0 -68 -37.5 -108t-106.5 -40zM611 670v113h137v-113h-137z" />
    <glyph glyph-name="uni01CC" unicode="&#x1cc;" horiz-adv-x="728" 
d="M52 0v578h136v-58q31 30 65.5 48.5t74.5 18.5q36 0 57 -17.5t31 -46.5t10 -63v-460h-136v433q0 26 -8 40t-31 14q-14 0 -30.5 -8t-32.5 -20v-459h-136zM532 -164q-18 0 -37 3t-35 8v97q6 -1 14.5 -2t14.5 -1q18 0 29 7t16.5 20t5.5 32v578h136v-594q0 -68 -37.5 -108
t-106.5 -40zM540 670v113h137v-113h-137z" />
    <glyph glyph-name="uni01CD" unicode="&#x1cd;" horiz-adv-x="522" 
d="M20 0l162 810h158l162 -810h-137l-32 187h-141l-33 -187h-139zM207 281h110l-55 340zM195 870l-88 180h100l54 -113l54 113h100l-88 -180h-132z" />
    <glyph glyph-name="uni01CE" unicode="&#x1ce;" horiz-adv-x="452" 
d="M164 -9q-39 0 -67 20.5t-43 52t-15 65.5q0 54 20 91t53 62t75 43.5t85 33.5v50q0 25 -3.5 42t-13 26t-29.5 9q-17 0 -27.5 -8t-15 -22.5t-5.5 -33.5l-2 -35l-129 5q3 100 49.5 147.5t141.5 47.5q87 0 126.5 -48t39.5 -130v-267q0 -32 1.5 -58t4 -47t4.5 -37h-122
q-3 20 -7.5 45.5t-6.5 37.5q-10 -35 -38 -63.5t-76 -28.5zM214 92q13 0 24.5 6.5t20.5 15.5t13 16v161q-22 -13 -41.5 -26t-34 -28.5t-22 -33.5t-7.5 -42q0 -32 12.5 -50.5t34.5 -18.5zM171 638l-88 180h100l54 -113l54 113h100l-88 -180h-132z" />
    <glyph glyph-name="uni01D3" unicode="&#x1d3;" horiz-adv-x="566" 
d="M283 -11q-90 0 -140 33t-69 94t-19 146v548h144v-565q0 -38 5 -71.5t23.5 -54t55.5 -20.5q39 0 56.5 20.5t23 54t5.5 71.5v565h143v-548q0 -85 -19 -146t-68.5 -94t-140.5 -33zM217 870l-88 180h100l54 -113l54 113h100l-88 -180h-132z" />
    <glyph glyph-name="uni01D4" unicode="&#x1d4;" horiz-adv-x="473" 
d="M145 -9q-34 0 -56 17.5t-32 47t-10 62.5v460h136v-435q0 -26 8.5 -40.5t31.5 -14.5q15 0 30.5 8t30.5 19v463h136v-578h-136v55q-29 -28 -64 -46t-75 -18zM171 638l-88 180h100l54 -113l54 113h100l-88 -180h-132z" />
    <glyph glyph-name="uni01E4" unicode="&#x1e4;" horiz-adv-x="559" 
d="M318 198v78h244v-78h-244zM264 -11q-80 0 -127 34t-67.5 96.5t-20.5 147.5v272q0 87 20 150t70.5 96.5t139.5 33.5q83 0 132 -28t70.5 -80.5t21.5 -127.5v-42h-141v46q0 39 -5.5 67t-22 42.5t-53.5 14.5q-39 0 -56.5 -19t-22 -50t-4.5 -68v-339q0 -42 7 -73t26 -47.5
t54 -16.5q36 0 55 18t26.5 50t7.5 76v76h-87v93h220v-411h-95l-11 80q-16 -40 -48.5 -65.5t-88.5 -25.5z" />
    <glyph glyph-name="uni01E5" unicode="&#x1e5;" horiz-adv-x="469" 
d="M222 -190q-59 0 -104 12.5t-70 38.5t-25 68q0 28 11.5 49.5t31 38t42.5 27.5q-32 10 -49.5 29t-17.5 41q0 34 17 58t47 51q-31 25 -46.5 62.5t-15.5 98.5q0 66 21.5 111.5t63 68.5t101.5 23q46 0 77 -13.5t51 -40.5q8 12 28 30t46 30l18 8l33 -73q-11 -3 -29.5 -10
t-36.5 -15t-28 -14q9 -20 15 -50t6 -57q0 -61 -19 -106t-58.5 -69.5t-102.5 -24.5q-21 0 -41 3.5t-37 8.5q-6 -8 -11.5 -17t-5.5 -19t12 -15.5t40 -7.5l122 -14q71 -7 105 -45t34 -108q0 -52 -23.5 -87t-73 -53t-128.5 -18zM-12 -57v51h494v-51h-494zM237 -92q58 0 85 13.5
t27 45.5q0 18 -7 29t-25 17.5t-51 9.5l-99 9q-11 -9 -20.5 -19.5t-15.5 -22t-6 -24.5q0 -28 24 -43t88 -15zM229 269q18 0 29 6.5t17 21t8 36.5t2 51t-2 51t-7.5 37t-16.5 22t-30 7q-18 0 -29.5 -7t-17 -21.5t-8 -36.5t-2.5 -52q0 -28 2 -49.5t8 -36t17.5 -22t29.5 -7.5z
" />
    <glyph glyph-name="Gcaron" unicode="&#x1e6;" horiz-adv-x="559" 
d="M264 -11q-80 0 -127 34t-67.5 96.5t-20.5 147.5v272q0 87 20 150t70.5 96.5t139.5 33.5q83 0 132 -28t70.5 -80.5t21.5 -127.5v-42h-141v46q0 39 -5.5 67t-22 42.5t-53.5 14.5q-39 0 -56.5 -19t-22 -50t-4.5 -68v-339q0 -42 7 -73t26 -47.5t54 -16.5q36 0 55 18t26.5 50
t7.5 76v76h-87v93h220v-411h-95l-11 80q-16 -40 -48.5 -65.5t-88.5 -25.5zM214 870l-88 180h100l54 -113l54 113h100l-88 -180h-132z" />
    <glyph glyph-name="gcaron" unicode="&#x1e7;" horiz-adv-x="469" 
d="M222 -190q-59 0 -104 12t-70 37t-25 65q0 27 11.5 48.5t31.5 37.5t43 27q-33 9 -50.5 29t-17.5 48q0 34 17 58t47 51q-31 25 -46.5 62.5t-15.5 98.5q0 66 21.5 111.5t63 68.5t101.5 23q46 0 77 -13.5t51 -40.5q8 12 28 30t46 30l18 8l33 -73q-11 -3 -29.5 -10t-36.5 -15
t-28 -14q9 -20 15 -50t6 -57q0 -61 -19 -106t-58.5 -69.5t-102.5 -24.5q-21 0 -41 3.5t-37 8.5q-6 -9 -11.5 -19t-5.5 -21t12 -18t40 -10l122 -12q71 -7 105 -44.5t34 -101.5q0 -52 -23.5 -87t-73 -53t-128.5 -18zM237 -88q56 0 84 11t28 40q0 16 -7 26t-25 16.5t-51 9.5
l-99 9q-11 -9 -19.5 -18.5t-13.5 -20.5t-5 -23q0 -25 24 -37.5t84 -12.5zM229 269q18 0 29 6.5t17 21t8 36.5t2 51t-2 51t-7.5 37t-16.5 22t-30 7q-18 0 -29.5 -7t-17 -21.5t-8 -36.5t-2.5 -52q0 -28 2 -49.5t8 -36t17.5 -22t29.5 -7.5zM169 638l-88 180h100l54 -113l54 113
h100l-88 -180h-132z" />
    <glyph glyph-name="uni01E8" unicode="&#x1e8;" horiz-adv-x="532" 
d="M61 0v810h148v-356l160 356h141l-155 -362l171 -448h-147l-136 369l-34 -62v-307h-148zM207 870l-88 180h100l54 -113l54 113h100l-88 -180h-132z" />
    <glyph glyph-name="uni01E9" unicode="&#x1e9;" horiz-adv-x="487" 
d="M53 0v810h136v-465l149 233h148l-145 -232l142 -346h-143l-105 285l-46 -64v-221h-136zM252 815l-88 180h100l54 -113l54 113h100l-88 -180h-132z" />
    <glyph glyph-name="uni01EA" unicode="&#x1ea;" horiz-adv-x="563" 
d="M281 -11q-86 0 -137 32t-73 92t-22 142v303q0 82 22 140.5t73 89.5t137 31q88 0 138.5 -31t73 -89.5t22.5 -140.5v-304q0 -81 -22.5 -140.5t-73 -92t-138.5 -32.5zM281 98q37 0 54.5 16t23.5 44t6 61v373q0 34 -6 61t-23.5 42.5t-54.5 15.5q-35 0 -53 -15.5t-24 -42.5
t-6 -61v-373q0 -33 5.5 -61t23.5 -44t54 -16zM338 -246q-26 0 -52.5 3.5t-48.5 13.5t-35 29t-13 51q0 30 14 59t35.5 53t44.5 37h64q-14 -17 -27.5 -37.5t-23 -43t-9.5 -44.5q0 -32 23 -43t49 -11q8 0 16.5 0.5t14.5 1.5l-17 -66q-7 -1 -16.5 -2t-18.5 -1z" />
    <glyph glyph-name="uni01EB" unicode="&#x1eb;" horiz-adv-x="455" 
d="M227 -9q-63 0 -104 23.5t-61.5 68.5t-20.5 109v194q0 64 20.5 109t61.5 68.5t104 23.5t104.5 -23.5t62 -68.5t20.5 -109v-194q0 -64 -20.5 -109t-62 -68.5t-104.5 -23.5zM228 85q23 0 34 13t14 35.5t3 49.5v212q0 27 -3 49t-14 35.5t-34 13.5t-34 -13.5t-14.5 -35.5
t-3.5 -49v-212q0 -27 3.5 -49.5t14.5 -35.5t34 -13zM294 -241q-26 0 -52.5 3.5t-48.5 13.5t-35 29t-13 51q0 30 14 59t35.5 53t44.5 37h64q-14 -17 -27.5 -37.5t-23 -43t-9.5 -44.5q0 -32 23 -43t49 -11q8 0 16.5 0.5t14.5 1.5l-17 -66q-7 -1 -16.5 -2t-18.5 -1z" />
    <glyph glyph-name="uni01EE" unicode="&#x1ee;" horiz-adv-x="480" 
d="M238 -12q-76 0 -122.5 28.5t-68 81t-21.5 122.5v28h138v-10v-14q0 -62 15.5 -94.5t59.5 -32.5q23 0 37 8.5t22 26t11 43t3 57.5q0 64 -11 104t-39.5 58.5t-81.5 18.5h-86v78l161 217h-208v102h367v-76l-204 -277l-30 38h65q81 0 125 -33t61.5 -91.5t17.5 -136.5
q0 -73 -21 -128.5t-67.5 -86.5t-122.5 -31zM174 870l-88 180h100l54 -113l54 113h100l-88 -180h-132z" />
    <glyph glyph-name="uni01EF" unicode="&#x1ef;" horiz-adv-x="472" 
d="M233 -201q-74 0 -119.5 29t-66.5 81t-21 123v28h134v-10v-14q0 -66 15 -100.5t59 -34.5q31 0 47 16.5t21.5 48.5t5.5 77q0 60 -9.5 98t-34.5 56t-73 18h-82v82l167 215l29 -34h-246v100h340v-79l-180 -237l-41 32h55q82 0 127.5 -30.5t64 -86.5t18.5 -131
q0 -73 -20.5 -129t-67 -87t-122.5 -31zM170 638l-88 180h100l54 -113l54 113h100l-88 -180h-132z" />
    <glyph glyph-name="uni01F1" unicode="&#x1f1;" horiz-adv-x="978" 
d="M61 0v810h191q99 0 154.5 -27t79 -83t23.5 -142v-296q0 -88 -23.5 -146.5t-78 -87t-149.5 -28.5h-197zM209 103h45q51 0 73 18t27 52.5t5 84.5v310q0 49 -7 79t-29 44t-71 14h-43v-602zM586 0v95l218 613h-206v102h355v-76l-226 -632h227v-102h-368z" />
    <glyph glyph-name="uni01F2" unicode="&#x1f2;" horiz-adv-x="928" 
d="M61 0v810h191q99 0 154.5 -27t79 -83t23.5 -142v-296q0 -88 -23.5 -146.5t-78 -87t-149.5 -28.5h-197zM209 103h45q51 0 73 18t27 52.5t5 84.5v310q0 49 -7 79t-29 44t-71 14h-43v-602zM591 0v89l167 389h-153v100h297v-79l-170 -398h169v-101h-310z" />
    <glyph glyph-name="uni01F3" unicode="&#x1f3;" horiz-adv-x="844" 
d="M182 -9q-69 0 -104.5 49t-35.5 157v177q0 60 13.5 108t43.5 76.5t81 28.5q31 0 57.5 -12.5t48.5 -32.5v268h136v-810h-136v41q-23 -23 -49 -36.5t-55 -13.5zM232 85q11 0 25 5t29 14v371q-12 8 -26 13.5t-29 5.5q-29 0 -40.5 -26.5t-11.5 -64.5v-216q0 -29 4 -52
t15.5 -36.5t33.5 -13.5zM507 0v89l167 389h-153v100h297v-79l-170 -398h169v-101h-310z" />
    <glyph glyph-name="uni01F4" unicode="&#x1f4;" horiz-adv-x="559" 
d="M264 -11q-80 0 -127 34t-67.5 96.5t-20.5 147.5v272q0 87 20 150t70.5 96.5t139.5 33.5q83 0 132 -28t70.5 -80.5t21.5 -127.5v-42h-141v46q0 39 -5.5 67t-22 42.5t-53.5 14.5q-39 0 -56.5 -19t-22 -50t-4.5 -68v-339q0 -42 7 -73t26 -47.5t54 -16.5q36 0 55 18t26.5 50
t7.5 76v76h-87v93h220v-411h-95l-11 80q-16 -40 -48.5 -65.5t-88.5 -25.5zM239 866l61 200h137l-119 -200h-79z" />
    <glyph glyph-name="uni01F5" unicode="&#x1f5;" horiz-adv-x="469" 
d="M222 -190q-59 0 -104 12t-70 37t-25 65q0 27 11.5 48.5t31.5 37.5t43 27q-33 9 -50.5 29t-17.5 48q0 34 17 58t47 51q-31 25 -46.5 62.5t-15.5 98.5q0 66 21.5 111.5t63 68.5t101.5 23q46 0 77 -13.5t51 -40.5q8 12 28 30t46 30l18 8l33 -73q-11 -3 -29.5 -10t-36.5 -15
t-28 -14q9 -20 15 -50t6 -57q0 -61 -19 -106t-58.5 -69.5t-102.5 -24.5q-21 0 -41 3.5t-37 8.5q-6 -9 -11.5 -19t-5.5 -21t12 -18t40 -10l122 -12q71 -7 105 -44.5t34 -101.5q0 -52 -23.5 -87t-73 -53t-128.5 -18zM237 -88q56 0 84 11t28 40q0 16 -7 26t-25 16.5t-51 9.5
l-99 9q-11 -9 -19.5 -18.5t-13.5 -20.5t-5 -23q0 -25 24 -37.5t84 -12.5zM229 269q18 0 29 6.5t17 21t8 36.5t2 51t-2 51t-7.5 37t-16.5 22t-30 7q-18 0 -29.5 -7t-17 -21.5t-8 -36.5t-2.5 -52q0 -28 2 -49.5t8 -36t17.5 -22t29.5 -7.5zM194 634l61 200h137l-119 -200h-79z
" />
    <glyph glyph-name="Aringacute" unicode="&#x1fa;" horiz-adv-x="522" 
d="M20 0l162 810h158l162 -810h-137l-32 187h-141l-33 -187h-139zM207 281h110l-55 340zM260 841q-48 0 -81 29t-33 82t33 81.5t81 28.5q49 0 82.5 -29t33.5 -81q0 -53 -33.5 -82t-82.5 -29zM260 897q26 0 40 15.5t14 39.5q0 25 -14 40t-40 15q-25 0 -39 -15t-14 -40
q0 -24 14 -39.5t39 -15.5zM220 1108l61 200h137l-119 -200h-79z" />
    <glyph glyph-name="aringacute" unicode="&#x1fb;" horiz-adv-x="452" 
d="M164 -9q-39 0 -67 20.5t-43 52t-15 65.5q0 54 20 91t53 62t75 43.5t85 33.5v50q0 25 -3.5 42t-13 26t-29.5 9q-17 0 -27.5 -8t-15 -22.5t-5.5 -33.5l-2 -35l-129 5q3 100 49.5 147.5t141.5 47.5q87 0 126.5 -48t39.5 -130v-267q0 -32 1.5 -58t4 -47t4.5 -37h-122
q-3 20 -7.5 45.5t-6.5 37.5q-10 -35 -38 -63.5t-76 -28.5zM214 92q13 0 24.5 6.5t20.5 15.5t13 16v161q-22 -13 -41.5 -26t-34 -28.5t-22 -33.5t-7.5 -42q0 -32 12.5 -50.5t34.5 -18.5zM236 609q-48 0 -81 29t-33 82t33 81.5t81 28.5q49 0 82.5 -29t33.5 -81
q0 -53 -33.5 -82t-82.5 -29zM236 665q26 0 40 15.5t14 39.5q0 25 -14 40t-40 15q-25 0 -39 -15t-14 -40q0 -24 14 -39.5t39 -15.5zM196 876l61 200h137l-119 -200h-79z" />
    <glyph glyph-name="AEacute" unicode="&#x1fc;" horiz-adv-x="673" 
d="M-31 0l347 804h332v-103h-187v-230h133v-104h-133v-265h187v-102h-318v186h-140l-77 -186h-144zM224 283h106v285zM355 866l61 200h137l-119 -200h-79z" />
    <glyph glyph-name="aeacute" unicode="&#x1fd;" horiz-adv-x="665" 
d="M185 -10q-70 0 -108 38.5t-38 101.5q0 55 21.5 90.5t58.5 57t84 33.5l68 17v78q0 39 -9.5 59t-37.5 20q-17 0 -28.5 -9.5t-16.5 -29.5t-5 -51l-133 3q0 89 44 139t131 50q57 0 89 -27t38 -65h-16q4 26 23.5 46.5t51.5 33t70 12.5q76 0 113 -38t37 -98q0 -52 -20.5 -82.5
t-54.5 -46t-75 -25.5l-69 -15v-120q0 -31 8.5 -51t36.5 -20q19 0 28.5 10t13 28t3.5 41v32h129v-36q0 -56 -17.5 -95t-52.5 -60t-89 -21q-37 0 -66 12.5t-47.5 36.5t-24.5 57q-10 -33 -30 -57t-47.5 -36.5t-62.5 -12.5zM216 87q19 0 30.5 8.5t18 25.5t6.5 44v96l-38 -14
q-23 -9 -38.5 -22t-23 -30.5t-7.5 -40.5q0 -20 5.5 -35t17 -23.5t29.5 -8.5zM403 348l35 8q34 8 50.5 24t16.5 50q0 23 -11 38.5t-38 15.5q-20 0 -31.5 -9.5t-16.5 -26.5t-5 -42v-58zM292 634l61 200h137l-119 -200h-79z" />
    <glyph glyph-name="Oslashacute" unicode="&#x1fe;" horiz-adv-x="557" 
d="M139 -82l-39 14l308 950l40 -13zM281 -11q-86 0 -137 32t-73 92t-22 142v303q0 82 22 140.5t73 89.5t137 31q88 0 138.5 -31t73 -89.5t22.5 -140.5v-304q0 -81 -22.5 -140.5t-73 -92t-138.5 -32.5zM281 98q37 0 54.5 16t23.5 44t6 61v373q0 34 -6 61t-23.5 42.5
t-54.5 15.5q-35 0 -53 -15.5t-24 -42.5t-6 -61v-373q0 -33 5.5 -61t23.5 -44t54 -16zM237 866l61 200h137l-119 -200h-79z" />
    <glyph glyph-name="oslashacute" unicode="&#x1ff;" horiz-adv-x="451" 
d="M100 -92l-34 14l283 749l38 -14zM227 -9q-63 0 -104 23.5t-61.5 68.5t-20.5 109v194q0 64 20.5 109t61.5 68.5t104 23.5t104.5 -23.5t62 -68.5t20.5 -109v-194q0 -64 -20.5 -109t-62 -68.5t-104.5 -23.5zM228 85q23 0 34 13t14 35.5t3 49.5v212q0 27 -3 49t-14 35.5
t-34 13.5t-34 -13.5t-14.5 -35.5t-3.5 -49v-212q0 -27 3.5 -49.5t14.5 -35.5t34 -13zM185 634l61 200h137l-119 -200h-79z" />
    <glyph glyph-name="uni0200" unicode="&#x200;" horiz-adv-x="522" 
d="M20 0l162 810h158l162 -810h-137l-32 187h-141l-33 -187h-139zM207 281h110l-55 340zM156 871l-105 189h116l61 -189h-72zM309 871l-84 189h104l50 -189h-70z" />
    <glyph glyph-name="uni0201" unicode="&#x201;" horiz-adv-x="452" 
d="M164 -9q-39 0 -67 20.5t-43 52t-15 65.5q0 54 20 91t53 62t75 43.5t85 33.5v50q0 25 -3.5 42t-13 26t-29.5 9q-17 0 -27.5 -8t-15 -22.5t-5.5 -33.5l-2 -35l-129 5q3 100 49.5 147.5t141.5 47.5q87 0 126.5 -48t39.5 -130v-267q0 -32 1.5 -58t4 -47t4.5 -37h-122
q-3 20 -7.5 45.5t-6.5 37.5q-10 -35 -38 -63.5t-76 -28.5zM214 92q13 0 24.5 6.5t20.5 15.5t13 16v161q-22 -13 -41.5 -26t-34 -28.5t-22 -33.5t-7.5 -42q0 -32 12.5 -50.5t34.5 -18.5zM132 639l-105 189h116l61 -189h-72zM285 639l-84 189h104l50 -189h-70z" />
    <glyph glyph-name="uni0202" unicode="&#x202;" horiz-adv-x="522" 
d="M20 0l162 810h158l162 -810h-137l-32 187h-141l-33 -187h-139zM207 281h110l-55 340zM116 887q1 47 15.5 81.5t47 53.5t82.5 19q51 0 83 -19t47 -53.5t15 -81.5h-78q0 43 -15.5 62.5t-51.5 19.5t-51 -19.5t-16 -62.5h-78z" />
    <glyph glyph-name="uni0203" unicode="&#x203;" horiz-adv-x="452" 
d="M164 -9q-39 0 -67 20.5t-43 52t-15 65.5q0 54 20 91t53 62t75 43.5t85 33.5v50q0 25 -3.5 42t-13 26t-29.5 9q-17 0 -27.5 -8t-15 -22.5t-5.5 -33.5l-2 -35l-129 5q3 100 49.5 147.5t141.5 47.5q87 0 126.5 -48t39.5 -130v-267q0 -32 1.5 -58t4 -47t4.5 -37h-122
q-3 20 -7.5 45.5t-6.5 37.5q-10 -35 -38 -63.5t-76 -28.5zM214 92q13 0 24.5 6.5t20.5 15.5t13 16v161q-22 -13 -41.5 -26t-34 -28.5t-22 -33.5t-7.5 -42q0 -32 12.5 -50.5t34.5 -18.5zM92 655q1 47 15.5 81.5t47 53.5t82.5 19q51 0 83 -19t47 -53.5t15 -81.5h-78
q0 43 -15.5 62.5t-51.5 19.5t-51 -19.5t-16 -62.5h-78z" />
    <glyph glyph-name="uni0204" unicode="&#x204;" horiz-adv-x="428" 
d="M61 0v810h340v-104h-192v-233h151v-103h-151v-268h194v-102h-342zM129 871l-105 189h116l61 -189h-72zM282 871l-84 189h104l50 -189h-70z" />
    <glyph glyph-name="uni0205" unicode="&#x205;" horiz-adv-x="446" 
d="M227 -9q-65 0 -106 24.5t-60.5 72t-19.5 114.5v174q0 69 19.5 116t61 71t105.5 24q69 0 107.5 -26t55 -75.5t16.5 -120.5v-82h-230v-114q0 -28 5.5 -46t17.5 -26t29 -8q18 0 29 8.5t16 25t5 41.5v48h127v-39q0 -88 -44 -135t-134 -47zM176 350h102v55q0 30 -5 48.5
t-16 27t-31 8.5q-18 0 -29 -9t-16 -30t-5 -60v-40zM120 639l-105 189h116l61 -189h-72zM273 639l-84 189h104l50 -189h-70z" />
    <glyph glyph-name="uni0206" unicode="&#x206;" horiz-adv-x="428" 
d="M61 0v810h340v-104h-192v-233h151v-103h-151v-268h194v-102h-342zM89 887q1 47 15.5 81.5t47 53.5t82.5 19q51 0 83 -19t47 -53.5t15 -81.5h-78q0 43 -15.5 62.5t-51.5 19.5t-51 -19.5t-16 -62.5h-78z" />
    <glyph glyph-name="uni0207" unicode="&#x207;" horiz-adv-x="446" 
d="M227 -9q-65 0 -106 24.5t-60.5 72t-19.5 114.5v174q0 69 19.5 116t61 71t105.5 24q69 0 107.5 -26t55 -75.5t16.5 -120.5v-82h-230v-114q0 -28 5.5 -46t17.5 -26t29 -8q18 0 29 8.5t16 25t5 41.5v48h127v-39q0 -88 -44 -135t-134 -47zM176 350h102v55q0 30 -5 48.5
t-16 27t-31 8.5q-18 0 -29 -9t-16 -30t-5 -60v-40zM80 655q1 47 15.5 81.5t47 53.5t82.5 19q51 0 83 -19t47 -53.5t15 -81.5h-78q0 43 -15.5 62.5t-51.5 19.5t-51 -19.5t-16 -62.5h-78z" />
    <glyph glyph-name="uni0208" unicode="&#x208;" horiz-adv-x="275" 
d="M65 0v810h146v-810h-146zM32 871l-105 189h116l61 -189h-72zM185 871l-84 189h104l50 -189h-70z" />
    <glyph glyph-name="uni0209" unicode="&#x209;" horiz-adv-x="253" 
d="M60 0v578h136v-578h-136zM23 639l-105 189h116l61 -189h-72zM176 639l-84 189h104l50 -189h-70z" />
    <glyph glyph-name="uni020A" unicode="&#x20a;" horiz-adv-x="275" 
d="M65 0v810h146v-810h-146zM-8 887q1 47 15.5 81.5t47 53.5t82.5 19q51 0 83 -19t47 -53.5t15 -81.5h-78q0 43 -15.5 62.5t-51.5 19.5t-51 -19.5t-16 -62.5h-78z" />
    <glyph glyph-name="uni020B" unicode="&#x20b;" horiz-adv-x="253" 
d="M60 0v578h136v-578h-136zM-17 655q1 47 15.5 81.5t47 53.5t82.5 19q51 0 83 -19t47 -53.5t15 -81.5h-78q0 43 -15.5 62.5t-51.5 19.5t-51 -19.5t-16 -62.5h-78z" />
    <glyph glyph-name="uni020C" unicode="&#x20c;" horiz-adv-x="563" 
d="M281 -11q-86 0 -137 32t-73 92t-22 142v303q0 82 22 140.5t73 89.5t137 31q88 0 138.5 -31t73 -89.5t22.5 -140.5v-304q0 -81 -22.5 -140.5t-73 -92t-138.5 -32.5zM281 98q37 0 54.5 16t23.5 44t6 61v373q0 34 -6 61t-23.5 42.5t-54.5 15.5q-35 0 -53 -15.5t-24 -42.5
t-6 -61v-373q0 -33 5.5 -61t23.5 -44t54 -16zM177 871l-105 189h116l61 -189h-72zM330 871l-84 189h104l50 -189h-70z" />
    <glyph glyph-name="uni020D" unicode="&#x20d;" horiz-adv-x="455" 
d="M227 -9q-63 0 -104 23.5t-61.5 68.5t-20.5 109v194q0 64 20.5 109t61.5 68.5t104 23.5t104.5 -23.5t62 -68.5t20.5 -109v-194q0 -64 -20.5 -109t-62 -68.5t-104.5 -23.5zM228 85q23 0 34 13t14 35.5t3 49.5v212q0 27 -3 49t-14 35.5t-34 13.5t-34 -13.5t-14.5 -35.5
t-3.5 -49v-212q0 -27 3.5 -49.5t14.5 -35.5t34 -13zM122 639l-105 189h116l61 -189h-72zM275 639l-84 189h104l50 -189h-70z" />
    <glyph glyph-name="uni020E" unicode="&#x20e;" horiz-adv-x="563" 
d="M281 -11q-86 0 -137 32t-73 92t-22 142v303q0 82 22 140.5t73 89.5t137 31q88 0 138.5 -31t73 -89.5t22.5 -140.5v-304q0 -81 -22.5 -140.5t-73 -92t-138.5 -32.5zM281 98q37 0 54.5 16t23.5 44t6 61v373q0 34 -6 61t-23.5 42.5t-54.5 15.5q-35 0 -53 -15.5t-24 -42.5
t-6 -61v-373q0 -33 5.5 -61t23.5 -44t54 -16zM137 887q1 47 15.5 81.5t47 53.5t82.5 19q51 0 83 -19t47 -53.5t15 -81.5h-78q0 43 -15.5 62.5t-51.5 19.5t-51 -19.5t-16 -62.5h-78z" />
    <glyph glyph-name="uni020F" unicode="&#x20f;" horiz-adv-x="455" 
d="M227 -9q-63 0 -104 23.5t-61.5 68.5t-20.5 109v194q0 64 20.5 109t61.5 68.5t104 23.5t104.5 -23.5t62 -68.5t20.5 -109v-194q0 -64 -20.5 -109t-62 -68.5t-104.5 -23.5zM228 85q23 0 34 13t14 35.5t3 49.5v212q0 27 -3 49t-14 35.5t-34 13.5t-34 -13.5t-14.5 -35.5
t-3.5 -49v-212q0 -27 3.5 -49.5t14.5 -35.5t34 -13zM82 655q1 47 15.5 81.5t47 53.5t82.5 19q51 0 83 -19t47 -53.5t15 -81.5h-78q0 43 -15.5 62.5t-51.5 19.5t-51 -19.5t-16 -62.5h-78z" />
    <glyph glyph-name="uni0210" unicode="&#x210;" horiz-adv-x="561" 
d="M61 0v810h194q82 0 138.5 -19.5t86 -66.5t29.5 -128q0 -49 -9 -88t-30.5 -66.5t-59.5 -42.5l113 -399h-148l-98 371h-68v-371h-148zM209 464h46q43 0 68.5 12.5t36.5 40t11 70.5q0 61 -22.5 91.5t-85.5 30.5h-54v-245zM176 871l-105 189h116l61 -189h-72zM329 871
l-84 189h104l50 -189h-70z" />
    <glyph glyph-name="uni0211" unicode="&#x211;" horiz-adv-x="353" 
d="M55 0v578h136v-89q30 51 60 73.5t66 22.5q6 0 10.5 -0.5t10.5 -1.5v-141q-12 5 -26.5 8.5t-29.5 3.5q-27 0 -49 -13t-42 -43v-398h-136zM86 639l-105 189h116l61 -189h-72zM239 639l-84 189h104l50 -189h-70z" />
    <glyph glyph-name="uni0212" unicode="&#x212;" horiz-adv-x="561" 
d="M61 0v810h194q82 0 138.5 -19.5t86 -66.5t29.5 -128q0 -49 -9 -88t-30.5 -66.5t-59.5 -42.5l113 -399h-148l-98 371h-68v-371h-148zM209 464h46q43 0 68.5 12.5t36.5 40t11 70.5q0 61 -22.5 91.5t-85.5 30.5h-54v-245zM136 887q1 47 15.5 81.5t47 53.5t82.5 19
q51 0 83 -19t47 -53.5t15 -81.5h-78q0 43 -15.5 62.5t-51.5 19.5t-51 -19.5t-16 -62.5h-78z" />
    <glyph glyph-name="uni0213" unicode="&#x213;" horiz-adv-x="353" 
d="M55 0v578h136v-89q30 51 60 73.5t66 22.5q6 0 10.5 -0.5t10.5 -1.5v-141q-12 5 -26.5 8.5t-29.5 3.5q-27 0 -49 -13t-42 -43v-398h-136zM46 655q1 47 15.5 81.5t47 53.5t82.5 19q51 0 83 -19t47 -53.5t15 -81.5h-78q0 43 -15.5 62.5t-51.5 19.5t-51 -19.5t-16 -62.5h-78z
" />
    <glyph glyph-name="uni0214" unicode="&#x214;" horiz-adv-x="566" 
d="M283 -11q-90 0 -140 33t-69 94t-19 146v548h144v-565q0 -38 5 -71.5t23.5 -54t55.5 -20.5q39 0 56.5 20.5t23 54t5.5 71.5v565h143v-548q0 -85 -19 -146t-68.5 -94t-140.5 -33zM178 871l-105 189h116l61 -189h-72zM331 871l-84 189h104l50 -189h-70z" />
    <glyph glyph-name="uni0215" unicode="&#x215;" horiz-adv-x="473" 
d="M145 -9q-34 0 -56 17.5t-32 47t-10 62.5v460h136v-435q0 -26 8.5 -40.5t31.5 -14.5q15 0 30.5 8t30.5 19v463h136v-578h-136v55q-29 -28 -64 -46t-75 -18zM132 639l-105 189h116l61 -189h-72zM285 639l-84 189h104l50 -189h-70z" />
    <glyph glyph-name="uni0216" unicode="&#x216;" horiz-adv-x="566" 
d="M283 -11q-90 0 -140 33t-69 94t-19 146v548h144v-565q0 -38 5 -71.5t23.5 -54t55.5 -20.5q39 0 56.5 20.5t23 54t5.5 71.5v565h143v-548q0 -85 -19 -146t-68.5 -94t-140.5 -33zM138 887q1 47 15.5 81.5t47 53.5t82.5 19q51 0 83 -19t47 -53.5t15 -81.5h-78
q0 43 -15.5 62.5t-51.5 19.5t-51 -19.5t-16 -62.5h-78z" />
    <glyph glyph-name="uni0217" unicode="&#x217;" horiz-adv-x="473" 
d="M145 -9q-34 0 -56 17.5t-32 47t-10 62.5v460h136v-435q0 -26 8.5 -40.5t31.5 -14.5q15 0 30.5 8t30.5 19v463h136v-578h-136v55q-29 -28 -64 -46t-75 -18zM92 655q1 47 15.5 81.5t47 53.5t82.5 19q51 0 83 -19t47 -53.5t15 -81.5h-78q0 43 -15.5 62.5t-51.5 19.5
t-51 -19.5t-16 -62.5h-78z" />
    <glyph glyph-name="uni0218" unicode="&#x218;" horiz-adv-x="494" 
d="M265 -11q-73 0 -122 28.5t-74 83.5t-28 135l127 25q2 -47 11.5 -83t29 -55.5t51.5 -19.5q36 0 51 21.5t15 54.5q0 53 -24 87t-64 68l-102 90q-43 37 -68.5 82.5t-25.5 112.5q0 96 56 148t153 52q57 0 95 -17.5t60.5 -48.5t33.5 -70.5t14 -83.5l-126 -22q-2 38 -8.5 68
t-23 47t-48.5 17q-33 0 -50.5 -21.5t-17.5 -53.5q0 -41 17 -67.5t49 -54.5l101 -89q50 -42 85.5 -98.5t35.5 -136.5q0 -58 -25.5 -103t-71 -70.5t-106.5 -25.5zM208 -322l-20 53q29 4 46.5 20t17.5 52h-71v131h132l-1 -117q0 -63 -22.5 -100t-81.5 -39z" />
    <glyph glyph-name="uni0219" unicode="&#x219;" horiz-adv-x="400" 
d="M209 -9q-73 0 -120 39t-67 114l101 39q12 -47 32 -72t52 -25q24 0 36 12t12 33q0 24 -14.5 43.5t-49.5 48.5l-70 59q-38 33 -61.5 67.5t-23.5 86.5q0 47 21.5 80.5t59 52t83.5 18.5q70 0 112.5 -41.5t54.5 -108.5l-89 -38q-5 24 -14.5 44.5t-24.5 33.5t-35 13
q-21 0 -33.5 -13t-12.5 -33q0 -17 14.5 -35t41.5 -41l71 -64q23 -20 44 -43t35 -51.5t14 -65.5q0 -50 -22.5 -84t-61 -51.5t-85.5 -17.5zM161 -322l-20 53q29 4 46.5 20t17.5 52h-71v131h132l-1 -117q0 -63 -22.5 -100t-81.5 -39z" />
    <glyph glyph-name="uni021A" unicode="&#x21a;" horiz-adv-x="422" 
d="M142 0v701h-129v109h404v-109h-127v-701h-148zM172 -322l-20 53q29 4 46.5 20t17.5 52h-71v131h132l-1 -117q0 -63 -22.5 -100t-81.5 -39z" />
    <glyph glyph-name="uni021B" unicode="&#x21b;" horiz-adv-x="332" 
d="M219 -7q-55 0 -86.5 18t-44.5 52t-13 81v344h-58v90h58v173h137v-173h88v-90h-88v-332q0 -30 13 -42.5t39 -12.5q11 0 21.5 1t20.5 2v-104q-17 -2 -39.5 -4.5t-47.5 -2.5zM174 -322l-20 53q29 4 46.5 20t17.5 52h-71v131h132l-1 -117q0 -63 -22.5 -100t-81.5 -39z" />
    <glyph glyph-name="uni021E" unicode="&#x21e;" horiz-adv-x="586" 
d="M63 0v810h147v-339h165v339h148v-810h-148v366h-165v-366h-147zM227 870l-88 180h100l54 -113l54 113h100l-88 -180h-132z" />
    <glyph glyph-name="uni021F" unicode="&#x21f;" horiz-adv-x="478" 
d="M54 0v810h136v-287q30 30 65.5 47t77.5 17q35 0 56 -17.5t31 -46.5t10 -63v-460h-136v433q0 26 -8 40t-31 14q-14 0 -31.5 -8t-33.5 -21v-458h-136zM248 823l-88 180h100l54 -113l54 113h100l-88 -180h-132z" />
    <glyph glyph-name="uni022A" unicode="&#x22a;" horiz-adv-x="563" 
d="M281 -11q-86 0 -137 32t-73 92t-22 142v303q0 82 22 140.5t73 89.5t137 31q88 0 138.5 -31t73 -89.5t22.5 -140.5v-304q0 -81 -22.5 -140.5t-73 -92t-138.5 -32.5zM281 98q37 0 54.5 16t23.5 44t6 61v373q0 34 -6 61t-23.5 42.5t-54.5 15.5q-35 0 -53 -15.5t-24 -42.5
t-6 -61v-373q0 -33 5.5 -61t23.5 -44t54 -16zM320 912v130h120v-130h-120zM124 912v130h120v-130h-120zM164 1139v71h236v-71h-236z" />
    <glyph glyph-name="uni022B" unicode="&#x22b;" horiz-adv-x="455" 
d="M227 -9q-63 0 -104 23.5t-61.5 68.5t-20.5 109v194q0 64 20.5 109t61.5 68.5t104 23.5t104.5 -23.5t62 -68.5t20.5 -109v-194q0 -64 -20.5 -109t-62 -68.5t-104.5 -23.5zM228 85q23 0 34 13t14 35.5t3 49.5v212q0 27 -3 49t-14 35.5t-34 13.5t-34 -13.5t-14.5 -35.5
t-3.5 -49v-212q0 -27 3.5 -49.5t14.5 -35.5t34 -13zM265 680v130h120v-130h-120zM69 680v130h120v-130h-120zM109 907v71h236v-71h-236z" />
    <glyph glyph-name="uni022C" unicode="&#x22c;" horiz-adv-x="563" 
d="M281 -11q-86 0 -137 32t-73 92t-22 142v303q0 82 22 140.5t73 89.5t137 31q88 0 138.5 -31t73 -89.5t22.5 -140.5v-304q0 -81 -22.5 -140.5t-73 -92t-138.5 -32.5zM281 98q37 0 54.5 16t23.5 44t6 61v373q0 34 -6 61t-23.5 42.5t-54.5 15.5q-35 0 -53 -15.5t-24 -42.5
t-6 -61v-373q0 -33 5.5 -61t23.5 -44t54 -16zM361 915q-27 0 -48 12.5t-40 24t-40 11.5q-20 0 -27.5 -10.5t-7.5 -30.5h-70q0 36 7.5 64.5t26.5 45t51 16.5q25 0 45 -11.5t39.5 -23t40.5 -11.5q17 0 24.5 10t7.5 30h66q0 -31 -5 -60t-21.5 -48t-48.5 -19zM164 1145v71h236
v-71h-236z" />
    <glyph glyph-name="uni022D" unicode="&#x22d;" horiz-adv-x="455" 
d="M227 -9q-63 0 -104 23.5t-61.5 68.5t-20.5 109v194q0 64 20.5 109t61.5 68.5t104 23.5t104.5 -23.5t62 -68.5t20.5 -109v-194q0 -64 -20.5 -109t-62 -68.5t-104.5 -23.5zM228 85q23 0 34 13t14 35.5t3 49.5v212q0 27 -3 49t-14 35.5t-34 13.5t-34 -13.5t-14.5 -35.5
t-3.5 -49v-212q0 -27 3.5 -49.5t14.5 -35.5t34 -13zM306 683q-27 0 -48 12.5t-40 24t-40 11.5q-20 0 -27.5 -10.5t-7.5 -30.5h-70q0 36 7.5 64.5t26.5 45t51 16.5q25 0 45 -11.5t39.5 -23t40.5 -11.5q17 0 24.5 10t7.5 30h66q0 -31 -5 -60t-21.5 -48t-48.5 -19zM109 913v71
h236v-71h-236z" />
    <glyph glyph-name="uni0230" unicode="&#x230;" horiz-adv-x="563" 
d="M281 -11q-86 0 -137 32t-73 92t-22 142v303q0 82 22 140.5t73 89.5t137 31q88 0 138.5 -31t73 -89.5t22.5 -140.5v-304q0 -81 -22.5 -140.5t-73 -92t-138.5 -32.5zM281 98q37 0 54.5 16t23.5 44t6 61v373q0 34 -6 61t-23.5 42.5t-54.5 15.5q-35 0 -53 -15.5t-24 -42.5
t-6 -61v-373q0 -33 5.5 -61t23.5 -44t54 -16zM216 893v137h132v-137h-132zM164 1127v71h236v-71h-236z" />
    <glyph glyph-name="uni0231" unicode="&#x231;" horiz-adv-x="455" 
d="M227 -9q-63 0 -104 23.5t-61.5 68.5t-20.5 109v194q0 64 20.5 109t61.5 68.5t104 23.5t104.5 -23.5t62 -68.5t20.5 -109v-194q0 -64 -20.5 -109t-62 -68.5t-104.5 -23.5zM228 85q23 0 34 13t14 35.5t3 49.5v212q0 27 -3 49t-14 35.5t-34 13.5t-34 -13.5t-14.5 -35.5
t-3.5 -49v-212q0 -27 3.5 -49.5t14.5 -35.5t34 -13zM161 661v137h132v-137h-132zM109 895v71h236v-71h-236z" />
    <glyph glyph-name="uni0232" unicode="&#x232;" horiz-adv-x="487" 
d="M174 0v309l-164 501h138l100 -321l94 321h135l-162 -501v-309h-141zM126 907v71h236v-71h-236z" />
    <glyph glyph-name="uni0233" unicode="&#x233;" horiz-adv-x="421" 
d="M56 -157v98q35 0 57 4t32 14t10 28q0 13 -6.5 41t-14.5 61l-127 489h132l75 -381l65 381h131l-135 -601q-11 -51 -37 -80t-65 -41.5t-91 -12.5h-26zM92 675v71h236v-71h-236z" />
    <glyph glyph-name="uni0237" unicode="&#x237;" horiz-adv-x="254" 
d="M58 -164q-18 0 -37 3t-35 8v97q6 -1 14.5 -2t14.5 -1q18 0 29 7t16.5 20t5.5 32v578h136v-594q0 -68 -37.5 -108t-106.5 -40z" />
    <glyph glyph-name="uni0259" unicode="&#x259;" horiz-adv-x="446" 
d="M219 -11q-68 0 -107 26t-55.5 75.5t-16.5 120.5v83h230v112q0 24 -4.5 43t-15 29.5t-31.5 10.5q-18 0 -29 -8t-16 -25t-5 -41v-49h-128v40q0 87 44.5 134t133.5 47q65 0 106.5 -24t60.5 -71.5t19 -115.5v-175q0 -68 -19.5 -115.5t-60.5 -72t-106 -24.5zM219 88
q20 0 30.5 8.5t15.5 30t5 59.5v40h-101v-54q0 -29 4.5 -48t16 -27.5t29.5 -8.5z" />
    <glyph glyph-name="uni0292" unicode="&#x292;" horiz-adv-x="472" 
d="M233 -201q-74 0 -119.5 29t-66.5 81t-21 123v28h134v-10v-14q0 -66 15 -100.5t59 -34.5q31 0 47 16.5t21.5 48.5t5.5 77q0 60 -9.5 98t-34.5 56t-73 18h-82v82l167 215l29 -34h-246v100h340v-79l-180 -237l-41 32h55q82 0 127.5 -30.5t64 -86.5t18.5 -131
q0 -73 -20.5 -129t-67 -87t-122.5 -31z" />
    <glyph glyph-name="uni02BC" unicode="&#x2bc;" horiz-adv-x="374" 
d="M68 535v275h115l-47 -275h-68z" />
    <glyph glyph-name="circumflex" unicode="&#x2c6;" horiz-adv-x="376" 
d="M38 618l90 192h122l92 -192h-100l-52 128l-52 -128h-100z" />
    <glyph glyph-name="caron" unicode="&#x2c7;" horiz-adv-x="371" 
d="M119 630l-86 180h98l53 -113l55 113h99l-88 -180h-131z" />
    <glyph glyph-name="uni02C9" unicode="&#x2c9;" horiz-adv-x="327" 
d="M52 739v71h224v-71h-224z" />
    <glyph glyph-name="breve" unicode="&#x2d8;" horiz-adv-x="336" 
d="M164 674q-46 0 -74.5 17t-41.5 48t-13 71h66q1 -39 15 -56t48 -17q35 0 49.5 17.5t14.5 55.5h67q0 -40 -13.5 -71t-42 -48t-75.5 -17z" />
    <glyph glyph-name="dotaccent" unicode="&#x2d9;" horiz-adv-x="216" 
d="M47 649v133h132v-133h-132z" />
    <glyph glyph-name="ring" unicode="&#x2da;" horiz-adv-x="308" 
d="M154 599q-49 0 -81.5 29.5t-32.5 81.5q0 53 32.5 81.5t81.5 28.5q48 0 81 -28.5t33 -81.5q0 -52 -32.5 -81.5t-81.5 -29.5zM154 655q25 0 39 15.5t14 39.5t-14 39.5t-39 15.5q-26 0 -40 -15.5t-14 -39.5t14 -39.5t40 -15.5z" />
    <glyph glyph-name="ogonek" unicode="&#x2db;" horiz-adv-x="377" 
d="M237 -246q-26 0 -52.5 3.5t-48.5 13.5t-35 29t-13 51q0 30 14 59t35.5 53t44.5 37h64q-14 -17 -27.5 -37.5t-23 -43t-9.5 -44.5q0 -32 23 -43t49 -11q8 0 16.5 0.5t14.5 1.5l-17 -66q-7 -1 -16.5 -2t-18.5 -1z" />
    <glyph glyph-name="tilde" unicode="&#x2dc;" horiz-adv-x="424" 
d="M293 683q-24 -1 -49.5 11t-48 24.5t-39.5 12.5q-14 1 -20 -10t-6 -31h-70q0 27 3.5 49.5t13 39.5t26 26.5t41.5 9.5q27 2 52 -9t46 -22.5t33 -12.5q15 -1 21 9t6 30h65q0 -31 -5.5 -59.5t-21.5 -47t-47 -20.5z" />
    <glyph glyph-name="hungarumlaut" unicode="&#x2dd;" horiz-adv-x="446" 
d="M207 636l61 195h125l-116 -195h-70zM54 636l50 195h111l-91 -195h-70z" />
    <glyph glyph-name="gravecomb" unicode="&#x300;" 
d="M-37 634l-119 200h138l59 -200h-78z" />
    <glyph glyph-name="acutecomb" unicode="&#x301;" 
d="M-41 634l61 200h137l-119 -200h-79z" />
    <glyph glyph-name="uni0302" unicode="&#x302;" 
d="M-152 642l90 184h122l92 -184h-101l-52 120l-51 -120h-100z" />
    <glyph glyph-name="tildecomb" unicode="&#x303;" 
d="M79 683q-27 0 -48 12.5t-40 24t-40 11.5q-20 0 -27.5 -10.5t-7.5 -30.5h-70q0 36 7.5 64.5t26.5 45t51 16.5q25 0 45 -11.5t39.5 -23t40.5 -11.5q17 0 24.5 10t7.5 30h66q0 -31 -5 -60t-21.5 -48t-48.5 -19z" />
    <glyph glyph-name="uni0304" unicode="&#x304;" 
d="M-118 675v71h236v-71h-236z" />
    <glyph glyph-name="uni0306" unicode="&#x306;" 
d="M0 642q-72 0 -108.5 39.5t-36.5 106.5h78q0 -36 15 -55t52 -19q36 0 51 19.5t15 54.5h78q0 -67 -36.5 -106.5t-107.5 -39.5z" />
    <glyph glyph-name="uni0307" unicode="&#x307;" 
d="M-66 661v137h132v-137h-132z" />
    <glyph glyph-name="uni0308" unicode="&#x308;" 
d="M38 680v130h120v-130h-120zM-158 680v130h120v-130h-120z" />
    <glyph glyph-name="hookabovecomb" unicode="&#x309;" 
d="M0 631l-44 47q29 13 48.5 26.5t19.5 34.5q0 20 -16.5 28.5t-42.5 8.5q-14 0 -28.5 -2t-27.5 -5v61q43 11 91 11q32 0 58.5 -9.5t42.5 -30t16 -53.5q0 -32 -15.5 -54t-42 -36.5t-59.5 -26.5z" />
    <glyph glyph-name="uni030A" unicode="&#x30a;" 
d="M-1 609q-48 0 -81 29t-33 82t33 81.5t81 28.5q49 0 82.5 -29t33.5 -81q0 -53 -33.5 -82t-82.5 -29zM-1 665q26 0 40 15.5t14 39.5q0 25 -14 40t-40 15q-25 0 -39 -15t-14 -40q0 -24 14 -39.5t39 -15.5z" />
    <glyph glyph-name="uni030B" unicode="&#x30b;" 
d="M41 636l61 195h125l-116 -195h-70zM-112 636l50 195h111l-91 -195h-70z" />
    <glyph glyph-name="uni030C" unicode="&#x30c;" 
d="M-66 638l-88 180h100l54 -113l54 113h100l-88 -180h-132z" />
    <glyph glyph-name="uni030F" unicode="&#x30f;" 
d="M-105 639l-105 189h116l61 -189h-72zM48 639l-84 189h104l50 -189h-70z" />
    <glyph glyph-name="uni0311" unicode="&#x311;" 
d="M-145 655q1 47 15.5 81.5t47 53.5t82.5 19q51 0 83 -19t47 -53.5t15 -81.5h-78q0 43 -15.5 62.5t-51.5 19.5t-51 -19.5t-16 -62.5h-78z" />
    <glyph glyph-name="uni0312" unicode="&#x312;" 
d="M39 899l20 -53q-29 -4 -46.5 -20t-17.5 -52h71v-131h-132l1 117q0 63 22.5 100t81.5 39z" />
    <glyph glyph-name="uni031B" unicode="&#x31b;" 
d="M-10 517v61h10q30 0 42 20t12 60h99q0 -70 -41 -105.5t-111 -35.5h-11z" />
    <glyph glyph-name="dotbelowcomb" unicode="&#x323;" 
d="M-62 -193v126h124v-126h-124z" />
    <glyph glyph-name="uni0324" unicode="&#x324;" 
d="M38 -197v130h120v-130h-120zM-158 -197v130h120v-130h-120z" />
    <glyph glyph-name="uni0326" unicode="&#x326;" 
d="M-39 -323l-20 53q29 4 46.5 20t17.5 52h-71v131h132l-1 -117q0 -63 -22.5 -100t-81.5 -39z" />
    <glyph glyph-name="uni0327" unicode="&#x327;" 
d="M17 -257q-18 0 -36.5 3t-35.5 8v63q12 -4 26 -6t28 -2q26 0 44 8.5t18 28.5q0 19 -12.5 29.5t-32.5 16.5t-44 8v100h57v-61q56 0 90 -24.5t34 -70.5q0 -36 -18.5 -58t-49.5 -32.5t-68 -10.5z" />
    <glyph glyph-name="uni0328" unicode="&#x328;" 
d="M24 -246q-26 0 -52.5 3.5t-48.5 13.5t-35 29t-13 51q0 30 14 59t35.5 53t44.5 37h64q-14 -17 -27.5 -37.5t-23 -43t-9.5 -44.5q0 -32 23 -43t49 -11q8 0 16.5 0.5t14.5 1.5l-17 -66q-7 -1 -16.5 -2t-18.5 -1z" />
    <glyph glyph-name="uni032E" unicode="&#x32e;" 
d="M0 -237q-72 0 -108.5 39.5t-36.5 106.5h78q0 -36 15 -55t52 -19q36 0 51 19.5t15 54.5h78q0 -67 -36.5 -106.5t-107.5 -39.5z" />
    <glyph glyph-name="uni0331" unicode="&#x331;" 
d="M-118 -203v71h236v-71h-236z" />
    <glyph glyph-name="uni0335" unicode="&#x335;" 
d="M-112 327v71h224v-71h-224z" />
    <glyph glyph-name="Pi" unicode="&#x3a0;" horiz-adv-x="585" 
d="M57 0v810h471v-810h-134v704h-203v-704h-134z" />
    <glyph glyph-name="pi" unicode="&#x3c0;" horiz-adv-x="559" 
d="M512 -10q-78 0 -121 16.5t-59.5 50.5t-16.5 84v344h-98v-485h-135v485h-64v93h507v-93h-74v-294q0 -43 4.5 -65t19.5 -29.5t44 -7.5z" />
    <glyph glyph-name="uni0400" unicode="&#x400;" horiz-adv-x="428" 
d="M61 0v810h340v-104h-192v-233h151v-103h-151v-268h194v-102h-342zM197 866l-119 200h138l59 -200h-78z" />
    <glyph glyph-name="uni0401" unicode="&#x401;" horiz-adv-x="428" 
d="M61 0v810h340v-104h-192v-233h151v-103h-151v-268h194v-102h-342zM272 912v130h120v-130h-120zM76 912v130h120v-130h-120z" />
    <glyph glyph-name="uni0402" unicode="&#x402;" horiz-adv-x="589" 
d="M116 0v705h-115v105h395v-105h-135v-262q25 19 56 29t63 10q42 0 80.5 -17t63 -51t24.5 -85v-124q0 -74 -21 -119t-65.5 -65.5t-115.5 -20.5h-28v92q36 0 56.5 14t29 39.5t8.5 59.5v112q0 28 -17.5 51.5t-55.5 23.5q-15 0 -34.5 -5.5t-43.5 -19.5v-367h-145z" />
    <glyph glyph-name="uni0403" unicode="&#x403;" horiz-adv-x="426" 
d="M63 0v810h343v-109h-196v-701h-147zM172 866l61 200h137l-119 -200h-79z" />
    <glyph glyph-name="uni0404" unicode="&#x404;" horiz-adv-x="529" 
d="M279 -11q-89 0 -139.5 35t-70.5 95.5t-20 139.5v289q0 83 20 144t70.5 94t139.5 33q84 0 131.5 -28.5t67.5 -81.5t20 -123v-39h-142v41q0 34 -3.5 62t-19 44.5t-53.5 16.5t-55.5 -17.5t-22.5 -47t-5 -66.5v-122h164v-88h-164v-142q0 -44 7 -72.5t25.5 -43t50.5 -14.5
q37 0 52.5 17.5t19.5 46.5t4 65v44h142v-36q0 -72 -19 -127.5t-66.5 -87t-133.5 -31.5z" />
    <glyph glyph-name="uni0405" unicode="&#x405;" horiz-adv-x="494" 
d="M265 -11q-73 0 -122 28.5t-74 83.5t-28 135l127 25q2 -47 11.5 -83t29 -55.5t51.5 -19.5q36 0 51 21.5t15 54.5q0 53 -24 87t-64 68l-102 90q-43 37 -68.5 82.5t-25.5 112.5q0 96 56 148t153 52q57 0 95 -17.5t60.5 -48.5t33.5 -70.5t14 -83.5l-126 -22q-2 38 -8.5 68
t-23 47t-48.5 17q-33 0 -50.5 -21.5t-17.5 -53.5q0 -41 17 -67.5t49 -54.5l101 -89q50 -42 85.5 -98.5t35.5 -136.5q0 -58 -25.5 -103t-71 -70.5t-106.5 -25.5z" />
    <glyph glyph-name="uni0406" unicode="&#x406;" horiz-adv-x="263" 
d="M61 0v810h146v-810h-146z" />
    <glyph glyph-name="uni0407" unicode="&#x407;" horiz-adv-x="263" 
d="M61 0v810h146v-810h-146zM170 912v130h120v-130h-120zM-26 912v130h120v-130h-120z" />
    <glyph glyph-name="uni0408" unicode="&#x408;" horiz-adv-x="313" 
d="M5 -20v104q32 0 53 4t33 14.5t17 31t5 52.5v624h146v-630q0 -68 -16 -112.5t-55 -66t-112 -21.5h-71z" />
    <glyph glyph-name="uni0409" unicode="&#x409;" horiz-adv-x="863" 
d="M56 0h-44v106q31 -2 53 6.5t36 31.5t22.5 66.5t13.5 111.5l30 488h396v-340h23q83 0 138.5 -22.5t83.5 -74t28 -138.5q0 -68 -17.5 -113.5t-50.5 -72.5t-80 -38t-107 -11h-165v699h-117l-23 -379q-5 -88 -19 -149.5t-39.5 -100t-65 -55t-96.5 -15.5zM563 100h19
q42 0 68 12t38 42.5t12 83.5q-1 63 -25.5 96t-94.5 33h-17v-267z" />
    <glyph glyph-name="uni040A" unicode="&#x40a;" horiz-adv-x="809" 
d="M63 1v810h147v-336h150v336h148v-341h23q82 0 137 -22.5t83.5 -74t28.5 -138.5q0 -68 -17.5 -113.5t-50.5 -72.5t-80 -38t-107 -11l-165 1v365h-150v-365h-147zM508 100h17q43 0 68.5 12t37.5 41.5t12 81.5q0 68 -25 100t-94 32h-16v-267z" />
    <glyph glyph-name="uni040B" unicode="&#x40b;" horiz-adv-x="603" 
d="M118 0v701h-113v109h381v-109h-120v-244q29 6 52.5 8.5t47.5 2.5q93 0 141.5 -48.5t48.5 -143.5v-276h-147v276q0 32 -6 54t-22 33.5t-47 11.5q-15 0 -32 -1.5t-36 -5.5v-368h-148z" />
    <glyph glyph-name="uni040C" unicode="&#x40c;" horiz-adv-x="541" 
d="M63 0v810h147v-340h30l131 340h147l-154 -382l166 -428h-150l-140 373h-30v-373h-147zM230 866l61 200h137l-119 -200h-79z" />
    <glyph glyph-name="uni040D" unicode="&#x40d;" horiz-adv-x="568" 
d="M63 0v810h121v-511l222 511h99v-810h-122v519l-223 -519h-97zM258 866l-119 200h138l59 -200h-78z" />
    <glyph glyph-name="uni040E" unicode="&#x40e;" horiz-adv-x="505" 
d="M53 -142v103q47 -3 77.5 2t46.5 20t19 40.5t-4 62.5l-171 724h137l69 -339l37 -236l30 236l60 339h139l-157 -739q-11 -52 -22.5 -89.5t-29 -63t-46.5 -39.5t-74 -18.5t-111 -2.5zM253 874q-72 0 -108.5 39.5t-36.5 106.5h78q0 -36 15 -55t52 -19q36 0 51 19.5t15 54.5
h78q0 -67 -36.5 -106.5t-107.5 -39.5z" />
    <glyph glyph-name="uni040F" unicode="&#x40f;" horiz-adv-x="574" 
d="M235 -161l-6 161h-168v810h148v-701h156v701h147v-810h-162l-7 -161h-108z" />
    <glyph glyph-name="uni0410" unicode="&#x410;" horiz-adv-x="522" 
d="M20 0l162 810h158l162 -810h-137l-32 187h-141l-33 -187h-139zM207 281h110l-55 340z" />
    <glyph glyph-name="uni0411" unicode="&#x411;" horiz-adv-x="525" 
d="M63 0v810h376v-110h-229v-230h32q82 0 137.5 -22.5t83.5 -74t28 -138.5q0 -68 -17 -113.5t-50.5 -72.5t-80.5 -38t-107 -11h-173zM210 100h27q42 0 68 12t38 42.5t11 83.5q-1 63 -25.5 96t-93.5 33h-25v-267z" />
    <glyph glyph-name="uni0412" unicode="&#x412;" horiz-adv-x="557" 
d="M61 0v810h199q54 0 97.5 -10t75 -33.5t48.5 -63.5t17 -101q0 -49 -13.5 -84t-39.5 -55.5t-65 -27.5q48 -8 79.5 -33.5t47 -66.5t15.5 -99t-14.5 -102.5t-43 -74t-71 -44.5t-99.5 -15h-233zM209 104h56q67 0 91 32.5t24 100.5q0 49 -11.5 79.5t-38 45.5t-70.5 15h-51v-273
zM209 479h50q44 0 68 13t33.5 40t9.5 68q0 43 -14.5 66.5t-43.5 32t-74 8.5h-29v-228z" />
    <glyph glyph-name="uni0413" unicode="&#x413;" horiz-adv-x="426" 
d="M63 0v810h343v-109h-196v-701h-147z" />
    <glyph glyph-name="uni0414" unicode="&#x414;" horiz-adv-x="661" 
d="M15 -161v266h29q20 11 38.5 29.5t33.5 49.5t27.5 79.5t22 118.5t14.5 166l18 262h358v-705h85v-266h-103l-9 161h-399l-10 -161h-105zM182 105h234v599h-102l-9 -179q-4 -96 -13 -162.5t-21 -110t-26.5 -70.5t-30.5 -44t-32 -33z" />
    <glyph glyph-name="uni0415" unicode="&#x415;" horiz-adv-x="428" 
d="M61 0v810h340v-104h-192v-233h151v-103h-151v-268h194v-102h-342z" />
    <glyph glyph-name="uni0416" unicode="&#x416;" horiz-adv-x="737" 
d="M5 0l179 410l-168 400h139l147 -385h7v385h119v-385h8l146 385h140l-168 -400l179 -410h-136l-160 399h-9v-399h-119v399h-8l-160 -399h-136z" />
    <glyph glyph-name="uni0417" unicode="&#x417;" horiz-adv-x="504" 
d="M253 -12q-75 0 -121.5 28.5t-67.5 81t-21 122.5v28h138v-13.5v-16.5q1 -56 16 -85t58 -29q31 0 46.5 15t21 43.5t5.5 68.5q0 62 -22.5 98.5t-89.5 39.5q-3 1 -9.5 1h-14.5h-15v98h12h12.5h10.5q68 3 92 36t24 96q0 51 -17.5 80t-62.5 29q-42 0 -59.5 -30t-20.5 -79v-14.5
v-21.5h-138v39q0 69 26 117.5t74.5 74t116.5 25.5q69 0 117.5 -25.5t74.5 -73t26 -116.5q0 -72 -30.5 -119t-76.5 -60q31 -12 55.5 -35.5t38 -62t13.5 -95.5q0 -73 -21 -128.5t-67.5 -86t-123.5 -30.5z" />
    <glyph glyph-name="uni0418" unicode="&#x418;" horiz-adv-x="568" 
d="M63 0v810h121v-511l222 511h99v-810h-122v519l-223 -519h-97z" />
    <glyph glyph-name="uni0419" unicode="&#x419;" horiz-adv-x="568" 
d="M63 0v810h121v-511l222 511h99v-810h-122v519l-223 -519h-97zM296 874q-72 0 -108.5 39.5t-36.5 106.5h78q0 -36 15 -55t52 -19q36 0 51 19.5t15 54.5h78q0 -67 -36.5 -106.5t-107.5 -39.5z" />
    <glyph glyph-name="uni041A" unicode="&#x41a;" horiz-adv-x="541" 
d="M63 0v810h147v-340h30l131 340h147l-154 -382l166 -428h-150l-140 373h-30v-373h-147z" />
    <glyph glyph-name="uni041B" unicode="&#x41b;" horiz-adv-x="620" 
d="M5 0v106q28 -1 47.5 3.5t33 20.5t22.5 49.5t15 90.5t13 145l26 395h394v-810h-147v699h-116l-18 -302q-6 -89 -13.5 -157t-23 -115.5t-43.5 -76.5t-74 -40.5t-116 -7.5z" />
    <glyph glyph-name="uni041C" unicode="&#x41c;" horiz-adv-x="683" 
d="M59 0l14 810h153l115 -561l120 561h148l15 -810h-110l-12 563l-115 -563h-89l-117 565l-11 -565h-111z" />
    <glyph glyph-name="uni041D" unicode="&#x41d;" horiz-adv-x="586" 
d="M63 0v810h147v-339h165v339h148v-810h-148v366h-165v-366h-147z" />
    <glyph glyph-name="uni041E" unicode="&#x41e;" horiz-adv-x="563" 
d="M281 -11q-86 0 -137 32t-73 92t-22 142v303q0 82 22 140.5t73 89.5t137 31q88 0 138.5 -31t73 -89.5t22.5 -140.5v-304q0 -81 -22.5 -140.5t-73 -92t-138.5 -32.5zM281 98q37 0 54.5 16t23.5 44t6 61v373q0 34 -6 61t-23.5 42.5t-54.5 15.5q-35 0 -53 -15.5t-24 -42.5
t-6 -61v-373q0 -33 5.5 -61t23.5 -44t54 -16z" />
    <glyph glyph-name="uni041F" unicode="&#x41f;" horiz-adv-x="589" 
d="M61 0v810h467v-810h-146v705h-175v-705h-146z" />
    <glyph glyph-name="uni0420" unicode="&#x420;" horiz-adv-x="527" 
d="M61 0v810h238q73 0 118.5 -27t67 -78.5t21.5 -124.5q0 -79 -27 -127.5t-75.5 -70.5t-114.5 -22h-80v-360h-148zM209 464h56q40 0 62.5 11.5t31 37t8.5 68.5q0 44 -6.5 71.5t-28 40.5t-67.5 13h-56v-242z" />
    <glyph glyph-name="uni0421" unicode="&#x421;" horiz-adv-x="540" 
d="M279 -11q-89 0 -139.5 35t-70.5 95.5t-20 139.5v289q0 83 20 144t70.5 94t139.5 33q84 0 131.5 -28.5t67.5 -81.5t20 -123v-68h-142v70q0 34 -3.5 62t-19 44.5t-53.5 16.5t-55.5 -17.5t-22.5 -47t-5 -66.5v-352q0 -44 7 -72.5t25.5 -43t50.5 -14.5q37 0 52.5 17.5
t19.5 46.5t4 65v73h142v-65q0 -72 -19 -127.5t-66.5 -87t-133.5 -31.5z" />
    <glyph glyph-name="uni0422" unicode="&#x422;" horiz-adv-x="430" 
d="M142 0v701h-129v109h404v-109h-127v-701h-148z" />
    <glyph glyph-name="uni0423" unicode="&#x423;" horiz-adv-x="505" 
d="M53 -142v103q47 -3 77.5 2t46.5 20t19 40.5t-4 62.5l-171 724h137l69 -339l37 -236l30 236l60 339h139l-157 -739q-11 -52 -22.5 -89.5t-29 -63t-46.5 -39.5t-74 -18.5t-111 -2.5z" />
    <glyph glyph-name="uni0424" unicode="&#x424;" horiz-adv-x="712" 
d="M291 -32v128q-11 -1 -24 -2t-25 -1q-58 0 -102 21t-68.5 66.5t-24.5 118.5v224q0 69 24.5 115t69 69t104.5 23q12 0 25 -0.5t21 -1.5v142h129v-142q9 1 21.5 1.5t23.5 0.5q62 0 106.5 -23t69 -69.5t24.5 -114.5v-224q0 -73 -24 -118.5t-64.5 -67t-90.5 -21.5
q-16 0 -32.5 1t-33.5 2v-127h-129zM267 183q6 0 13 0.5t11 1.5v455q-7 1 -14.5 1.5t-14.5 0.5q-29 0 -47.5 -12t-27.5 -38t-9 -68v-226q0 -41 7.5 -66t26.5 -37t55 -12zM448 184q33 0 51.5 11t26 36.5t7.5 66.5v226q0 43 -8 69t-25.5 37.5t-48.5 11.5q-8 0 -16 -0.5
t-15 -1.5v-454q6 -1 13.5 -1.5t14.5 -0.5z" />
    <glyph glyph-name="uni0425" unicode="&#x425;" horiz-adv-x="499" 
d="M10 0l163 430l-158 380h138l105 -251l92 251h128l-156 -408l168 -402h-138l-115 272l-100 -272h-127z" />
    <glyph glyph-name="uni0426" unicode="&#x426;" horiz-adv-x="655" 
d="M523 -161l-16 161h-444v810h147v-708h182v708h147v-708h94v-263h-110z" />
    <glyph glyph-name="uni0427" unicode="&#x427;" horiz-adv-x="580" 
d="M370 0v353q-58 -11 -108 -11q-64 0 -112.5 21.5t-76 64.5t-27.5 106v276h148v-276q0 -31 8 -53.5t31 -34t65 -11.5q16 0 34 1.5t38 5.5v368h147v-810h-147z" />
    <glyph glyph-name="uni0428" unicode="&#x428;" horiz-adv-x="789" 
d="M63 0v810h142v-704h122v704h141v-704h116v704h142v-810h-663z" />
    <glyph glyph-name="uni0429" unicode="&#x429;" horiz-adv-x="855" 
d="M711 -161l-16 161h-632v810h142v-708h122v708h141v-708h116v708h143v-708h94v-263h-110z" />
    <glyph glyph-name="uni042A" unicode="&#x42a;" horiz-adv-x="601" 
d="M135 0v705h-139v105h286v-340h39q82 0 137.5 -22.5t83.5 -74t28 -138.5q0 -68 -17.5 -113.5t-50.5 -72.5t-80 -38t-107 -11h-180zM282 100h34q42 0 68 12t38 42.5t11 83.5q0 63 -25 96t-95 33h-31v-267z" />
    <glyph glyph-name="uni042B" unicode="&#x42b;" horiz-adv-x="781" 
d="M63 0v810h147v-340h36q83 0 138 -22.5t83 -74t28 -138.5q0 -68 -17.5 -113.5t-50.5 -72.5t-80 -38t-107 -11h-177zM210 100h31q42 0 68 12t38 42.5t11 83.5q0 63 -25 96t-94 33h-29v-267zM571 0v810h147v-810h-147z" />
    <glyph glyph-name="uni042C" unicode="&#x42c;" horiz-adv-x="526" 
d="M63 0v810h147v-340h36q82 0 137 -22.5t83 -74t28 -138.5q0 -68 -17 -113.5t-50.5 -72.5t-80.5 -38t-106 -11h-177zM210 100h30q43 0 68.5 12t37.5 42.5t12 83.5q-1 63 -25.5 96t-94.5 33h-28v-267z" />
    <glyph glyph-name="uni042D" unicode="&#x42d;" horiz-adv-x="548" 
d="M269 -4q-83 0 -131 29t-68 81.5t-20 122.5v42h142v-43q0 -34 3.5 -62.5t19.5 -45t53 -16.5q38 0 55.5 17.5t22 48t4.5 67.5v136h-138v82h138v133q0 44 -7 73t-24.5 43t-50.5 14q-36 0 -52 -17.5t-20 -46.5t-4 -65v-46h-142v38q0 71 19 126.5t67 87t133 31.5
q90 0 140 -34.5t70 -95t20 -140.5v-288q0 -83 -20 -144.5t-70 -94.5t-140 -33z" />
    <glyph glyph-name="uni042E" unicode="&#x42e;" horiz-adv-x="774" 
d="M510 -11q-82 0 -129 34t-66 95t-19 143v96h-90v-357h-143v810h143v-343h90v85q0 82 19 142t66 92.5t129 32.5q83 0 129.5 -33t66 -93t19.5 -141v-291q0 -81 -19.5 -142.5t-66 -95.5t-129.5 -34zM510 98q35 0 52 16t22.5 44t5.5 61v373q0 34 -5.5 61t-22.5 42.5t-52 15.5
q-34 0 -51.5 -15.5t-22.5 -42.5t-5 -61v-373q0 -33 5 -61t22.5 -44t51.5 -16z" />
    <glyph glyph-name="uni042F" unicode="&#x42f;" horiz-adv-x="576" 
d="M11 0l162 362q-50 26 -81 80.5t-31 134.5t29 131.5t87.5 76.5t148.5 25h187v-810h-147v328h-47h-9h-9l-129 -328h-161zM333 432h33v275h-36q-65 0 -98 -31.5t-33 -98.5q0 -69 29.5 -107t104.5 -38z" />
    <glyph glyph-name="uni0430" unicode="&#x430;" horiz-adv-x="452" 
d="M164 -9q-39 0 -67 20.5t-43 52t-15 65.5q0 54 20 91t53 62t75 43.5t85 33.5v50q0 25 -3.5 42t-13 26t-29.5 9q-17 0 -27.5 -8t-15 -22.5t-5.5 -33.5l-2 -35l-129 5q3 100 49.5 147.5t141.5 47.5q87 0 126.5 -48t39.5 -130v-267q0 -32 1.5 -58t4 -47t4.5 -37h-122
q-3 20 -7.5 45.5t-6.5 37.5q-10 -35 -38 -63.5t-76 -28.5zM214 92q13 0 24.5 6.5t20.5 15.5t13 16v161q-22 -13 -41.5 -26t-34 -28.5t-22 -33.5t-7.5 -42q0 -32 12.5 -50.5t34.5 -18.5z" />
    <glyph glyph-name="uni0431" unicode="&#x431;" horiz-adv-x="461" 
d="M228 -9q-66 1 -105.5 26t-57 73t-17.5 117v331q0 78 14.5 126t41.5 75t67 42q40 16 76.5 23.5t70.5 17t66 29.5l14 -111q-31 -17 -66 -25t-68.5 -14t-62.5 -19q-28 -12 -41.5 -40t-13.5 -77v-68q13 14 33.5 25t46 17t52.5 6q45 0 76.5 -19.5t48 -65t16.5 -124.5v-126
q0 -90 -24 -137.5t-67 -64.5t-100 -17zM236 83q21 0 32 10.5t15.5 36t4.5 73.5v164q0 35 -4 55.5t-14 30t-28 9.5q-10 0 -21 -5t-20.5 -16t-19.5 -29v-204q0 -48 5 -75t17 -38.5t33 -11.5z" />
    <glyph glyph-name="uni0432" unicode="&#x432;" horiz-adv-x="461" 
d="M52 0v578h185q73 0 112 -19t53.5 -50.5t15.5 -71.5q0 -50 -19.5 -80.5t-63.5 -42.5q39 -9 60 -30t29 -51t8 -66q0 -53 -18 -90.5t-61 -57t-119 -19.5h-182zM187 86h32q23 0 41 5t29 23.5t11 57.5q0 44 -10 64t-27.5 24.5t-40.5 4.5h-35v-179zM187 348h46q30 0 44.5 18
t14.5 57q0 37 -16 55.5t-54 18.5h-35v-149z" />
    <glyph glyph-name="uni0433" unicode="&#x433;" horiz-adv-x="322" 
d="M52 0v578h262v-94h-126v-484h-136z" />
    <glyph glyph-name="uni0434" unicode="&#x434;" horiz-adv-x="553" 
d="M17 -152v237q32 19 56.5 47.5t42.5 70.5t28.5 101t12.5 140l10 134h291v-490h77v-240h-98l-10 152h-301l-9 -152h-100zM159 88h172v403h-61l-7 -78q-2 -79 -11 -134t-23 -92t-32 -60t-38 -39z" />
    <glyph glyph-name="uni0435" unicode="&#x435;" horiz-adv-x="446" 
d="M227 -9q-65 0 -106 24.5t-60.5 72t-19.5 114.5v174q0 69 19.5 116t61 71t105.5 24q69 0 107.5 -26t55 -75.5t16.5 -120.5v-82h-230v-114q0 -28 5.5 -46t17.5 -26t29 -8q18 0 29 8.5t16 25t5 41.5v48h127v-39q0 -88 -44 -135t-134 -47zM176 350h102v55q0 30 -5 48.5
t-16 27t-31 8.5q-18 0 -29 -9t-16 -30t-5 -60v-40z" />
    <glyph glyph-name="uni0436" unicode="&#x436;" horiz-adv-x="621" 
d="M6 0l129 293l-121 285h122l107 -276h10v276h112v-276h10l110 276h123l-125 -285l132 -293h-117l-123 281h-10v-281h-112v281h-11l-119 -281h-117z" />
    <glyph glyph-name="uni0437" unicode="&#x437;" horiz-adv-x="414" 
d="M207 -11q-50 0 -83 14t-52.5 40t-27 62t-7.5 80h111q0 -53 15.5 -77t46.5 -24q25 0 37 12t16 33t4 47q0 33 -10.5 51t-35 24.5t-67.5 6.5v81q65 0 86 18t21 62q0 36 -14.5 54t-42.5 18q-31 0 -46 -18t-15 -69h-110q0 59 17.5 99.5t56.5 62t103 21.5q61 0 99 -21.5
t55.5 -57.5t17.5 -79q0 -44 -13.5 -71t-34.5 -40t-43 -18q24 -7 45 -19.5t34.5 -40.5t13.5 -81q0 -78 -42.5 -124t-134.5 -46z" />
    <glyph glyph-name="uni0438" unicode="&#x438;" horiz-adv-x="483" 
d="M52 0v578h111v-348l162 348h106v-578h-111v348l-159 -348h-109z" />
    <glyph glyph-name="uni0439" unicode="&#x439;" horiz-adv-x="483" 
d="M52 0v578h111v-348l162 348h106v-578h-111v348l-159 -348h-109zM244 642q-72 0 -108.5 39.5t-36.5 106.5h78q0 -36 15 -55t52 -19q36 0 51 19.5t15 54.5h78q0 -67 -36.5 -106.5t-107.5 -39.5z" />
    <glyph glyph-name="uni043A" unicode="&#x43a;" horiz-adv-x="466" 
d="M52 0v578h136v-236h27l98 236h144l-117 -276l119 -302h-142l-102 263h-27v-263h-136z" />
    <glyph glyph-name="uni043B" unicode="&#x43b;" horiz-adv-x="527" 
d="M15 -6v99q31 0 50 11t30 37.5t17 72t11 114.5l16 250h336v-578h-136v482h-83l-12 -170q-6 -95 -17.5 -157t-34 -97t-60.5 -49.5t-97 -14.5h-20z" />
    <glyph glyph-name="uni043C" unicode="&#x43c;" horiz-adv-x="556" 
d="M50 0l4 578h101l122 -315l124 315h100l4 -578h-109v324l-97 -250h-41l-98 249v-323h-110z" />
    <glyph glyph-name="uni043D" unicode="&#x43d;" horiz-adv-x="493" 
d="M52 0v578h136v-233h117v233h136v-578h-136v249h-117v-249h-136z" />
    <glyph glyph-name="uni043E" unicode="&#x43e;" horiz-adv-x="455" 
d="M227 -9q-63 0 -104 23.5t-61.5 68.5t-20.5 109v194q0 64 20.5 109t61.5 68.5t104 23.5t104.5 -23.5t62 -68.5t20.5 -109v-194q0 -64 -20.5 -109t-62 -68.5t-104.5 -23.5zM228 85q23 0 34 13t14 35.5t3 49.5v212q0 27 -3 49t-14 35.5t-34 13.5t-34 -13.5t-14.5 -35.5
t-3.5 -49v-212q0 -27 3.5 -49.5t14.5 -35.5t34 -13z" />
    <glyph glyph-name="uni043F" unicode="&#x43f;" horiz-adv-x="479" 
d="M52 0v578h375v-578h-136v482h-103v-482h-136z" />
    <glyph glyph-name="uni0440" unicode="&#x440;" horiz-adv-x="476" 
d="M52 -190v768h136v-44q25 24 55 38.5t63 14.5q39 0 64 -18t39 -47.5t19.5 -63t5.5 -64.5v-196q0 -57 -13.5 -104t-43 -75t-78.5 -28q-31 0 -58.5 15t-52.5 38v-234h-136zM248 86q22 0 32.5 14.5t14 39t3.5 53.5v207q0 27 -4 48.5t-15 34.5t-32 13q-16 0 -31.5 -7.5
t-27.5 -17.5v-365q13 -9 28 -14.5t32 -5.5z" />
    <glyph glyph-name="uni0441" unicode="&#x441;" horiz-adv-x="440" 
d="M226 -9q-67 0 -107.5 25.5t-59 73t-18.5 112.5v174q0 67 18.5 114t59.5 72t107 25q62 0 101.5 -19.5t57.5 -59t18 -99.5v-48h-128v51q0 30 -4.5 47.5t-15.5 25t-29 7.5t-29 -9.5t-15.5 -30.5t-4.5 -58v-212q0 -56 12 -75.5t38 -19.5q20 0 30.5 9t14 26.5t3.5 42.5v62h128
v-55q0 -58 -18.5 -99t-58 -61.5t-100.5 -20.5z" />
    <glyph glyph-name="uni0442" unicode="&#x442;" horiz-adv-x="376" 
d="M120 0v483h-106v95h348v-95h-107v-483h-135z" />
    <glyph glyph-name="uni0443" unicode="&#x443;" horiz-adv-x="421" 
d="M56 -157v98q35 0 57 4t32 14t10 28q0 13 -6.5 41t-14.5 61l-127 489h132l75 -381l65 381h131l-135 -601q-11 -51 -37 -80t-65 -41.5t-91 -12.5h-26z" />
    <glyph glyph-name="uni0444" unicode="&#x444;" horiz-adv-x="653" 
d="M265 -181v201h-13q-33 0 -69 9t-68 32t-52.5 65t-20.5 106v135q0 54 17.5 93t47.5 64t67 36.5t76 11.5h15v237h121v-237h19q52 0 99 -21t76.5 -66t29.5 -118v-135q0 -64 -20 -106t-51.5 -65t-67.5 -32t-68 -9h-17v-201h-121zM255 106h10v385h-12q-24 0 -43.5 -10t-31 -34
t-11.5 -65v-155q0 -44 10.5 -70.5t30.5 -38.5t47 -12zM386 106h9q27 0 47 12t31.5 38.5t11.5 70.5v155q0 41 -11.5 65t-31.5 34t-45 10h-11v-385z" />
    <glyph glyph-name="uni0445" unicode="&#x445;" horiz-adv-x="416" 
d="M10 0l126 311l-121 267h134l73 -160l64 160h116l-123 -286l132 -292h-135l-80 177l-67 -177h-119z" />
    <glyph glyph-name="uni0446" unicode="&#x446;" horiz-adv-x="527" 
d="M415 -152l-10 152h-353v578h136v-490h113v490h135v-490h77v-240h-98z" />
    <glyph glyph-name="uni0447" unicode="&#x447;" horiz-adv-x="466" 
d="M277 0v231q-16 -1 -32.5 -2.5t-32.5 -1.5q-59 0 -98 14.5t-57.5 46.5t-18.5 83v207h135v-202q0 -31 13.5 -47.5t54.5 -17.5q9 0 17.5 1t18.5 2v264h136v-578h-136z" />
    <glyph glyph-name="uni0448" unicode="&#x448;" horiz-adv-x="670" 
d="M52 0v578h128v-484h89v484h129v-484h89v484h128v-578h-563z" />
    <glyph glyph-name="uni0449" unicode="&#x449;" horiz-adv-x="722" 
d="M593 -152l-10 152h-532v578h128v-490h89v490h129v-490h89v490h128v-490h77v-240h-98z" />
    <glyph glyph-name="uni044A" unicode="&#x44a;" horiz-adv-x="520" 
d="M116 0v483h-115v95h250v-235h12q59 0 103 -8.5t72.5 -27.5t42.5 -52.5t14 -85.5q0 -45 -13 -77.5t-41 -52.5t-73.5 -29.5t-109.5 -9.5h-142zM251 78h5q44 1 69 9t35.5 27.5t10.5 54.5t-10 55.5t-34 29.5t-68 9h-8v-185z" />
    <glyph glyph-name="uni044B" unicode="&#x44b;" horiz-adv-x="683" 
d="M52 0v578h136v-235h4h4h3q60 -1 103.5 -9t72 -27t42.5 -51.5t14 -83.5q0 -47 -12.5 -79.5t-41 -53t-74 -30t-109.5 -9.5h-142zM188 78h5q44 0 69 8.5t35.5 29t10.5 56.5q0 34 -10 53.5t-34.5 28.5t-67.5 9h-3.5h-4.5v-185zM495 0v578h136v-578h-136z" />
    <glyph glyph-name="uni044C" unicode="&#x44c;" horiz-adv-x="455" 
d="M52 0v578h136v-235h4h4h3q60 -1 103.5 -8.5t72 -26.5t42.5 -51.5t14 -83.5q0 -47 -12.5 -80t-41 -53.5t-74 -30t-109.5 -9.5h-142zM188 78h5q44 0 69 8.5t35.5 29t10.5 56.5q0 34 -10 53.5t-34.5 28.5t-67.5 9h-3.5h-4.5v-185z" />
    <glyph glyph-name="uni044D" unicode="&#x44d;" horiz-adv-x="445" 
d="M219 -9q-62 0 -101 19.5t-57.5 58.5t-18.5 98v24h128v-25q0 -44 11.5 -61t37.5 -17q19 0 30 9t15 30.5t4 58.5v69h-135v65h135v74q0 38 -5 58.5t-16 28t-28 7.5q-30 0 -39.5 -19.5t-9.5 -56.5v-35h-128v30q0 58 19 98t58.5 61t100.5 21q67 0 107.5 -26t58.5 -73t18 -112
v-175q0 -66 -18.5 -113t-59.5 -72t-107 -25z" />
    <glyph glyph-name="uni044E" unicode="&#x44e;" horiz-adv-x="639" 
d="M425 -9q-58 0 -96 23.5t-56 68.5t-18 109v51h-74v-243h-129v578h129v-242h74v50q0 64 18 109t56 68.5t96 23.5t96 -23.5t57 -68.5t19 -109v-194q0 -64 -19 -109t-57 -68.5t-96 -23.5zM425 89q22 0 32 13t13 35t3 49v205q0 28 -3 50t-13 35t-32 13q-20 0 -30 -13.5
t-13 -35t-3 -49.5v-205q0 -26 3 -48.5t13 -35.5t30 -13z" />
    <glyph glyph-name="uni044F" unicode="&#x44f;" horiz-adv-x="475" 
d="M14 0l99 242q-26 12 -42.5 34.5t-24.5 54t-8 69.5q0 43 11.5 76t37.5 55.5t68 34.5t102 12h165v-578h-134v217q-10 0 -25 0.5t-25 1.5l-80 -219h-144zM278 296h5.5h4.5v205h-4.5h-4.5q-42 0 -68.5 -10.5t-38 -32.5t-11.5 -57q0 -53 27.5 -78.5t89.5 -26.5z" />
    <glyph glyph-name="uni0450" unicode="&#x450;" horiz-adv-x="446" 
d="M227 -9q-65 0 -106 24.5t-60.5 72t-19.5 114.5v174q0 69 19.5 116t61 71t105.5 24q69 0 107.5 -26t55 -75.5t16.5 -120.5v-82h-230v-114q0 -28 5.5 -46t17.5 -26t29 -8q18 0 29 8.5t16 25t5 41.5v48h127v-39q0 -88 -44 -135t-134 -47zM176 350h102v55q0 30 -5 48.5
t-16 27t-31 8.5q-18 0 -29 -9t-16 -30t-5 -60v-40zM188 634l-119 200h138l59 -200h-78z" />
    <glyph glyph-name="uni0451" unicode="&#x451;" horiz-adv-x="446" 
d="M227 -9q-65 0 -106 24.5t-60.5 72t-19.5 114.5v174q0 69 19.5 116t61 71t105.5 24q69 0 107.5 -26t55 -75.5t16.5 -120.5v-82h-230v-114q0 -28 5.5 -46t17.5 -26t29 -8q18 0 29 8.5t16 25t5 41.5v48h127v-39q0 -88 -44 -135t-134 -47zM176 350h102v55q0 30 -5 48.5
t-16 27t-31 8.5q-18 0 -29 -9t-16 -30t-5 -60v-40zM263 680v130h120v-130h-120zM67 680v130h120v-130h-120z" />
    <glyph glyph-name="uni0452" unicode="&#x452;" horiz-adv-x="484" 
d="M191 -154v76h15q32 0 51.5 8t29.5 26.5t13.5 51t3.5 81.5v250q0 28 -8 43t-34 15q-13 0 -26.5 -4t-24.5 -9t-16 -7v-377h-136v810h136v-358q11 5 29.5 13t43 15t52.5 7q47 0 73 -20t36.5 -52t10.5 -67v-245q0 -79 -10 -129.5t-34.5 -78t-67 -38.5t-109.5 -11h-28zM-9 604
v73h338v-73h-338z" />
    <glyph glyph-name="uni0453" unicode="&#x453;" horiz-adv-x="322" 
d="M52 0v578h262v-94h-126v-484h-136zM150 634l61 200h137l-119 -200h-79z" />
    <glyph glyph-name="uni0454" unicode="&#x454;" horiz-adv-x="430" 
d="M226 -9q-66 0 -107 25.5t-59.5 73t-18.5 112.5v174q0 67 19 114t59.5 72t106.5 25q63 0 102 -19.5t57.5 -59t18.5 -98.5v-29h-128v29q0 31 -5 48t-15.5 24t-28.5 7t-29.5 -8.5t-15.5 -30t-4 -59.5v-61h137v-72h-137v-74q0 -57 11.5 -76t38.5 -19q20 0 30 9t14 26.5
t4 42.5v40h128v-35q0 -59 -19 -99.5t-58 -61t-101 -20.5z" />
    <glyph glyph-name="uni0455" unicode="&#x455;" horiz-adv-x="400" 
d="M209 -9q-73 0 -120 39t-67 114l101 39q12 -47 32 -72t52 -25q24 0 36 12t12 33q0 24 -14.5 43.5t-49.5 48.5l-70 59q-38 33 -61.5 67.5t-23.5 86.5q0 47 21.5 80.5t59 52t83.5 18.5q70 0 112.5 -41.5t54.5 -108.5l-89 -38q-5 24 -14.5 44.5t-24.5 33.5t-35 13
q-21 0 -33.5 -13t-12.5 -33q0 -17 14.5 -35t41.5 -41l71 -64q23 -20 44 -43t35 -51.5t14 -65.5q0 -50 -22.5 -84t-61 -51.5t-85.5 -17.5z" />
    <glyph glyph-name="uni0456" unicode="&#x456;" horiz-adv-x="248" 
d="M56 0v578h136v-578h-136zM56 670v113h136v-113h-136z" />
    <glyph glyph-name="uni0457" unicode="&#x457;" horiz-adv-x="253" 
d="M60 0v578h136v-578h-136zM166 680v130h120v-130h-120zM-30 680v130h120v-130h-120z" />
    <glyph glyph-name="uni0458" unicode="&#x458;" horiz-adv-x="254" 
d="M58 -164q-18 0 -37 3t-35 8v97q6 -1 14.5 -2t14.5 -1q18 0 29 7t16.5 20t5.5 32v578h136v-594q0 -68 -37.5 -108t-106.5 -40zM66 670v113h137v-113h-137z" />
    <glyph glyph-name="uni0459" unicode="&#x459;" horiz-adv-x="737" 
d="M20 -6v99q42 0 63 20.5t30.5 71t14.5 140.5l16 253h336v-238h11q57 0 98.5 -8.5t68.5 -27t40 -51t13 -81.5q0 -46 -12.5 -78.5t-39.5 -53t-69.5 -30.5t-103.5 -10h-141v482h-84l-12 -183q-6 -97 -19.5 -157.5t-37 -92.5t-60.5 -43.5t-92 -11.5h-20zM480 78h5
q39 0 61.5 8.5t32 29t9.5 54.5q0 33 -9.5 52.5t-31.5 28.5t-62 9h-5v-182z" />
    <glyph glyph-name="uni045A" unicode="&#x45a;" horiz-adv-x="679" 
d="M52 0v578h136v-235h103v236h136v-239h4h4.5h3.5q56 -1 97 -9.5t67.5 -27.5t39.5 -52t13 -82q0 -46 -12.5 -77.5t-39 -51.5t-69.5 -29.5t-105 -9.5h-139v239h-103v-240h-136zM427 79h2h3h2q37 1 59 9.5t31.5 28t9.5 51.5q0 34 -9 53.5t-30.5 28.5t-60.5 10h-1.5h-3h-2.5
v-181z" />
    <glyph glyph-name="uni045B" unicode="&#x45b;" horiz-adv-x="488" 
d="M59 0v810h136v-358q11 5 29.5 13t43 15t52.5 7q47 0 73 -20t36.5 -52t10.5 -67v-348h-136v339q0 28 -8 43t-34 15q-10 0 -24 -4t-26 -9t-17 -7v-377h-136zM-9 604v73h338v-73h-338z" />
    <glyph glyph-name="uni045C" unicode="&#x45c;" horiz-adv-x="466" 
d="M52 0v578h136v-236h27l98 236h144l-117 -276l119 -302h-142l-102 263h-27v-263h-136zM212 634l61 200h137l-119 -200h-79z" />
    <glyph glyph-name="uni045D" unicode="&#x45d;" horiz-adv-x="483" 
d="M52 0v578h111v-348l162 348h106v-578h-111v348l-159 -348h-109zM207 634l-119 200h138l59 -200h-78z" />
    <glyph glyph-name="uni045E" unicode="&#x45e;" horiz-adv-x="421" 
d="M56 -157v98q35 0 57 4t32 14t10 28q0 13 -6.5 41t-14.5 61l-127 489h132l75 -381l65 381h131l-135 -601q-11 -51 -37 -80t-65 -41.5t-91 -12.5h-26zM218 642q-72 0 -108.5 39.5t-36.5 106.5h78q0 -36 15 -55t52 -19q36 0 51 19.5t15 54.5h78q0 -67 -36.5 -106.5
t-107.5 -39.5z" />
    <glyph glyph-name="uni045F" unicode="&#x45f;" horiz-adv-x="483" 
d="M198 -152l-9 152h-137v578h136v-490h107v490h135v-578h-129l-8 -152h-95z" />
    <glyph glyph-name="uni0462" unicode="&#x462;" horiz-adv-x="575" 
d="M428 684v-105h-424v105h424zM112 0v810h147v-340h37q82 0 137 -22.5t83 -74t28 -138.5q0 -68 -17 -113.5t-50.5 -72.5t-80.5 -38t-107 -11h-177zM259 100h31q42 0 68 12t38 42.5t11 83.5q0 63 -24.5 96t-94.5 33h-29v-267z" />
    <glyph glyph-name="uni0463" unicode="&#x463;" horiz-adv-x="482" 
d="M79 0v810h136v-467h4h4h4q59 -1 102.5 -9t72 -27t43 -52.5t14.5 -85.5q0 -45 -13.5 -77.5t-41.5 -52.5t-73 -29.5t-110 -9.5h-142zM215 78h5q43 1 68.5 9t36.5 27.5t11 54.5q0 36 -10.5 56t-34.5 29t-67 9h-4h-5v-185zM-6 483v95h362v-95h-362z" />
    <glyph glyph-name="uni046A" unicode="&#x46a;" horiz-adv-x="709" 
d="M5 0l226 520l119 -66l120 79l235 -533h-136l-147 390h-8v-390h-119v390h-7l-148 -390h-135zM275 425l-221 385h595l-215 -385h-159zM342 474l152 282l29 -50h-341l27 49l161 -281h-28z" />
    <glyph glyph-name="uni046B" unicode="&#x46b;" horiz-adv-x="572" 
d="M6 0l167 356l112 -72l115 72l166 -356h-117l-103 251h-6v-251h-108v251h-6l-103 -251h-117zM300 312l-26 2l118 211l20 -35h-256l20 35zM208 279l-178 299h507l-173 -299h-156z" />
    <glyph glyph-name="uni0490" unicode="&#x490;" horiz-adv-x="420" 
d="M63 0v810h255v120h88v-229h-196v-701h-147z" />
    <glyph glyph-name="uni0491" unicode="&#x491;" horiz-adv-x="325" 
d="M53 0v578h193v108h71v-202h-128v-484h-136z" />
    <glyph glyph-name="uni0492" unicode="&#x492;" horiz-adv-x="444" 
d="M5 474h366v-107h-366v107zM238 0h-147v810h332v-102h-185v-708z" />
    <glyph glyph-name="uni0493" unicode="&#x493;" horiz-adv-x="390" 
d="M0 348h334v-95h-334v95zM212 0h-136v578h303v-101h-167v-477z" />
    <glyph glyph-name="uni0496" unicode="&#x496;" horiz-adv-x="771" 
d="M667 -32l48 137l58 -130l-51 -136zM5 0l179 410l-168 400h139l147 -385h7v385h119v-385h8l146 385h140l-168 -400l179 -410h-136l-160 399h-9v-399h-119v399h-8l-160 -399h-136z" />
    <glyph glyph-name="uni0497" unicode="&#x497;" horiz-adv-x="648" 
d="M554 -152l-16 240h114v-240h-98zM6 0l129 293l-121 285h122l107 -276h10v276h112v-276h10l110 276h123l-125 -285l132 -293h-117l-123 281h-10v-281h-112v281h-11l-119 -281h-117z" />
    <glyph glyph-name="uni049A" unicode="&#x49a;" horiz-adv-x="564" 
d="M460 -32l48 137l58 -130l-51 -136zM61 0v810h148v-356l160 356h141l-155 -362l171 -448h-147l-136 369l-34 -62v-307h-148z" />
    <glyph glyph-name="uni049B" unicode="&#x49b;" horiz-adv-x="496" 
d="M401 -152l-16 240h114v-240h-98zM52 0v578h136v-236h27l98 236h144l-117 -276l119 -302h-142l-102 263h-27v-263h-136z" />
    <glyph glyph-name="uni04A2" unicode="&#x4a2;" horiz-adv-x="600" 
d="M63 0v810h147v-339h165v339h148v-810h-148v366h-165v-366h-147zM492 -32l48 137l58 -130l-51 -136z" />
    <glyph glyph-name="uni04A3" unicode="&#x4a3;" horiz-adv-x="521" 
d="M417 -152l-16 240h114v-240h-98zM52 0v578h136v-233h117v233h136v-578h-136v249h-117v-249h-136z" />
    <glyph glyph-name="Ustraitcy" unicode="&#x4ae;" horiz-adv-x="487" 
d="M174 0v309l-164 501h138l100 -321l94 321h135l-162 -501v-309h-141z" />
    <glyph glyph-name="ustraitcy" unicode="&#x4af;" horiz-adv-x="418" 
d="M152 -173v231l-145 520h128l78 -340l70 340h127l-138 -517v-234h-120z" />
    <glyph glyph-name="Ustraitstrokecy" unicode="&#x4b0;" horiz-adv-x="490" 
d="M35 266v94h426v-94h-426zM178 0v309l-164 501h138l99 -321l95 321h135l-162 -501v-309h-141z" />
    <glyph glyph-name="ustraitstrokecy" unicode="&#x4b1;" horiz-adv-x="421" 
d="M42 -8v82h338v-82h-338zM152 -173v231l-145 520h128l78 -340l70 340h127l-138 -517v-234h-120z" />
    <glyph glyph-name="uni04BA" unicode="&#x4ba;" horiz-adv-x="579" 
d="M209 810v-353q30 6 55 8.5t49 2.5q106 0 162.5 -48.5t56.5 -143.5v-276h-147v276q0 32 -8 54t-30.5 33.5t-65.5 11.5q-16 0 -34 -1.5t-38 -5.5v-368h-148v810h148z" />
    <glyph glyph-name="uni04BB" unicode="&#x4bb;" horiz-adv-x="478" 
d="M54 0v810h136v-287q30 30 65.5 47t77.5 17q35 0 56 -17.5t31 -46.5t10 -63v-460h-136v433q0 26 -8 40t-31 14q-14 0 -31.5 -8t-33.5 -21v-458h-136z" />
    <glyph glyph-name="uni04C9" unicode="&#x4c9;" horiz-adv-x="600" 
d="M63 0v810h147v-339h165v339h148v-810h-148v366h-165v-366h-147zM461 -32l79 137l38 -130l-81 -136z" />
    <glyph glyph-name="uni04CA" unicode="&#x4ca;" horiz-adv-x="521" 
d="M360 -152l41 240h114l-56 -240h-99zM52 0v578h136v-233h117v233h136v-578h-136v249h-117v-249h-136z" />
    <glyph glyph-name="uni04D8" unicode="&#x4d8;" horiz-adv-x="559" 
d="M279 -11q-80 0 -132 30t-77 87.5t-25 138.5v176h316v174q0 39 -7.5 65t-25.5 38.5t-51 12.5q-31 0 -49.5 -12.5t-26 -38.5t-7.5 -65v-93h-149v66q0 81 25 137t77 85t132 29q78 0 129 -30.5t77 -88t26 -137.5v-315q0 -80 -26 -138t-77 -89.5t-129 -31.5zM278 98
q32 0 50.5 13.5t25.5 39.5t7 64v107h-167v-107q0 -38 7.5 -64t26 -39.5t50.5 -13.5z" />
    <glyph glyph-name="uni04D9" unicode="&#x4d9;" horiz-adv-x="446" 
d="M219 -11q-68 0 -107 26t-55.5 75.5t-16.5 120.5v83h230v112q0 24 -4.5 43t-15 29.5t-31.5 10.5q-18 0 -29 -8t-16 -25t-5 -41v-49h-128v40q0 87 44.5 134t133.5 47q65 0 106.5 -24t60.5 -71.5t19 -115.5v-175q0 -68 -19.5 -115.5t-60.5 -72t-106 -24.5zM219 88
q20 0 30.5 8.5t15.5 30t5 59.5v40h-101v-54q0 -29 4.5 -48t16 -27.5t29.5 -8.5z" />
    <glyph glyph-name="uni04E8" unicode="&#x4e8;" horiz-adv-x="564" 
d="M122 367v94h320v-94h-320zM281 -11q-86 0 -137 32t-73 92t-22 142v303q0 82 22 140.5t73 89.5t137 31q88 0 138.5 -31t73 -89.5t22.5 -140.5v-304q0 -81 -22.5 -140.5t-73 -92t-138.5 -32.5zM281 98q37 0 54.5 16t23.5 44t6 61v373q0 34 -6 61t-23.5 42.5t-54.5 15.5
q-35 0 -53 -15.5t-24 -42.5t-6 -61v-373q0 -33 5.5 -61t23.5 -44t54 -16z" />
    <glyph glyph-name="uni04E9" unicode="&#x4e9;" horiz-adv-x="454" 
d="M108 260v73h242v-73h-242zM227 -9q-63 0 -104 23.5t-61.5 68.5t-20.5 109v194q0 64 20.5 109t61.5 68.5t104 23.5t104.5 -23.5t62 -68.5t20.5 -109v-194q0 -64 -20.5 -109t-62 -68.5t-104.5 -23.5zM228 85q23 0 34 13t14 35.5t3 49.5v212q0 27 -3 49t-14 35.5t-34 13.5
t-34 -13.5t-14.5 -35.5t-3.5 -49v-212q0 -27 3.5 -49.5t14.5 -35.5t34 -13z" />
    <glyph glyph-name="uni1E02" unicode="&#x1e02;" horiz-adv-x="557" 
d="M61 0v810h199q54 0 97.5 -10t75 -33.5t48.5 -63.5t17 -101q0 -49 -13.5 -84t-39.5 -55.5t-65 -27.5q48 -8 79.5 -33.5t47 -66.5t15.5 -99t-14.5 -102.5t-43 -74t-71 -44.5t-99.5 -15h-233zM209 104h56q67 0 91 32.5t24 100.5q0 49 -11.5 79.5t-38 45.5t-70.5 15h-51v-273
zM209 479h50q44 0 68 13t33.5 40t9.5 68q0 43 -14.5 66.5t-43.5 32t-74 8.5h-29v-228zM213 893v137h132v-137h-132z" />
    <glyph glyph-name="uni1E03" unicode="&#x1e03;" horiz-adv-x="477" 
d="M301 -9q-32 0 -60 15t-52 37v-43h-136v810h136v-276q25 24 54.5 38.5t63.5 14.5q39 0 64 -18t39 -47.5t19.5 -63t5.5 -64.5v-196q0 -57 -13.5 -104t-43 -75t-77.5 -28zM249 86q22 0 32.5 14.5t14 39t3.5 53.5v207q0 27 -4 48.5t-14.5 34.5t-32.5 13q-16 0 -31 -7.5
t-28 -16.5v-365q13 -9 28.5 -15t31.5 -6zM56 893v137h132v-137h-132z" />
    <glyph glyph-name="uni1E0A" unicode="&#x1e0a;" horiz-adv-x="557" 
d="M61 0v810h191q99 0 154.5 -27t79 -83t23.5 -142v-296q0 -88 -23.5 -146.5t-78 -87t-149.5 -28.5h-197zM209 103h45q51 0 73 18t27 52.5t5 84.5v310q0 49 -7 79t-29 44t-71 14h-43v-602zM213 893v137h132v-137h-132z" />
    <glyph glyph-name="uni1E0B" unicode="&#x1e0b;" horiz-adv-x="473" 
d="M182 -9q-69 0 -104.5 49t-35.5 157v177q0 60 13.5 108t43.5 76.5t81 28.5q31 0 57.5 -12.5t48.5 -32.5v268h136v-810h-136v41q-23 -23 -49 -36.5t-55 -13.5zM232 85q11 0 25 5t29 14v371q-12 8 -26 13.5t-29 5.5q-29 0 -40.5 -26.5t-11.5 -64.5v-216q0 -29 4 -52
t15.5 -36.5t33.5 -13.5zM288 893v137h132v-137h-132z" />
    <glyph glyph-name="uni1E1E" unicode="&#x1e1e;" horiz-adv-x="413" 
d="M61 0v810h333v-102h-185v-236h151v-103h-151v-369h-148zM141 893v137h132v-137h-132z" />
    <glyph glyph-name="uni1E1F" unicode="&#x1e1f;" horiz-adv-x="304" 
d="M80 0v483h-62v95h62v37q0 52 9.5 90.5t40 59.5t92.5 21q19 0 36 -1.5t38 -4.5v-101q-8 2 -18.5 3.5t-19.5 1.5q-24 0 -33 -15t-9 -44v-47h80v-95h-80v-483h-136zM130 864v137h132v-137h-132z" />
    <glyph glyph-name="uni1E40" unicode="&#x1e40;" horiz-adv-x="683" 
d="M59 0l14 810h153l115 -561l120 561h148l15 -810h-110l-12 563l-115 -563h-89l-117 565l-11 -565h-111zM275 893v137h132v-137h-132z" />
    <glyph glyph-name="uni1E41" unicode="&#x1e41;" horiz-adv-x="718" 
d="M52 0v578h131v-50q30 32 65 46.5t71 14.5q34 0 59.5 -17t37.5 -54q33 38 70 54.5t76 16.5q31 0 55 -15.5t38 -46t14 -76.5v-451h-130v439q0 33 -11 45.5t-31 12.5q-16 0 -35.5 -9t-35.5 -25v-5.5v-6.5v-451h-129v439q0 33 -11.5 45.5t-31.5 12.5q-16 0 -35 -9t-36 -25
v-463h-131zM293 661v137h132v-137h-132z" />
    <glyph glyph-name="uni1E56" unicode="&#x1e56;" horiz-adv-x="527" 
d="M61 0v810h238q73 0 118.5 -27t67 -78.5t21.5 -124.5q0 -79 -27 -127.5t-75.5 -70.5t-114.5 -22h-80v-360h-148zM209 464h56q40 0 62.5 11.5t31 37t8.5 68.5q0 44 -6.5 71.5t-28 40.5t-67.5 13h-56v-242zM198 893v137h132v-137h-132z" />
    <glyph glyph-name="uni1E57" unicode="&#x1e57;" horiz-adv-x="476" 
d="M52 -190v768h136v-44q25 24 55 38.5t63 14.5q39 0 64 -18t39 -47.5t19.5 -63t5.5 -64.5v-196q0 -57 -13.5 -104t-43 -75t-78.5 -28q-31 0 -58.5 15t-52.5 38v-234h-136zM248 86q22 0 32.5 14.5t14 39t3.5 53.5v207q0 27 -4 48.5t-15 34.5t-32 13q-16 0 -31.5 -7.5
t-27.5 -17.5v-365q13 -9 28 -14.5t32 -5.5zM172 661v137h132v-137h-132z" />
    <glyph glyph-name="uni1E60" unicode="&#x1e60;" horiz-adv-x="494" 
d="M265 -11q-73 0 -122 28.5t-74 83.5t-28 135l127 25q2 -47 11.5 -83t29 -55.5t51.5 -19.5q36 0 51 21.5t15 54.5q0 53 -24 87t-64 68l-102 90q-43 37 -68.5 82.5t-25.5 112.5q0 96 56 148t153 52q57 0 95 -17.5t60.5 -48.5t33.5 -70.5t14 -83.5l-126 -22q-2 38 -8.5 68
t-23 47t-48.5 17q-33 0 -50.5 -21.5t-17.5 -53.5q0 -41 17 -67.5t49 -54.5l101 -89q50 -42 85.5 -98.5t35.5 -136.5q0 -58 -25.5 -103t-71 -70.5t-106.5 -25.5zM181 893v137h132v-137h-132z" />
    <glyph glyph-name="uni1E61" unicode="&#x1e61;" horiz-adv-x="400" 
d="M209 -9q-73 0 -120 39t-67 114l101 39q12 -47 32 -72t52 -25q24 0 36 12t12 33q0 24 -14.5 43.5t-49.5 48.5l-70 59q-38 33 -61.5 67.5t-23.5 86.5q0 47 21.5 80.5t59 52t83.5 18.5q70 0 112.5 -41.5t54.5 -108.5l-89 -38q-5 24 -14.5 44.5t-24.5 33.5t-35 13
q-21 0 -33.5 -13t-12.5 -33q0 -17 14.5 -35t41.5 -41l71 -64q23 -20 44 -43t35 -51.5t14 -65.5q0 -50 -22.5 -84t-61 -51.5t-85.5 -17.5zM134 661v137h132v-137h-132z" />
    <glyph glyph-name="uni1E6A" unicode="&#x1e6a;" horiz-adv-x="422" 
d="M142 0v701h-129v109h404v-109h-127v-701h-148zM145 893v137h132v-137h-132z" />
    <glyph glyph-name="uni1E6B" unicode="&#x1e6b;" horiz-adv-x="332" 
d="M219 -7q-55 0 -86.5 18t-44.5 52t-13 81v344h-58v90h58v173h137v-173h88v-90h-88v-332q0 -30 13 -42.5t39 -12.5q11 0 21.5 1t20.5 2v-104q-17 -2 -39.5 -4.5t-47.5 -2.5zM78 834v137h132v-137h-132z" />
    <glyph glyph-name="Wgrave" unicode="&#x1e80;" horiz-adv-x="712" 
d="M146 0l-115 810h124l67 -525l84 523h101l86 -523l66 525h122l-113 -810h-120l-90 543l-89 -543h-123zM320 866l-119 200h138l59 -200h-78z" />
    <glyph glyph-name="wgrave" unicode="&#x1e81;" horiz-adv-x="593" 
d="M113 0l-89 578h113l51 -375l60 375h101l57 -379l55 379h107l-91 -578h-115l-64 365l-67 -365h-118zM260 634l-119 200h138l59 -200h-78z" />
    <glyph glyph-name="Wacute" unicode="&#x1e82;" horiz-adv-x="712" 
d="M146 0l-115 810h124l67 -525l84 523h101l86 -523l66 525h122l-113 -810h-120l-90 543l-89 -543h-123zM316 866l61 200h137l-119 -200h-79z" />
    <glyph glyph-name="wacute" unicode="&#x1e83;" horiz-adv-x="593" 
d="M113 0l-89 578h113l51 -375l60 375h101l57 -379l55 379h107l-91 -578h-115l-64 365l-67 -365h-118zM256 634l61 200h137l-119 -200h-79z" />
    <glyph glyph-name="Wdieresis" unicode="&#x1e84;" horiz-adv-x="712" 
d="M146 0l-115 810h124l67 -525l84 523h101l86 -523l66 525h122l-113 -810h-120l-90 543l-89 -543h-123zM395 912v130h120v-130h-120zM199 912v130h120v-130h-120z" />
    <glyph glyph-name="wdieresis" unicode="&#x1e85;" horiz-adv-x="593" 
d="M113 0l-89 578h113l51 -375l60 375h101l57 -379l55 379h107l-91 -578h-115l-64 365l-67 -365h-118zM335 680v130h120v-130h-120zM139 680v130h120v-130h-120z" />
    <glyph glyph-name="uni1E9E" unicode="&#x1e9e;" horiz-adv-x="582" 
d="M278 -11v103h27q51 0 77.5 32t26.5 106q0 73 -25.5 106t-78.5 33h-17v103l121 225q-15 7 -35.5 10.5t-44.5 3.5q-65 0 -95.5 -38t-30.5 -111v-562h-148v557q0 78 27.5 137t85.5 92t149 33q62 0 110 -13t90 -35v-105l-142 -263l-38 52q108 0 160.5 -57t52.5 -165
q0 -129 -59.5 -186.5t-170.5 -57.5h-42z" />
    <glyph glyph-name="uni1EA0" unicode="&#x1ea0;" horiz-adv-x="522" 
d="M20 0l162 810h158l162 -810h-137l-32 187h-141l-33 -187h-139zM207 281h110l-55 340zM199 -193v126h124v-126h-124z" />
    <glyph glyph-name="uni1EA1" unicode="&#x1ea1;" horiz-adv-x="452" 
d="M164 -9q-39 0 -67 20.5t-43 52t-15 65.5q0 54 20 91t53 62t75 43.5t85 33.5v50q0 25 -3.5 42t-13 26t-29.5 9q-17 0 -27.5 -8t-15 -22.5t-5.5 -33.5l-2 -35l-129 5q3 100 49.5 147.5t141.5 47.5q87 0 126.5 -48t39.5 -130v-267q0 -32 1.5 -58t4 -47t4.5 -37h-122
q-3 20 -7.5 45.5t-6.5 37.5q-10 -35 -38 -63.5t-76 -28.5zM214 92q13 0 24.5 6.5t20.5 15.5t13 16v161q-22 -13 -41.5 -26t-34 -28.5t-22 -33.5t-7.5 -42q0 -32 12.5 -50.5t34.5 -18.5zM164 -193v126h124v-126h-124z" />
    <glyph glyph-name="uni1EA2" unicode="&#x1ea2;" horiz-adv-x="522" 
d="M20 0l162 810h158l162 -810h-137l-32 187h-141l-33 -187h-139zM207 281h110l-55 340zM261 863l-44 47q29 13 48.5 26.5t19.5 34.5q0 20 -16.5 28.5t-42.5 8.5q-14 0 -28.5 -2t-27.5 -5v61q43 11 91 11q32 0 58.5 -9.5t42.5 -30t16 -53.5q0 -32 -15.5 -54t-42 -36.5
t-59.5 -26.5z" />
    <glyph glyph-name="uni1EA3" unicode="&#x1ea3;" horiz-adv-x="452" 
d="M164 -9q-39 0 -67 20.5t-43 52t-15 65.5q0 54 20 91t53 62t75 43.5t85 33.5v50q0 25 -3.5 42t-13 26t-29.5 9q-17 0 -27.5 -8t-15 -22.5t-5.5 -33.5l-2 -35l-129 5q3 100 49.5 147.5t141.5 47.5q87 0 126.5 -48t39.5 -130v-267q0 -32 1.5 -58t4 -47t4.5 -37h-122
q-3 20 -7.5 45.5t-6.5 37.5q-10 -35 -38 -63.5t-76 -28.5zM214 92q13 0 24.5 6.5t20.5 15.5t13 16v161q-22 -13 -41.5 -26t-34 -28.5t-22 -33.5t-7.5 -42q0 -32 12.5 -50.5t34.5 -18.5zM237 631l-44 47q29 13 48.5 26.5t19.5 34.5q0 20 -16.5 28.5t-42.5 8.5q-14 0 -28.5 -2
t-27.5 -5v61q43 11 91 11q32 0 58.5 -9.5t42.5 -30t16 -53.5q0 -32 -15.5 -54t-42 -36.5t-59.5 -26.5z" />
    <glyph glyph-name="uni1EA4" unicode="&#x1ea4;" horiz-adv-x="522" 
d="M20 0l162 810h158l162 -810h-137l-32 187h-141l-33 -187h-139zM207 281h110l-55 340zM109 874l90 161h122l92 -161h-99l-54 101l-53 -101h-98zM392 985l53 120h108l-85 -120h-76z" />
    <glyph glyph-name="uni1EA5" unicode="&#x1ea5;" horiz-adv-x="452" 
d="M164 -9q-39 0 -67 20.5t-43 52t-15 65.5q0 54 20 91t53 62t75 43.5t85 33.5v50q0 25 -3.5 42t-13 26t-29.5 9q-17 0 -27.5 -8t-15 -22.5t-5.5 -33.5l-2 -35l-129 5q3 100 49.5 147.5t141.5 47.5q87 0 126.5 -48t39.5 -130v-267q0 -32 1.5 -58t4 -47t4.5 -37h-122
q-3 20 -7.5 45.5t-6.5 37.5q-10 -35 -38 -63.5t-76 -28.5zM214 92q13 0 24.5 6.5t20.5 15.5t13 16v161q-22 -13 -41.5 -26t-34 -28.5t-22 -33.5t-7.5 -42q0 -32 12.5 -50.5t34.5 -18.5zM85 642l90 161h122l92 -161h-99l-54 101l-53 -101h-98zM368 753l53 120h108l-85 -120
h-76z" />
    <glyph glyph-name="uni1EA6" unicode="&#x1ea6;" horiz-adv-x="522" 
d="M20 0l162 810h158l162 -810h-137l-32 187h-141l-33 -187h-139zM207 281h110l-55 340zM109 874l90 161h122l92 -161h-99l-54 101l-53 -101h-98zM419 985l-84 120h108l53 -120h-77z" />
    <glyph glyph-name="uni1EA7" unicode="&#x1ea7;" horiz-adv-x="452" 
d="M164 -9q-39 0 -67 20.5t-43 52t-15 65.5q0 54 20 91t53 62t75 43.5t85 33.5v50q0 25 -3.5 42t-13 26t-29.5 9q-17 0 -27.5 -8t-15 -22.5t-5.5 -33.5l-2 -35l-129 5q3 100 49.5 147.5t141.5 47.5q87 0 126.5 -48t39.5 -130v-267q0 -32 1.5 -58t4 -47t4.5 -37h-122
q-3 20 -7.5 45.5t-6.5 37.5q-10 -35 -38 -63.5t-76 -28.5zM214 92q13 0 24.5 6.5t20.5 15.5t13 16v161q-22 -13 -41.5 -26t-34 -28.5t-22 -33.5t-7.5 -42q0 -32 12.5 -50.5t34.5 -18.5zM85 642l90 161h122l92 -161h-99l-54 101l-53 -101h-98zM395 753l-84 120h108l53 -120
h-77z" />
    <glyph glyph-name="uni1EA8" unicode="&#x1ea8;" horiz-adv-x="522" 
d="M20 0l162 810h158l162 -810h-137l-32 187h-141l-33 -187h-139zM207 281h110l-55 340zM425 961l-40 45q19 14 30.5 27t11.5 32q0 20 -13.5 30t-33.5 10q-14 0 -26.5 -2.5t-22.5 -6.5v61q19 7 38 10t40 3q46 0 77 -22.5t31 -70.5q0 -46 -27 -71.5t-65 -44.5zM109 874
l90 161h122l92 -161h-99l-54 101l-53 -101h-98z" />
    <glyph glyph-name="uni1EA9" unicode="&#x1ea9;" horiz-adv-x="452" 
d="M164 -9q-39 0 -67 20.5t-43 52t-15 65.5q0 54 20 91t53 62t75 43.5t85 33.5v50q0 25 -3.5 42t-13 26t-29.5 9q-17 0 -27.5 -8t-15 -22.5t-5.5 -33.5l-2 -35l-129 5q3 100 49.5 147.5t141.5 47.5q87 0 126.5 -48t39.5 -130v-267q0 -32 1.5 -58t4 -47t4.5 -37h-122
q-3 20 -7.5 45.5t-6.5 37.5q-10 -35 -38 -63.5t-76 -28.5zM214 92q13 0 24.5 6.5t20.5 15.5t13 16v161q-22 -13 -41.5 -26t-34 -28.5t-22 -33.5t-7.5 -42q0 -32 12.5 -50.5t34.5 -18.5zM401 729l-40 45q19 14 30.5 27t11.5 32q0 20 -13.5 30t-33.5 10q-14 0 -26.5 -2.5
t-22.5 -6.5v61q19 7 38 10t40 3q46 0 77 -22.5t31 -70.5q0 -46 -27 -71.5t-65 -44.5zM85 642l90 161h122l92 -161h-99l-54 101l-53 -101h-98z" />
    <glyph glyph-name="uni1EAA" unicode="&#x1eaa;" horiz-adv-x="522" 
d="M20 0l162 810h158l162 -810h-137l-32 187h-141l-33 -187h-139zM207 281h110l-55 340zM109 874l90 161h122l92 -161h-99l-54 101l-53 -101h-98zM340 1082q-27 0 -48 12.5t-40 24t-40 11.5q-20 0 -27.5 -10.5t-7.5 -30.5h-70q0 36 7.5 64.5t26.5 45t51 16.5q25 0 45 -11.5
t39.5 -23t40.5 -11.5q17 0 24.5 10t7.5 30h66q0 -31 -5 -60t-21.5 -48t-48.5 -19z" />
    <glyph glyph-name="uni1EAB" unicode="&#x1eab;" horiz-adv-x="452" 
d="M164 -9q-39 0 -67 20.5t-43 52t-15 65.5q0 54 20 91t53 62t75 43.5t85 33.5v50q0 25 -3.5 42t-13 26t-29.5 9q-17 0 -27.5 -8t-15 -22.5t-5.5 -33.5l-2 -35l-129 5q3 100 49.5 147.5t141.5 47.5q87 0 126.5 -48t39.5 -130v-267q0 -32 1.5 -58t4 -47t4.5 -37h-122
q-3 20 -7.5 45.5t-6.5 37.5q-10 -35 -38 -63.5t-76 -28.5zM214 92q13 0 24.5 6.5t20.5 15.5t13 16v161q-22 -13 -41.5 -26t-34 -28.5t-22 -33.5t-7.5 -42q0 -32 12.5 -50.5t34.5 -18.5zM85 642l90 161h122l92 -161h-99l-54 101l-53 -101h-98zM316 850q-27 0 -48 12.5t-40 24
t-40 11.5q-20 0 -27.5 -10.5t-7.5 -30.5h-70q0 36 7.5 64.5t26.5 45t51 16.5q25 0 45 -11.5t39.5 -23t40.5 -11.5q17 0 24.5 10t7.5 30h66q0 -31 -5 -60t-21.5 -48t-48.5 -19z" />
    <glyph glyph-name="uni1EAC" unicode="&#x1eac;" horiz-adv-x="522" 
d="M20 0l162 810h158l162 -810h-137l-32 187h-141l-33 -187h-139zM207 281h110l-55 340zM109 874l90 161h122l92 -161h-99l-54 101l-53 -101h-98zM199 -193v126h124v-126h-124z" />
    <glyph glyph-name="uni1EAD" unicode="&#x1ead;" horiz-adv-x="452" 
d="M164 -9q-39 0 -67 20.5t-43 52t-15 65.5q0 54 20 91t53 62t75 43.5t85 33.5v50q0 25 -3.5 42t-13 26t-29.5 9q-17 0 -27.5 -8t-15 -22.5t-5.5 -33.5l-2 -35l-129 5q3 100 49.5 147.5t141.5 47.5q87 0 126.5 -48t39.5 -130v-267q0 -32 1.5 -58t4 -47t4.5 -37h-122
q-3 20 -7.5 45.5t-6.5 37.5q-10 -35 -38 -63.5t-76 -28.5zM214 92q13 0 24.5 6.5t20.5 15.5t13 16v161q-22 -13 -41.5 -26t-34 -28.5t-22 -33.5t-7.5 -42q0 -32 12.5 -50.5t34.5 -18.5zM164 -193v126h124v-126h-124zM85 642l90 161h122l92 -161h-99l-54 101l-53 -101h-98z
" />
    <glyph glyph-name="uni1EAE" unicode="&#x1eae;" horiz-adv-x="522" 
d="M20 0l162 810h158l162 -810h-137l-32 187h-141l-33 -187h-139zM207 281h110l-55 340zM202 1052l68 117h120l-108 -117h-80zM262 863q-72 0 -108.5 39.5t-36.5 106.5h78q0 -36 15 -55t52 -19q36 0 51 19.5t15 54.5h78q0 -67 -36.5 -106.5t-107.5 -39.5z" />
    <glyph glyph-name="uni1EAF" unicode="&#x1eaf;" horiz-adv-x="452" 
d="M164 -9q-39 0 -67 20.5t-43 52t-15 65.5q0 54 20 91t53 62t75 43.5t85 33.5v50q0 25 -3.5 42t-13 26t-29.5 9q-17 0 -27.5 -8t-15 -22.5t-5.5 -33.5l-2 -35l-129 5q3 100 49.5 147.5t141.5 47.5q87 0 126.5 -48t39.5 -130v-267q0 -32 1.5 -58t4 -47t4.5 -37h-122
q-3 20 -7.5 45.5t-6.5 37.5q-10 -35 -38 -63.5t-76 -28.5zM214 92q13 0 24.5 6.5t20.5 15.5t13 16v161q-22 -13 -41.5 -26t-34 -28.5t-22 -33.5t-7.5 -42q0 -32 12.5 -50.5t34.5 -18.5zM178 820l68 117h120l-108 -117h-80zM238 631q-72 0 -108.5 39.5t-36.5 106.5h78
q0 -36 15 -55t52 -19q36 0 51 19.5t15 54.5h78q0 -67 -36.5 -106.5t-107.5 -39.5z" />
    <glyph glyph-name="uni1EB0" unicode="&#x1eb0;" horiz-adv-x="522" 
d="M20 0l162 810h158l162 -810h-137l-32 187h-141l-33 -187h-139zM207 281h110l-55 340zM239 1052l-108 117h120l67 -117h-79zM262 863q-72 0 -108.5 39.5t-36.5 106.5h78q0 -36 15 -55t52 -19q36 0 51 19.5t15 54.5h78q0 -67 -36.5 -106.5t-107.5 -39.5z" />
    <glyph glyph-name="uni1EB1" unicode="&#x1eb1;" horiz-adv-x="452" 
d="M164 -9q-39 0 -67 20.5t-43 52t-15 65.5q0 54 20 91t53 62t75 43.5t85 33.5v50q0 25 -3.5 42t-13 26t-29.5 9q-17 0 -27.5 -8t-15 -22.5t-5.5 -33.5l-2 -35l-129 5q3 100 49.5 147.5t141.5 47.5q87 0 126.5 -48t39.5 -130v-267q0 -32 1.5 -58t4 -47t4.5 -37h-122
q-3 20 -7.5 45.5t-6.5 37.5q-10 -35 -38 -63.5t-76 -28.5zM214 92q13 0 24.5 6.5t20.5 15.5t13 16v161q-22 -13 -41.5 -26t-34 -28.5t-22 -33.5t-7.5 -42q0 -32 12.5 -50.5t34.5 -18.5zM215 820l-108 117h120l67 -117h-79zM238 631q-72 0 -108.5 39.5t-36.5 106.5h78
q0 -36 15 -55t52 -19q36 0 51 19.5t15 54.5h78q0 -67 -36.5 -106.5t-107.5 -39.5z" />
    <glyph glyph-name="uni1EB2" unicode="&#x1eb2;" horiz-adv-x="522" 
d="M20 0l162 810h158l162 -810h-137l-32 187h-141l-33 -187h-139zM207 281h110l-55 340zM270 1022l-40 45q19 14 30.5 27t11.5 32q0 20 -13.5 30t-33.5 10q-13 0 -25.5 -2.5t-23.5 -6.5v61q19 7 38.5 10t39.5 3q47 0 78 -22.5t31 -70.5q0 -43 -27 -70t-66 -46zM262 874
q-72 0 -108.5 39.5t-36.5 106.5h78q0 -36 15 -55t52 -19q36 0 51 19.5t15 54.5h78q0 -67 -36.5 -106.5t-107.5 -39.5z" />
    <glyph glyph-name="uni1EB3" unicode="&#x1eb3;" horiz-adv-x="452" 
d="M164 -9q-39 0 -67 20.5t-43 52t-15 65.5q0 54 20 91t53 62t75 43.5t85 33.5v50q0 25 -3.5 42t-13 26t-29.5 9q-17 0 -27.5 -8t-15 -22.5t-5.5 -33.5l-2 -35l-129 5q3 100 49.5 147.5t141.5 47.5q87 0 126.5 -48t39.5 -130v-267q0 -32 1.5 -58t4 -47t4.5 -37h-122
q-3 20 -7.5 45.5t-6.5 37.5q-10 -35 -38 -63.5t-76 -28.5zM214 92q13 0 24.5 6.5t20.5 15.5t13 16v161q-22 -13 -41.5 -26t-34 -28.5t-22 -33.5t-7.5 -42q0 -32 12.5 -50.5t34.5 -18.5zM246 790l-40 45q19 14 30.5 27t11.5 32q0 20 -13.5 30t-33.5 10q-13 0 -25.5 -2.5
t-23.5 -6.5v61q19 7 38.5 10t39.5 3q47 0 78 -22.5t31 -70.5q0 -43 -27 -70t-66 -46zM238 642q-72 0 -108.5 39.5t-36.5 106.5h78q0 -36 15 -55t52 -19q36 0 51 19.5t15 54.5h78q0 -67 -36.5 -106.5t-107.5 -39.5z" />
    <glyph glyph-name="uni1EB4" unicode="&#x1eb4;" horiz-adv-x="522" 
d="M20 0l162 810h158l162 -810h-137l-32 187h-141l-33 -187h-139zM207 281h110l-55 340zM261 874q-72 0 -108.5 39.5t-36.5 106.5h78q0 -36 15 -55t52 -19q36 0 51 19.5t15 54.5h78q0 -67 -36.5 -106.5t-107.5 -39.5zM340 1071q-27 0 -48 12.5t-40 24t-40 11.5
q-20 0 -27.5 -10.5t-7.5 -30.5h-70q0 36 7.5 64.5t26.5 45t51 16.5q25 0 45 -11.5t39.5 -23t40.5 -11.5q17 0 24.5 10t7.5 30h66q0 -31 -5 -60t-21.5 -48t-48.5 -19z" />
    <glyph glyph-name="uni1EB5" unicode="&#x1eb5;" horiz-adv-x="452" 
d="M164 -9q-39 0 -67 20.5t-43 52t-15 65.5q0 54 20 91t53 62t75 43.5t85 33.5v50q0 25 -3.5 42t-13 26t-29.5 9q-17 0 -27.5 -8t-15 -22.5t-5.5 -33.5l-2 -35l-129 5q3 100 49.5 147.5t141.5 47.5q87 0 126.5 -48t39.5 -130v-267q0 -32 1.5 -58t4 -47t4.5 -37h-122
q-3 20 -7.5 45.5t-6.5 37.5q-10 -35 -38 -63.5t-76 -28.5zM214 92q13 0 24.5 6.5t20.5 15.5t13 16v161q-22 -13 -41.5 -26t-34 -28.5t-22 -33.5t-7.5 -42q0 -32 12.5 -50.5t34.5 -18.5zM237 642q-72 0 -108.5 39.5t-36.5 106.5h78q0 -36 15 -55t52 -19q36 0 51 19.5t15 54.5
h78q0 -67 -36.5 -106.5t-107.5 -39.5zM316 839q-27 0 -48 12.5t-40 24t-40 11.5q-20 0 -27.5 -10.5t-7.5 -30.5h-70q0 36 7.5 64.5t26.5 45t51 16.5q25 0 45 -11.5t39.5 -23t40.5 -11.5q17 0 24.5 10t7.5 30h66q0 -31 -5 -60t-21.5 -48t-48.5 -19z" />
    <glyph glyph-name="uni1EB6" unicode="&#x1eb6;" horiz-adv-x="522" 
d="M20 0l162 810h158l162 -810h-137l-32 187h-141l-33 -187h-139zM207 281h110l-55 340zM199 -193v126h124v-126h-124zM262 874q-72 0 -108.5 39.5t-36.5 106.5h78q0 -36 15 -55t52 -19q36 0 51 19.5t15 54.5h78q0 -67 -36.5 -106.5t-107.5 -39.5z" />
    <glyph glyph-name="uni1EB7" unicode="&#x1eb7;" horiz-adv-x="452" 
d="M164 -9q-39 0 -67 20.5t-43 52t-15 65.5q0 54 20 91t53 62t75 43.5t85 33.5v50q0 25 -3.5 42t-13 26t-29.5 9q-17 0 -27.5 -8t-15 -22.5t-5.5 -33.5l-2 -35l-129 5q3 100 49.5 147.5t141.5 47.5q87 0 126.5 -48t39.5 -130v-267q0 -32 1.5 -58t4 -47t4.5 -37h-122
q-3 20 -7.5 45.5t-6.5 37.5q-10 -35 -38 -63.5t-76 -28.5zM214 92q13 0 24.5 6.5t20.5 15.5t13 16v161q-22 -13 -41.5 -26t-34 -28.5t-22 -33.5t-7.5 -42q0 -32 12.5 -50.5t34.5 -18.5zM164 -193v126h124v-126h-124zM238 642q-72 0 -108.5 39.5t-36.5 106.5h78q0 -36 15 -55
t52 -19q36 0 51 19.5t15 54.5h78q0 -67 -36.5 -106.5t-107.5 -39.5z" />
    <glyph glyph-name="uni1EB8" unicode="&#x1eb8;" horiz-adv-x="428" 
d="M61 0v810h340v-104h-192v-233h151v-103h-151v-268h194v-102h-342zM152 -193v126h124v-126h-124z" />
    <glyph glyph-name="uni1EB9" unicode="&#x1eb9;" horiz-adv-x="446" 
d="M227 -9q-65 0 -106 24.5t-60.5 72t-19.5 114.5v174q0 69 19.5 116t61 71t105.5 24q69 0 107.5 -26t55 -75.5t16.5 -120.5v-82h-230v-114q0 -28 5.5 -46t17.5 -26t29 -8q18 0 29 8.5t16 25t5 41.5v48h127v-39q0 -88 -44 -135t-134 -47zM176 350h102v55q0 30 -5 48.5
t-16 27t-31 8.5q-18 0 -29 -9t-16 -30t-5 -60v-40zM161 -193v126h124v-126h-124z" />
    <glyph glyph-name="uni1EBA" unicode="&#x1eba;" horiz-adv-x="428" 
d="M61 0v810h340v-104h-192v-233h151v-103h-151v-268h194v-102h-342zM234 863l-44 47q29 13 48.5 26.5t19.5 34.5q0 20 -16.5 28.5t-42.5 8.5q-14 0 -28.5 -2t-27.5 -5v61q43 11 91 11q32 0 58.5 -9.5t42.5 -30t16 -53.5q0 -32 -15.5 -54t-42 -36.5t-59.5 -26.5z" />
    <glyph glyph-name="uni1EBB" unicode="&#x1ebb;" horiz-adv-x="446" 
d="M227 -9q-65 0 -106 24.5t-60.5 72t-19.5 114.5v174q0 69 19.5 116t61 71t105.5 24q69 0 107.5 -26t55 -75.5t16.5 -120.5v-82h-230v-114q0 -28 5.5 -46t17.5 -26t29 -8q18 0 29 8.5t16 25t5 41.5v48h127v-39q0 -88 -44 -135t-134 -47zM176 350h102v55q0 30 -5 48.5
t-16 27t-31 8.5q-18 0 -29 -9t-16 -30t-5 -60v-40zM225 631l-44 47q29 13 48.5 26.5t19.5 34.5q0 20 -16.5 28.5t-42.5 8.5q-14 0 -28.5 -2t-27.5 -5v61q43 11 91 11q32 0 58.5 -9.5t42.5 -30t16 -53.5q0 -32 -15.5 -54t-42 -36.5t-59.5 -26.5z" />
    <glyph glyph-name="uni1EBC" unicode="&#x1ebc;" horiz-adv-x="428" 
d="M61 0v810h340v-104h-192v-233h151v-103h-151v-268h194v-102h-342zM313 915q-27 0 -48 12.5t-40 24t-40 11.5q-20 0 -27.5 -10.5t-7.5 -30.5h-70q0 36 7.5 64.5t26.5 45t51 16.5q25 0 45 -11.5t39.5 -23t40.5 -11.5q17 0 24.5 10t7.5 30h66q0 -31 -5 -60t-21.5 -48
t-48.5 -19z" />
    <glyph glyph-name="uni1EBD" unicode="&#x1ebd;" horiz-adv-x="446" 
d="M227 -9q-65 0 -106 24.5t-60.5 72t-19.5 114.5v174q0 69 19.5 116t61 71t105.5 24q69 0 107.5 -26t55 -75.5t16.5 -120.5v-82h-230v-114q0 -28 5.5 -46t17.5 -26t29 -8q18 0 29 8.5t16 25t5 41.5v48h127v-39q0 -88 -44 -135t-134 -47zM176 350h102v55q0 30 -5 48.5
t-16 27t-31 8.5q-18 0 -29 -9t-16 -30t-5 -60v-40zM304 683q-27 0 -48 12.5t-40 24t-40 11.5q-20 0 -27.5 -10.5t-7.5 -30.5h-70q0 36 7.5 64.5t26.5 45t51 16.5q25 0 45 -11.5t39.5 -23t40.5 -11.5q17 0 24.5 10t7.5 30h66q0 -31 -5 -60t-21.5 -48t-48.5 -19z" />
    <glyph glyph-name="uni1EBE" unicode="&#x1ebe;" horiz-adv-x="428" 
d="M61 0v810h340v-104h-192v-233h151v-103h-151v-268h194v-102h-342zM82 874l90 161h122l92 -161h-99l-54 101l-53 -101h-98zM365 985l53 120h108l-85 -120h-76z" />
    <glyph glyph-name="uni1EBF" unicode="&#x1ebf;" horiz-adv-x="446" 
d="M227 -9q-65 0 -106 24.5t-60.5 72t-19.5 114.5v174q0 69 19.5 116t61 71t105.5 24q69 0 107.5 -26t55 -75.5t16.5 -120.5v-82h-230v-114q0 -28 5.5 -46t17.5 -26t29 -8q18 0 29 8.5t16 25t5 41.5v48h127v-39q0 -88 -44 -135t-134 -47zM176 350h102v55q0 30 -5 48.5
t-16 27t-31 8.5q-18 0 -29 -9t-16 -30t-5 -60v-40zM73 642l90 161h122l92 -161h-99l-54 101l-53 -101h-98zM356 753l53 120h108l-85 -120h-76z" />
    <glyph glyph-name="uni1EC0" unicode="&#x1ec0;" horiz-adv-x="428" 
d="M61 0v810h340v-104h-192v-233h151v-103h-151v-268h194v-102h-342zM82 874l90 161h122l92 -161h-99l-54 101l-53 -101h-98zM392 985l-84 120h108l53 -120h-77z" />
    <glyph glyph-name="uni1EC1" unicode="&#x1ec1;" horiz-adv-x="446" 
d="M227 -9q-65 0 -106 24.5t-60.5 72t-19.5 114.5v174q0 69 19.5 116t61 71t105.5 24q69 0 107.5 -26t55 -75.5t16.5 -120.5v-82h-230v-114q0 -28 5.5 -46t17.5 -26t29 -8q18 0 29 8.5t16 25t5 41.5v48h127v-39q0 -88 -44 -135t-134 -47zM176 350h102v55q0 30 -5 48.5
t-16 27t-31 8.5q-18 0 -29 -9t-16 -30t-5 -60v-40zM73 642l90 161h122l92 -161h-99l-54 101l-53 -101h-98zM383 753l-84 120h108l53 -120h-77z" />
    <glyph glyph-name="uni1EC2" unicode="&#x1ec2;" horiz-adv-x="428" 
d="M61 0v810h340v-104h-192v-233h151v-103h-151v-268h194v-102h-342zM398 961l-40 45q19 14 30.5 27t11.5 32q0 20 -13.5 30t-33.5 10q-14 0 -26.5 -2.5t-22.5 -6.5v61q19 7 38 10t40 3q46 0 77 -22.5t31 -70.5q0 -46 -27 -71.5t-65 -44.5zM82 874l90 161h122l92 -161h-99
l-54 101l-53 -101h-98z" />
    <glyph glyph-name="uni1EC3" unicode="&#x1ec3;" horiz-adv-x="446" 
d="M227 -9q-65 0 -106 24.5t-60.5 72t-19.5 114.5v174q0 69 19.5 116t61 71t105.5 24q69 0 107.5 -26t55 -75.5t16.5 -120.5v-82h-230v-114q0 -28 5.5 -46t17.5 -26t29 -8q18 0 29 8.5t16 25t5 41.5v48h127v-39q0 -88 -44 -135t-134 -47zM176 350h102v55q0 30 -5 48.5
t-16 27t-31 8.5q-18 0 -29 -9t-16 -30t-5 -60v-40zM389 729l-40 45q19 14 30.5 27t11.5 32q0 20 -13.5 30t-33.5 10q-14 0 -26.5 -2.5t-22.5 -6.5v61q19 7 38 10t40 3q46 0 77 -22.5t31 -70.5q0 -46 -27 -71.5t-65 -44.5zM73 642l90 161h122l92 -161h-99l-54 101l-53 -101
h-98z" />
    <glyph glyph-name="uni1EC4" unicode="&#x1ec4;" horiz-adv-x="428" 
d="M61 0v810h340v-104h-192v-233h151v-103h-151v-268h194v-102h-342zM82 874l90 161h122l92 -161h-99l-54 101l-53 -101h-98zM313 1082q-27 0 -48 12.5t-40 24t-40 11.5q-20 0 -27.5 -10.5t-7.5 -30.5h-70q0 36 7.5 64.5t26.5 45t51 16.5q25 0 45 -11.5t39.5 -23t40.5 -11.5
q17 0 24.5 10t7.5 30h66q0 -31 -5 -60t-21.5 -48t-48.5 -19z" />
    <glyph glyph-name="uni1EC5" unicode="&#x1ec5;" horiz-adv-x="446" 
d="M227 -9q-65 0 -106 24.5t-60.5 72t-19.5 114.5v174q0 69 19.5 116t61 71t105.5 24q69 0 107.5 -26t55 -75.5t16.5 -120.5v-82h-230v-114q0 -28 5.5 -46t17.5 -26t29 -8q18 0 29 8.5t16 25t5 41.5v48h127v-39q0 -88 -44 -135t-134 -47zM176 350h102v55q0 30 -5 48.5
t-16 27t-31 8.5q-18 0 -29 -9t-16 -30t-5 -60v-40zM73 642l90 161h122l92 -161h-99l-54 101l-53 -101h-98zM304 850q-27 0 -48 12.5t-40 24t-40 11.5q-20 0 -27.5 -10.5t-7.5 -30.5h-70q0 36 7.5 64.5t26.5 45t51 16.5q25 0 45 -11.5t39.5 -23t40.5 -11.5q17 0 24.5 10
t7.5 30h66q0 -31 -5 -60t-21.5 -48t-48.5 -19z" />
    <glyph glyph-name="uni1EC6" unicode="&#x1ec6;" horiz-adv-x="428" 
d="M61 0v810h340v-104h-192v-233h151v-103h-151v-268h194v-102h-342zM82 874l90 161h122l92 -161h-99l-54 101l-53 -101h-98zM152 -193v126h124v-126h-124z" />
    <glyph glyph-name="uni1EC7" unicode="&#x1ec7;" horiz-adv-x="446" 
d="M227 -9q-65 0 -106 24.5t-60.5 72t-19.5 114.5v174q0 69 19.5 116t61 71t105.5 24q69 0 107.5 -26t55 -75.5t16.5 -120.5v-82h-230v-114q0 -28 5.5 -46t17.5 -26t29 -8q18 0 29 8.5t16 25t5 41.5v48h127v-39q0 -88 -44 -135t-134 -47zM176 350h102v55q0 30 -5 48.5
t-16 27t-31 8.5q-18 0 -29 -9t-16 -30t-5 -60v-40zM161 -193v126h124v-126h-124zM73 642l90 161h122l92 -161h-99l-54 101l-53 -101h-98z" />
    <glyph glyph-name="uni1EC8" unicode="&#x1ec8;" horiz-adv-x="275" 
d="M65 0v810h146v-810h-146zM137 863l-44 47q29 13 48.5 26.5t19.5 34.5q0 20 -16.5 28.5t-42.5 8.5q-14 0 -28.5 -2t-27.5 -5v61q43 11 91 11q32 0 58.5 -9.5t42.5 -30t16 -53.5q0 -32 -15.5 -54t-42 -36.5t-59.5 -26.5z" />
    <glyph glyph-name="uni1EC9" unicode="&#x1ec9;" horiz-adv-x="253" 
d="M60 0v578h136v-578h-136zM128 631l-44 47q29 13 48.5 26.5t19.5 34.5q0 20 -16.5 28.5t-42.5 8.5q-14 0 -28.5 -2t-27.5 -5v61q43 11 91 11q32 0 58.5 -9.5t42.5 -30t16 -53.5q0 -32 -15.5 -54t-42 -36.5t-59.5 -26.5z" />
    <glyph glyph-name="uni1ECA" unicode="&#x1eca;" horiz-adv-x="275" 
d="M65 0v810h146v-810h-146zM75 -193v126h124v-126h-124z" />
    <glyph glyph-name="uni1ECB" unicode="&#x1ecb;" horiz-adv-x="248" 
d="M56 0v578h136v-578h-136zM56 670v113h136v-113h-136zM62 -193v126h124v-126h-124z" />
    <glyph glyph-name="uni1ECC" unicode="&#x1ecc;" horiz-adv-x="563" 
d="M281 -11q-86 0 -137 32t-73 92t-22 142v303q0 82 22 140.5t73 89.5t137 31q88 0 138.5 -31t73 -89.5t22.5 -140.5v-304q0 -81 -22.5 -140.5t-73 -92t-138.5 -32.5zM281 98q37 0 54.5 16t23.5 44t6 61v373q0 34 -6 61t-23.5 42.5t-54.5 15.5q-35 0 -53 -15.5t-24 -42.5
t-6 -61v-373q0 -33 5.5 -61t23.5 -44t54 -16zM220 -193v126h124v-126h-124z" />
    <glyph glyph-name="uni1ECD" unicode="&#x1ecd;" horiz-adv-x="455" 
d="M227 -9q-63 0 -104 23.5t-61.5 68.5t-20.5 109v194q0 64 20.5 109t61.5 68.5t104 23.5t104.5 -23.5t62 -68.5t20.5 -109v-194q0 -64 -20.5 -109t-62 -68.5t-104.5 -23.5zM228 85q23 0 34 13t14 35.5t3 49.5v212q0 27 -3 49t-14 35.5t-34 13.5t-34 -13.5t-14.5 -35.5
t-3.5 -49v-212q0 -27 3.5 -49.5t14.5 -35.5t34 -13zM166 -193v126h124v-126h-124z" />
    <glyph glyph-name="uni1ECE" unicode="&#x1ece;" horiz-adv-x="563" 
d="M281 -11q-86 0 -137 32t-73 92t-22 142v303q0 82 22 140.5t73 89.5t137 31q88 0 138.5 -31t73 -89.5t22.5 -140.5v-304q0 -81 -22.5 -140.5t-73 -92t-138.5 -32.5zM281 98q37 0 54.5 16t23.5 44t6 61v373q0 34 -6 61t-23.5 42.5t-54.5 15.5q-35 0 -53 -15.5t-24 -42.5
t-6 -61v-373q0 -33 5.5 -61t23.5 -44t54 -16zM282 863l-44 47q29 13 48.5 26.5t19.5 34.5q0 20 -16.5 28.5t-42.5 8.5q-14 0 -28.5 -2t-27.5 -5v61q43 11 91 11q32 0 58.5 -9.5t42.5 -30t16 -53.5q0 -32 -15.5 -54t-42 -36.5t-59.5 -26.5z" />
    <glyph glyph-name="uni1ECF" unicode="&#x1ecf;" horiz-adv-x="455" 
d="M227 -9q-63 0 -104 23.5t-61.5 68.5t-20.5 109v194q0 64 20.5 109t61.5 68.5t104 23.5t104.5 -23.5t62 -68.5t20.5 -109v-194q0 -64 -20.5 -109t-62 -68.5t-104.5 -23.5zM228 85q23 0 34 13t14 35.5t3 49.5v212q0 27 -3 49t-14 35.5t-34 13.5t-34 -13.5t-14.5 -35.5
t-3.5 -49v-212q0 -27 3.5 -49.5t14.5 -35.5t34 -13zM227 631l-44 47q29 13 48.5 26.5t19.5 34.5q0 20 -16.5 28.5t-42.5 8.5q-14 0 -28.5 -2t-27.5 -5v61q43 11 91 11q32 0 58.5 -9.5t42.5 -30t16 -53.5q0 -32 -15.5 -54t-42 -36.5t-59.5 -26.5z" />
    <glyph glyph-name="uni1ED0" unicode="&#x1ed0;" horiz-adv-x="563" 
d="M281 -11q-86 0 -137 32t-73 92t-22 142v303q0 82 22 140.5t73 89.5t137 31q88 0 138.5 -31t73 -89.5t22.5 -140.5v-304q0 -81 -22.5 -140.5t-73 -92t-138.5 -32.5zM281 98q37 0 54.5 16t23.5 44t6 61v373q0 34 -6 61t-23.5 42.5t-54.5 15.5q-35 0 -53 -15.5t-24 -42.5
t-6 -61v-373q0 -33 5.5 -61t23.5 -44t54 -16zM130 874l90 161h122l92 -161h-99l-54 101l-53 -101h-98zM413 985l53 120h108l-85 -120h-76z" />
    <glyph glyph-name="uni1ED1" unicode="&#x1ed1;" horiz-adv-x="455" 
d="M227 -9q-63 0 -104 23.5t-61.5 68.5t-20.5 109v194q0 64 20.5 109t61.5 68.5t104 23.5t104.5 -23.5t62 -68.5t20.5 -109v-194q0 -64 -20.5 -109t-62 -68.5t-104.5 -23.5zM228 85q23 0 34 13t14 35.5t3 49.5v212q0 27 -3 49t-14 35.5t-34 13.5t-34 -13.5t-14.5 -35.5
t-3.5 -49v-212q0 -27 3.5 -49.5t14.5 -35.5t34 -13zM75 642l90 161h122l92 -161h-99l-54 101l-53 -101h-98zM358 753l53 120h108l-85 -120h-76z" />
    <glyph glyph-name="uni1ED2" unicode="&#x1ed2;" horiz-adv-x="563" 
d="M281 -11q-86 0 -137 32t-73 92t-22 142v303q0 82 22 140.5t73 89.5t137 31q88 0 138.5 -31t73 -89.5t22.5 -140.5v-304q0 -81 -22.5 -140.5t-73 -92t-138.5 -32.5zM281 98q37 0 54.5 16t23.5 44t6 61v373q0 34 -6 61t-23.5 42.5t-54.5 15.5q-35 0 -53 -15.5t-24 -42.5
t-6 -61v-373q0 -33 5.5 -61t23.5 -44t54 -16zM130 874l90 161h122l92 -161h-99l-54 101l-53 -101h-98zM440 985l-84 120h108l53 -120h-77z" />
    <glyph glyph-name="uni1ED3" unicode="&#x1ed3;" horiz-adv-x="455" 
d="M227 -9q-63 0 -104 23.5t-61.5 68.5t-20.5 109v194q0 64 20.5 109t61.5 68.5t104 23.5t104.5 -23.5t62 -68.5t20.5 -109v-194q0 -64 -20.5 -109t-62 -68.5t-104.5 -23.5zM228 85q23 0 34 13t14 35.5t3 49.5v212q0 27 -3 49t-14 35.5t-34 13.5t-34 -13.5t-14.5 -35.5
t-3.5 -49v-212q0 -27 3.5 -49.5t14.5 -35.5t34 -13zM75 642l90 161h122l92 -161h-99l-54 101l-53 -101h-98zM385 753l-84 120h108l53 -120h-77z" />
    <glyph glyph-name="uni1ED4" unicode="&#x1ed4;" horiz-adv-x="563" 
d="M281 -11q-86 0 -137 32t-73 92t-22 142v303q0 82 22 140.5t73 89.5t137 31q88 0 138.5 -31t73 -89.5t22.5 -140.5v-304q0 -81 -22.5 -140.5t-73 -92t-138.5 -32.5zM281 98q37 0 54.5 16t23.5 44t6 61v373q0 34 -6 61t-23.5 42.5t-54.5 15.5q-35 0 -53 -15.5t-24 -42.5
t-6 -61v-373q0 -33 5.5 -61t23.5 -44t54 -16zM446 961l-40 45q19 14 30.5 27t11.5 32q0 20 -13.5 30t-33.5 10q-14 0 -26.5 -2.5t-22.5 -6.5v61q19 7 38 10t40 3q46 0 77 -22.5t31 -70.5q0 -46 -27 -71.5t-65 -44.5zM130 874l90 161h122l92 -161h-99l-54 101l-53 -101h-98z
" />
    <glyph glyph-name="uni1ED5" unicode="&#x1ed5;" horiz-adv-x="455" 
d="M227 -9q-63 0 -104 23.5t-61.5 68.5t-20.5 109v194q0 64 20.5 109t61.5 68.5t104 23.5t104.5 -23.5t62 -68.5t20.5 -109v-194q0 -64 -20.5 -109t-62 -68.5t-104.5 -23.5zM228 85q23 0 34 13t14 35.5t3 49.5v212q0 27 -3 49t-14 35.5t-34 13.5t-34 -13.5t-14.5 -35.5
t-3.5 -49v-212q0 -27 3.5 -49.5t14.5 -35.5t34 -13zM391 729l-40 45q19 14 30.5 27t11.5 32q0 20 -13.5 30t-33.5 10q-14 0 -26.5 -2.5t-22.5 -6.5v61q19 7 38 10t40 3q46 0 77 -22.5t31 -70.5q0 -46 -27 -71.5t-65 -44.5zM75 642l90 161h122l92 -161h-99l-54 101l-53 -101
h-98z" />
    <glyph glyph-name="uni1ED6" unicode="&#x1ed6;" horiz-adv-x="563" 
d="M281 -11q-86 0 -137 32t-73 92t-22 142v303q0 82 22 140.5t73 89.5t137 31q88 0 138.5 -31t73 -89.5t22.5 -140.5v-304q0 -81 -22.5 -140.5t-73 -92t-138.5 -32.5zM281 98q37 0 54.5 16t23.5 44t6 61v373q0 34 -6 61t-23.5 42.5t-54.5 15.5q-35 0 -53 -15.5t-24 -42.5
t-6 -61v-373q0 -33 5.5 -61t23.5 -44t54 -16zM130 874l90 161h122l92 -161h-99l-54 101l-53 -101h-98zM361 1082q-27 0 -48 12.5t-40 24t-40 11.5q-20 0 -27.5 -10.5t-7.5 -30.5h-70q0 36 7.5 64.5t26.5 45t51 16.5q25 0 45 -11.5t39.5 -23t40.5 -11.5q17 0 24.5 10t7.5 30
h66q0 -31 -5 -60t-21.5 -48t-48.5 -19z" />
    <glyph glyph-name="uni1ED7" unicode="&#x1ed7;" horiz-adv-x="455" 
d="M227 -9q-63 0 -104 23.5t-61.5 68.5t-20.5 109v194q0 64 20.5 109t61.5 68.5t104 23.5t104.5 -23.5t62 -68.5t20.5 -109v-194q0 -64 -20.5 -109t-62 -68.5t-104.5 -23.5zM228 85q23 0 34 13t14 35.5t3 49.5v212q0 27 -3 49t-14 35.5t-34 13.5t-34 -13.5t-14.5 -35.5
t-3.5 -49v-212q0 -27 3.5 -49.5t14.5 -35.5t34 -13zM75 642l90 161h122l92 -161h-99l-54 101l-53 -101h-98zM306 850q-27 0 -48 12.5t-40 24t-40 11.5q-20 0 -27.5 -10.5t-7.5 -30.5h-70q0 36 7.5 64.5t26.5 45t51 16.5q25 0 45 -11.5t39.5 -23t40.5 -11.5q17 0 24.5 10
t7.5 30h66q0 -31 -5 -60t-21.5 -48t-48.5 -19z" />
    <glyph glyph-name="uni1ED8" unicode="&#x1ed8;" horiz-adv-x="563" 
d="M281 -11q-86 0 -137 32t-73 92t-22 142v303q0 82 22 140.5t73 89.5t137 31q88 0 138.5 -31t73 -89.5t22.5 -140.5v-304q0 -81 -22.5 -140.5t-73 -92t-138.5 -32.5zM281 98q37 0 54.5 16t23.5 44t6 61v373q0 34 -6 61t-23.5 42.5t-54.5 15.5q-35 0 -53 -15.5t-24 -42.5
t-6 -61v-373q0 -33 5.5 -61t23.5 -44t54 -16zM130 874l90 161h122l92 -161h-99l-54 101l-53 -101h-98zM220 -193v126h124v-126h-124z" />
    <glyph glyph-name="uni1ED9" unicode="&#x1ed9;" horiz-adv-x="455" 
d="M227 -9q-63 0 -104 23.5t-61.5 68.5t-20.5 109v194q0 64 20.5 109t61.5 68.5t104 23.5t104.5 -23.5t62 -68.5t20.5 -109v-194q0 -64 -20.5 -109t-62 -68.5t-104.5 -23.5zM228 85q23 0 34 13t14 35.5t3 49.5v212q0 27 -3 49t-14 35.5t-34 13.5t-34 -13.5t-14.5 -35.5
t-3.5 -49v-212q0 -27 3.5 -49.5t14.5 -35.5t34 -13zM166 -193v126h124v-126h-124zM75 642l90 161h122l92 -161h-99l-54 101l-53 -101h-98z" />
    </font>
</defs>
</svg>
